<svg height="438pt" viewBox="0 -3 438.93083 438" width="438pt" xmlns="http://www.w3.org/2000/svg"><path d="m437.332031 80.289062c-1.519531-1.992187-3.894531-3.140624-6.398437-3.101562h-65.472656v-43.617188c-.136719-15.589843-12.722657-28.210937-28.316407-28.382812h-175.367187c-15.59375.171875-28.179688 12.792969-28.316406 28.382812v43.617188h-51.324219l-5.175781-30.214844c-3.636719-20.789062-19.71875-37.179687-40.4375-41.203125l-27.039063-5.164062c-4.335937-.824219-8.519531 2.023437-9.34375 6.359375-.824219 4.332031 2.023437 8.515625 6.355469 9.339844l27.042968 5.136718c14.160157 2.734375 25.164063 13.929688 27.652344 28.140625l49.226563 286.441407c-20.921875 6.707031-34.886719 26.441406-34.253907 48.40625.636719 21.960937 15.714844 40.855468 36.988282 46.347656 21.273437 5.492187 43.613281-3.742188 54.796875-22.652344 11.1875-18.914062 8.519531-42.941406-6.539063-58.9375h145.226563c-15.894531 16.949219-17.734375 42.722656-4.410157 61.757812 13.328126 19.035157 38.171876 26.125 59.539063 16.988282 21.367187-9.136719 33.402344-32 28.847656-54.785156-4.558593-22.785157-24.464843-39.257813-47.703125-39.472657-.917968-.339843-1.894531-.503906-2.875-.488281h-213.890625l-10.871093-63h231.972656c21.242187-.136719 40.171875-13.425781 47.515625-33.359375.058593-.167969.113281-.433594.164062-.605469l43.683594-148.890625c.707031-2.417969.234375-5.027343-1.277344-7.042969zm-287.871093-46.71875c.125-6.757812 5.554687-12.21875 12.316406-12.382812h175.367187c6.761719.164062 12.191407 5.625 12.316407 12.382812v101.5c-.148438 6.710938-5.605469 12.082032-12.316407 12.117188h-57.683593c-1.8125-.023438-3.574219.574219-5 1.695312l-47 37.511719v-31.320312c-.003907-2.109375-.851563-4.132813-2.355469-5.613281-1.5-1.480469-3.535157-2.300782-5.644531-2.273438h-57.683594c-6.710938-.035156-12.167969-5.40625-12.316406-12.113281zm-23.808594 382.363282c-18.320313 0-33.171875-14.851563-33.171875-33.167969 0-18.320313 14.851562-33.171875 33.171875-33.171875 18.320312 0 33.171875 14.851562 33.171875 33.171875-.023438 18.308594-14.863281 33.148437-33.171875 33.167969zm249.910156-33.167969c-.003906 18.320313-14.851562 33.167969-33.171875 33.167969s-33.171875-14.851563-33.167969-33.167969c0-18.320313 14.847656-33.171875 33.167969-33.171875 18.3125.019531 33.148437 14.859375 33.171875 33.171875zm4.085938-151.113281c-5.09375 13.496094-17.976563 22.457031-32.402344 22.535156h-234.722656l-27.636719-161h48.574219v41.886719c.15625 15.539062 12.773437 28.066406 28.316406 28.113281h49.683594v39.839844c.019531 3.066406 1.777343 5.859375 4.539062 7.195312 2.757812 1.339844 6.039062.996094 8.460938-.886718l57.804687-46.148438h54.878906c15.542969-.046875 28.160157-12.574219 28.316407-28.113281v-41.886719h54.785156zm0 0"/></svg>