<svg height="487pt" viewBox="0 -15 487.71963 487" width="487pt" xmlns="http://www.w3.org/2000/svg"><path d="m302.980469 244.089844c0-31.628906-26.585938-57.363282-59.265625-57.363282-32.679688 0-59.265625 25.734376-59.265625 57.363282 0 31.632812 26.585937 57.367187 59.265625 57.367187 32.679687 0 59.265625-25.734375 59.265625-57.367187zm-102.53125 0c0-22.808594 19.410156-41.363282 43.265625-41.363282 23.855468 0 43.265625 18.554688 43.265625 41.363282s-19.410157 41.367187-43.265625 41.367187c-23.855469 0-43.265625-18.558593-43.265625-41.367187zm0 0"/><path d="m147.714844 405.242188v44.546874c0 4.417969 3.113281 8.277344 7.53125 8.277344h176.9375c4.417968 0 7.53125-3.859375 7.53125-8.277344v-44.546874c0-51.382813-42.808594-93.183594-96-93.183594s-96 41.804687-96 93.183594zm96-77.183594c44.371094 0 80 34.625 80 77.183594v36.824218h-160v-36.824218c0-42.558594 35.628906-77.183594 80-77.183594zm0 0"/><path d="m216.046875 144.464844 21.230469 28.769531c1.507812 2.042969 3.898437 3.25 6.4375 3.25 2.539062 0 4.929687-1.207031 6.4375-3.25l21.234375-28.769531c33.277343-13.269532 52.453125-48.296875 45.695312-83.484375-6.753906-35.183594-37.539062-60.621094-73.367187-60.621094s-66.613282 25.4375-73.367188 60.621094c-6.757812 35.1875 12.417969 70.214843 45.699219 83.484375zm27.667969-128.125c28.527344.007812 52.921875 20.511718 57.832031 48.613281s-11.082031 55.664063-37.914063 65.347656c-1.488281.535157-2.785156 1.5-3.726562 2.773438l-16.191406 21.941406-16.191406-21.941406c-.941407-1.273438-2.234376-2.238281-3.722657-2.773438-26.835937-9.683593-42.828125-37.246093-37.917969-65.347656 4.910157-28.101563 29.304688-48.605469 57.832032-48.613281zm0 0"/><path d="m360.175781 106.136719c-21.574219 21.652343-27.839843 54.238281-15.824219 82.347656l-5.328124 35.355469c-.375 2.511718.460937 5.050781 2.257812 6.847656 1.792969 1.792969 4.332031 2.628906 6.84375 2.253906l35.355469-5.328125c34.5625 14.863281 74.785156 1.710938 93.890625-30.699219 19.101562-32.410156 11.128906-73.972656-18.613282-97.011718-29.742187-23.039063-71.976562-20.367188-98.582031 6.230468zm94.339844 94.34375c-17.523437 17.460937-44.089844 22.109375-66.5 11.632812-1.0625-.5-2.226563-.757812-3.402344-.757812-.398437 0-.796875.03125-1.191406.089843l-26.960937 4.0625 4.0625-26.964843c.234374-1.566407 0-3.164063-.671876-4.597657-12.683593-26.984374-3.136718-59.1875 22.203126-74.894531 25.34375-15.707031 58.433593-9.929687 76.953124 13.4375 18.519532 23.367188 16.585938 56.898438-4.492187 77.984375zm0 0"/><path d="m103.945312 227.617188 35.355469 5.328124c2.511719.375 5.050781-.460937 6.847657-2.253906 1.792968-1.796875 2.628906-4.335937 2.253906-6.847656l-5.328125-35.355469c14.089843-32.851562 2.882812-71.078125-26.714844-91.121093-29.59375-20.039063-69.25-16.261719-94.523437 9.015624-25.273438 25.273438-29.054688 64.929688-9.011719 94.523438s58.269531 40.800781 91.117187 26.710938zm-71.03125-110.167969c20.175782-20.167969 51.929688-22.917969 75.269532-6.519531 23.34375 16.398437 31.527344 47.203124 19.394531 73.019531-.671875 1.433593-.90625 3.035156-.667969 4.601562l4.0625 26.964844-26.964844-4.066406c-1.566406-.234375-3.164062 0-4.597656.671875-25.820312 12.132812-56.625 3.949218-73.023437-19.394532-16.398438-23.339843-13.644531-55.09375 6.523437-75.269531zm0 0"/></svg>