<svg height="482pt" viewBox="0 0 482 482" width="482pt" xmlns="http://www.w3.org/2000/svg"><path d="m474 179h-21v-146.914062c0-17.691407-14.695312-32.085938-32.386719-32.085938h-230.398437c-17.738282.0078125-32.136719 14.347656-32.214844 32.085938v135.636718c-12.242188-8.734375-26.90625-13.429687-41.949219-13.429687-38.957031 0-70.617187 30.648437-70.617187 68.328125 0 37.675781 31.707031 68.109375 70.667968 68.109375 26.011719.199219 50.027344-13.910157 62.515626-36.730469h271.296874c8.464844.085938 16.609376-3.207031 22.632813-9.148438 6.023437-5.941406 9.425781-14.042968 9.453125-22.503906v-34.921875c0-4.417969-3.582031-8.425781-8-8.425781zm-283.789062-163h230.398437c8.941406-.015625 16.238281 7.144531 16.390625 16.085938v146.914062h-91.445312c-4.417969 0-7.554688 4.007812-7.554688 8.425781v15.574219h-65v-15.574219c0-4.417969-3.308594-8.425781-7.726562-8.425781h-91.273438v-146.914062c.070312-8.90625 7.308594-16.085938 16.210938-16.085938zm-74.09375 258.949219c-30.136719 0-54.652344-23.476563-54.652344-52.328125 0-28.855469 24.515625-52.328125 54.652344-52.328125 30.136718 0 54.652343 23.472656 54.652343 52.328125 0 28.851562-24.519531 52.328125-54.652343 52.328125zm349.882812-52.601563c-.023438 4.21875-1.738281 8.253906-4.761719 11.195313-3.023437 2.945312-7.105469 4.550781-11.324219 4.457031h-265.078124c1.285156-5.171875 1.933593-10.480469 1.933593-15.808594 0-9.660156-2.101562-18.191406-5.855469-27.191406h76.085938v16.105469c.136719 4.449219 3.820312 7.964843 8.273438 7.894531h80.28125c4.417968 0 8.445312-3.472656 8.445312-7.894531v-16.105469h112zm0 0"/><path d="m264.46875 172h85.898438c4.417968 0 7.628906-3.765625 7.628906-8.183594v-21.625c0-23.515625-16.882813-43.230468-39.644532-48.160156 12.679688-4.441406 21.863282-16.25 21.863282-30.082031 0-17.625-14.710938-31.96875-32.847656-31.96875-18.132813 0-32.859376 14.34375-32.859376 31.96875.03125 13.59375 8.683594 25.671875 21.542969 30.082031-22.761719 4.929688-40.050781 24.644531-40.050781 48.160156v21.625c.203125 4.542969 3.921875 8.132813 8.46875 8.183594zm26.058594-108.050781c0-8.800781 7.578125-15.96875 16.894531-15.96875 9.3125 0 16.886719 7.164062 16.886719 15.96875 0 8.804687-7.578125 15.96875-16.886719 15.96875-9.3125 0-16.894531-7.164063-16.894531-15.96875zm-18.527344 78.242187c0-18.394531 15.726562-33.359375 35-33.359375s35 14.964844 35 33.359375v13.808594h-70zm0 0"/><path d="m8 482h216.230469c2.097656-.007812 4.105469-.863281 5.566406-2.367188 1.460937-1.503906 2.253906-3.535156 2.203125-5.632812v-54.4375c0-61.816406-51.972656-112.105469-116-112.105469s-116 50.289063-116 112.105469v54.4375c0 4.417969 3.582031 8 8 8zm8-62.4375c0-52.992188 44.800781-96.105469 100-96.105469s100 43.113281 100 96.105469v46.4375h-200zm0 0"/></svg>