<svg height="472pt" viewBox="-19 0 472 472.193" width="472pt" xmlns="http://www.w3.org/2000/svg"><path d="m364.507812 164.894531c5.320313-5.226562 8.339844-12.359375 8.394532-19.816406v-101.5c-.136719-15.59375-12.726563-28.210937-28.316406-28.386719h-88.457032c-23.542968-9.96875-48.84375-15.1328122-74.410156-15.191406-76.378906 0-148.753906 46.734375-172.277344 111.050781-17.039062 35.574219-7.089844 104.945313.914063 160.691407 2.058593 14.332031 4 27.898437 5.300781 39.546874l.84375 150.054688c.023438 4.363281 3.539062 7.902344 7.902344 7.960938l224.363281 2.886718h.097656c4.425781.007813 8.023438-3.574218 8.039063-8v-61.851562l55.917968 1.722656c.507813.015625 1 .023438 1.511719.023438 26.265625-.027344 47.632813-21.164063 47.949219-47.429688l.71875-71.464844h62.757812c2.921876-.054687 5.59375-1.667968 7.003907-4.226562 1.414062-2.5625 1.351562-5.679688-.164063-8.183594zm-7.605468-121.316406v101.5c-.148438 6.707031-5.609375 12.078125-12.316406 12.113281h-57.683594c-1.8125-.019531-3.578125.578125-5 1.695313l-47 37.511719v-31.320313c-.003906-2.109375-.851563-4.128906-2.355469-5.613281-1.503906-1.480469-3.535156-2.296875-5.644531-2.273438h-57.6875c-6.707032-.035156-12.167969-5.40625-12.3125-12.113281v-101.5c.125-6.761719 5.554687-12.222656 12.3125-12.386719h175.371094c6.757812.164063 12.191406 5.625 12.316406 12.386719zm-1.828125 225.613281c-4.367188-.039062-7.945313 3.460938-8 7.832032l-.796875 79.425781c-.089844 8.597656-3.636719 16.796875-9.84375 22.746093-6.203125 5.949219-14.539063 9.152344-23.132813 8.882813l-127.859375-3.9375c-2.90625-.164063-5.671875 1.261719-7.222656 3.722656-1.554688 2.460938-1.644531 5.574219-.242188 8.121094 1.402344 2.550781 4.078126 4.136719 6.988282 4.144531l55.9375 1.71875v54.246094l-208.429688-2.679688-.8125-142.613281c-.003906-.277343-.019531-.554687-.050781-.828125-1.324219-12-3.3125-25.824218-5.414063-40.457031-7.722656-53.777344-17.328124-120.707031-2.1875-151.742187.125-.253907.238282-.515626.332032-.785157 10.175781-28.085937 31.640625-53.710937 60.441406-72.152343 22.203125-14.1875 47.210938-23.402344 73.308594-27.019532-10.355469 4.390625-17.113282 14.515625-17.1875 25.761719v101.5c.152344 15.539063 12.773437 28.070313 28.3125 28.113281h49.6875v39.84375c.015625 3.066406 1.777344 5.855469 4.535156 7.195313 2.761719 1.339843 6.042969.992187 8.464844-.890625l57.804687-46.148438h54.878907c1.894531.011719 3.789062-.167968 5.652343-.539062l61 96.539062zm0 0"/></svg>