<svg height="480pt" viewBox="0 -38 480.00227 480" width="480pt" xmlns="http://www.w3.org/2000/svg"><path d="m472.1875 306h-33.1875v-208.726562c.054688-10.953126-4.269531-21.476563-12.011719-29.226563-7.742187-7.75-18.257812-12.085937-29.210937-12.046875h-37.777344v-27.164062c.078125-7.609376-2.882812-14.9375-8.234375-20.351563-5.347656-5.414063-12.636719-8.46875-20.246094-8.484375h-183.035156c-7.613281.015625-14.902344 3.070312-20.25 8.484375s-8.3125 12.742187-8.234375 20.351563v27.164062h-43.371094c-10.996094-.054688-21.5625 4.261719-29.371094 12.003906-7.808593 7.742188-12.21875 18.273438-12.257812 29.269532v208.726562h-27.1875c-2.082031-.039062-4.089844.769531-5.5625 2.242188-1.472656 1.46875-2.2851562 3.476562-2.25 5.558593v48.675781c-.0273438 10.996094 4.320312 21.550782 12.082031 29.339844 7.761719 7.792969 18.304688 12.175782 29.300781 12.183594h397.238282c10.996094-.007812 21.539062-4.394531 29.300781-12.183594 7.761719-7.789062 12.109375-18.347656 12.078125-29.34375v-48.671875c.035156-2.082031-.773438-4.085937-2.25-5.558593-1.472656-1.472657-3.480469-2.28125-5.5625-2.242188zm-336.1875-277.164062c-.082031-3.367188 1.195312-6.628907 3.542969-9.042969 2.347656-2.414063 5.570312-3.78125 8.941406-3.792969h183.035156c3.367188.011719 6.589844 1.378906 8.9375 3.792969 2.351563 2.414062 3.628907 5.675781 3.542969 9.042969v105.9375c0 7.101562-5.382812 13.226562-12.480469 13.226562h-60.207031c-1.746094-.0625-3.460938.496094-4.839844 1.574219l-49.472656 39.492187v-33.417968c0-4.417969-3.894531-7.648438-8.3125-7.648438h-60.203125c-7.101563 0-12.484375-6.125-12.484375-13.226562zm-85 68.4375c.035156-6.753907 2.757812-13.214844 7.566406-17.960938 4.808594-4.742188 11.308594-7.371094 18.0625-7.3125h43.371094v62.773438c0 15.925781 12.5625 29.226562 28.484375 29.226562h52.515625v41.699219c-.0625 3.050781 1.644531 5.859375 4.378906 7.210937 2.714844 1.289063 5.917969.988282 8.34375-.785156l60.394532-48.125h57.398437c15.925781 0 28.484375-13.300781 28.484375-29.226562v-62.773438h37.777344c6.710937-.046875 13.160156 2.605469 17.902344 7.355469 4.742187 4.75 7.378906 11.207031 7.320312 17.917969v208.726562h-129.847656c-2.117188-.050781-4.167969.742188-5.695313 2.207031-1.53125 1.464844-2.414062 3.476563-2.457031 5.59375v25.199219h-96v-25.199219c.050781-2.074219-.746094-4.078125-2.207031-5.550781-1.464844-1.472656-3.464844-2.285156-5.539063-2.25h-130.253906zm413 265.199218c.035156 6.757813-2.625 13.246094-7.386719 18.039063-4.761719 4.789062-11.238281 7.484375-17.992187 7.488281h-397.238282c-6.757812-.003906-13.230468-2.699219-17.996093-7.492188-4.761719-4.789062-7.417969-11.28125-7.386719-18.035156v-40.472656h157v24.808594c.105469 4.503906 3.75 8.121094 8.253906 8.191406h111.902344c4.421875-.105469 7.929688-3.769531 7.84375-8.191406v-24.808594h163zm0 0"/></svg>