<svg height="498pt" viewBox="0 -73 498.16754 498" width="498pt" xmlns="http://www.w3.org/2000/svg"><path d="m27.128906 179.082031h157.410156c2.070313.023438 4.054688-.800781 5.496094-2.285156 1.4375-1.480469 2.210938-3.488281 2.132813-5.550781v-115.992188c0-4.417968-3.207031-8.171875-7.628907-8.171875h-157.410156c-4.445312.085938-7.992187 3.730469-7.960937 8.171875v115.992188c-.003907 2.097656.839843 4.113281 2.335937 5.585937 1.496094 1.476563 3.523438 2.285157 5.625 2.25zm8.039063-116h141v9.671875l-71.433594 44.621094-69.566406-44.773438zm0 28.53125 65.367187 41.957031c2.53125 1.667969 5.804688 1.691407 8.355469.058594l67.277344-42.023437v71.476562h-141zm0 0"/><path d="m429.335938.0820312h-155.96875c-.371094.0585938-.734376.1445308-1.09375.2499998-1.085938-.050781-2.09375 0-3.191407 0-38.089843.089844-68.917969 30.996094-68.914062 69.085938v116.664062h-192.167969c-4.417969 0-8 3.582031-8 8 0 4.421875 3.582031 8 8 8h351.167969v141.667969c.050781 4.515625 3.652343 8.191406 8.167969 8.332031h60c4.417968 0 7.832031-3.914062 7.832031-8.332031v-141.667969h55.167969c2.066406.070313 4.074218-.710937 5.554687-2.15625 1.476563-1.449219 2.300781-3.4375 2.277344-5.507812v-125c0-38.046875-30.785157-69.3359378-68.832031-69.3359378zm-213.167969 185.9999998v-116.664062c0-29.273438 23.726562-53 53-53 29.269531 0 53 23.726562 53 53v116.664062zm203 150h-44v-134h44zm63-150h-144v-116.664062c0-21.277344-9.855469-40.335938-25.042969-53.335938h116.210938c29.222656 0 52.832031 24.109375 52.832031 53.335938zm0 0"/></svg>