<svg height="494pt" viewBox="-11 0 494 494.00001" width="494pt" xmlns="http://www.w3.org/2000/svg"><path d="m236 407.816406c23.613281 0 42.820312-18.632812 42.820312-41.53125 0-22.898437-19.207031-41.53125-42.820312-41.53125s-42.820312 18.632813-42.820312 41.53125c0 22.898438 19.207031 41.53125 42.820312 41.53125zm0-67.0625c14.789062 0 26.820312 11.453125 26.820312 25.53125s-12.03125 25.53125-26.820312 25.53125-26.820312-11.453125-26.820312-25.53125 12.03125-25.53125 26.820312-25.53125zm0 0"/><path d="m175.910156 494h120.179688c2.113281-.003906 4.136718-.851562 5.621094-2.351562 1.484374-1.503907 2.308593-3.535157 2.289062-5.648438v-10.257812c0-36.3125-30.453125-65.859376-68-65.859376s-68 29.546876-68 65.859376v10.257812c-.019531 2.113281.804688 4.144531 2.289062 5.648438 1.484376 1.5 3.507813 2.347656 5.621094 2.351562zm8.089844-18.257812c0-27.492188 23.277344-49.859376 52-49.859376s52 22.367188 52 49.859376v2.257812h-104zm0 0"/><path d="m361.089844 366.285156c0 22.898438 19.210937 41.53125 42.820312 41.53125s42.820313-18.632812 42.820313-41.53125c0-22.898437-19.207031-41.53125-42.820313-41.53125-23.613281 0-42.820312 18.632813-42.820312 41.53125zm69.640625 0c0 14.078125-12.03125 25.53125-26.820313 25.53125-14.789062 0-26.820312-11.453125-26.820312-25.53125s12.03125-25.53125 26.820312-25.53125c14.789063 0 26.820313 11.453125 26.820313 25.53125zm0 0"/><path d="m336 475.742188v10.257812c-.039062 2.101562.765625 4.132812 2.234375 5.636719 1.472656 1.503906 3.484375 2.355469 5.585937 2.363281h120.179688c4.417969 0 8-3.582031 8-8v-10.257812c0-36.3125-30.453125-65.859376-68-65.859376s-68 29.546876-68 65.859376zm120 0v2.257812h-104v-2.257812c0-27.492188 23.277344-49.859376 52-49.859376s52 22.367188 52 49.859376zm0 0"/><path d="m68.089844 407.816406c23.609375 0 42.820312-18.632812 42.820312-41.53125 0-22.898437-19.210937-41.53125-42.820312-41.53125s-42.820313 18.632813-42.820313 41.53125c0 22.898438 19.207031 41.53125 42.820313 41.53125zm0-67.0625c14.789062 0 26.820312 11.453125 26.820312 25.53125s-12.03125 25.53125-26.820312 25.53125c-14.789063 0-26.820313-11.453125-26.820313-25.53125s12.03125-25.53125 26.820313-25.53125zm0 0"/><path d="m8 494h120.179688c2.101562-.007812 4.113281-.859375 5.585937-2.363281 1.46875-1.503907 2.273437-3.535157 2.234375-5.636719v-10.257812c0-36.3125-30.453125-65.859376-68-65.859376s-68 29.546876-68 65.859376v10.257812c0 4.417969 3.582031 8 8 8zm8-18.257812c0-27.492188 23.277344-49.859376 52-49.859376s52 22.367188 52 49.859376v2.257812h-104zm0 0"/><path d="m362.820312 346.285156c0-22.898437-19.207031-41.53125-42.820312-41.53125s-42.820312 18.632813-42.820312 41.53125c0 22.898438 19.207031 41.53125 42.820312 41.53125s42.820312-18.632812 42.820312-41.53125zm-69.640624 0c0-14.078125 12.03125-25.53125 26.820312-25.53125s26.820312 11.453125 26.820312 25.53125-12.03125 25.53125-26.820312 25.53125-26.820312-11.453125-26.820312-25.53125zm0 0"/><path d="m152 304.753906c-23.613281 0-42.820312 18.632813-42.820312 41.53125 0 22.898438 19.207031 41.53125 42.820312 41.53125s42.820312-18.632812 42.820312-41.53125c0-22.898437-19.207031-41.53125-42.820312-41.53125zm0 67.0625c-14.789062 0-26.820312-11.453125-26.820312-25.53125s12.03125-25.53125 26.820312-25.53125 26.820312 11.453125 26.820312 25.53125-12.03125 25.53125-26.820312 25.53125zm0 0"/><path d="m60.5 292h351c4.417969 0 7.5-3.582031 7.5-8v-45c0-4.417969-3.082031-8-7.5-8h-38.5v-38.648438c10.03125-3.363281 16.246094-13.390624 14.796875-23.867187-1.449219-10.480469-10.148437-18.445313-20.714844-18.964844-10.566406-.515625-20.003906 6.558594-22.472656 16.84375-2.464844 10.289063 2.738281 20.875 12.390625 25.203125v39.433594h-18v-25.199219c0-25.238281-20.960938-45.800781-46.199219-45.800781h-18.800781v-7.78125c2-1.699219 3.886719-3.53125 5.828125-5.523438 11.761719-12.101562 18.289063-28.347656 18.171875-45.222656v-47.472656h5.710938c4.4375-.050781 8.007812-3.667969 8-8.109375-.019532-25.292969-20.488282-45.8085938-45.78125-45.890625h-38.894532c-5.386718-.00390625-10.640625 1.664062-15.035156 4.777344-24.148438 9.597656-40.003906 32.953125-40 58.941406v37.753906c-.15625 16.863282 6.332031 33.113282 18.066406 45.226563 2.417969 2.640625 5.074219 5.050781 7.933594 7.199219v6.101562h-18.800781c-25.238281 0-46.199219 20.5625-46.199219 45.800781v25.199219h-72.5c-4.417969 0-8.5 3.582031-8.5 8v45c0 4.417969 4.082031 8 8.5 8zm305.5-126.5c3.3125 0 6 2.6875 6 6s-2.6875 6-6 6-6-2.6875-6-6c.003906-3.3125 2.6875-5.996094 6-6zm-43 40.300781v25.199219h-80v-39.652344l24.824219-15.347656h24.976562c16.414063 0 30.199219 13.382812 30.199219 29.800781zm-95.964844-189.800781h38.894532c13.460937-.070312 25.261718 8.980469 28.6875 22h-67.582032c-6.074218 0-11-4.925781-11-11s4.925782-11 11-11zm-26.535156 15.238281c1.203125 7.308594 5.363281 13.796875 11.5 17.941407-6.765625 6.132812-15.28125 9.996093-24.351562 11.042968.839843-10.847656 5.378906-21.078125 12.851562-28.984375zm-12.5 70.234375v-25.207031c10-.777344 27.144531-5.265625 41.777344-22.265625h52.222656v47.472656c.023438 12.730469-4.957031 24.964844-13.867188 34.0625-8.703124 9.113282-20.742187 14.285156-33.34375 14.320313-12.53125-.039063-24.503906-5.214844-33.117187-14.320313-8.855469-9.117187-13.765625-21.355468-13.671875-34.0625zm46.894531 64.382813c7.898438-.074219 15.71875-1.546875 23.105469-4.34375v2.074219l-22.609375 13.828124-21.390625-13.714843v-1.351563c6.730469 2.285156 13.785156 3.46875 20.894531 3.507813zm-85.894531 39.945312c0-16.417969 13.785156-29.800781 30.199219-29.800781h24.734375l23.066406 15.234375v39.765625h-78zm-81 41.199219h71.699219c1.140625.257812 2.324219.257812 3.460937 0h185.679688c1.140625.257812 2.324218.257812 3.460937 0h70.699219v29h-335zm0 0"/><path d="m228.664062 90.699219c0-4.417969-3.582031-8-8-8-4.417968 0-8 3.582031-8 8 0 .796875-.644531 1.4375-1.4375 1.4375-.796874 0-1.441406-.640625-1.441406-1.4375 0-4.417969-3.578125-8-8-8-4.417968 0-8 3.582031-8 8 0 9.632812 7.808594 17.4375 17.441406 17.4375 9.628907 0 17.4375-7.804688 17.4375-17.4375zm0 0"/><path d="m258.414062 108.136719c9.628907-.011719 17.429688-7.8125 17.441407-17.4375 0-4.417969-3.582031-8-8-8s-8 3.582031-8 8c0 .796875-.644531 1.4375-1.441407 1.4375-.792968 0-1.4375-.640625-1.4375-1.4375 0-4.417969-3.582031-8-8-8-4.417968 0-8 3.582031-8 8 .011719 9.625 7.8125 17.425781 17.4375 17.4375zm0 0"/></svg>