<svg height="492pt" viewBox="0 0 492 492.00015" width="492pt" xmlns="http://www.w3.org/2000/svg"><path d="m141.308594 253.253906c2.664062 1.203125 5.765625.890625 8.136718-.820312l41.816407-31.433594h40.753906c11.667969 0 20.984375-9.914062 20.984375-21.929688v-34.070312h24.125l54.734375 52.117188c1.480469 1.4375 3.449219 2.253906 5.507813 2.285156 1.039062.011718 2.066406-.175782 3.03125-.554688 2.925781-1.257812 4.863281-4.097656 4.964843-7.28125l1.582031-46.566406h19.242188c19.328125-.175781 34.882812-15.925781 34.8125-35.253906v-94.15625c0-19.625-15.886719-35.589844-34.8125-35.589844h-172.007812c-18.925782 0-34.179688 15.964844-34.179688 35.589844v77.410156h-37.351562c-11.972657.207031-21.589844 9.941406-21.648438 21.917969v64.152343c.058594 11.976563 9.671875 21.714844 21.648438 21.929688h12.269531l1.734375 25.582031c.199218 2.914063 1.988281 5.476563 4.65625 6.671875zm34.691406-217.664062c0-10.800782 8.074219-19.589844 18.179688-19.589844h172.007812c10.105469 0 18.8125 8.789062 18.8125 19.589844v94.15625c.078125 10.492187-8.316406 19.089844-18.8125 19.253906h-26.976562c-4.347657.074219-7.867188 3.554688-8 7.898438l-1.238282 36.460937-44.15625-42.03125c-1.472656-1.445313-3.4375-2.277344-5.5-2.328125h-86.136718c-10.101563 0-18.179688-8.453125-18.179688-19.253906zm-53.351562 169.410156c-3.140626-.203125-5.597657-2.785156-5.648438-5.929688v-64.152343c.050781-3.144531 2.511719-5.722657 5.648438-5.917969h37.351562v.746094c0 19.625 15.253906 35.253906 34.179688 35.253906h42.820312v34.070312c0 3.199219-2.136719 5.929688-4.984375 5.929688h-43.429687c-1.730469-.023438-3.421876.519531-4.816407 1.542969l-32.152343 24.1875-1.242188-18.320313c-.289062-4.191406-3.78125-7.433594-7.980469-7.410156zm0 0"/><path d="m202.730469 69h78.96875c4.417969 0 8-3.582031 8-8s-3.582031-8-8-8h-78.96875c-4.417969 0-8 3.582031-8 8s3.582031 8 8 8zm0 0"/><path d="m202.730469 111h151.613281c4.417969 0 8-3.582031 8-8s-3.582031-8-8-8h-151.613281c-4.417969 0-8 3.582031-8 8s3.582031 8 8 8zm0 0"/><path d="m381.089844 334.535156c0 22.898438 19.210937 41.53125 42.820312 41.53125s42.820313-18.632812 42.820313-41.53125c0-22.898437-19.210938-41.53125-42.820313-41.53125s-42.820312 18.632813-42.820312 41.53125zm69.640625 0c0 14.078125-12.03125 25.53125-26.820313 25.53125-14.789062 0-26.820312-11.453125-26.820312-25.53125s12.03125-25.53125 26.820312-25.53125c14.789063 0 26.820313 11.453125 26.820313 25.53125zm0 0"/><path d="m424 378.132812c-37.542969 0-68 29.546876-68 65.859376v10.257812c-.03125 2.078125.785156 4.078125 2.261719 5.539062 1.476562 1.460938 3.484375 2.261719 5.558593 2.210938h120.179688c2.09375.054688 4.125-.734375 5.628906-2.191406 1.507813-1.460938 2.359375-3.460938 2.371094-5.558594v-10.257812c0-36.3125-30.457031-65.859376-68-65.859376zm52 67.867188h-104v-2.007812c0-27.492188 23.277344-49.859376 52-49.859376s52 22.367188 52 49.859376zm0 0"/><path d="m25.269531 334.535156c0 22.898438 19.210938 41.53125 42.820313 41.53125s42.820312-18.632812 42.820312-41.53125c0-22.898437-19.210937-41.53125-42.820312-41.53125s-42.820313 18.632813-42.820313 41.53125zm42.820313-25.53125c14.789062 0 26.820312 11.453125 26.820312 25.53125s-12.03125 25.53125-26.820312 25.53125c-14.789063 0-26.820313-11.453125-26.820313-25.53125s12.03125-25.53125 26.820313-25.53125zm0 0"/><path d="m68 378.132812c-37.542969 0-68 29.546876-68 65.859376v10.257812c.0117188 2.097656.863281 4.097656 2.371094 5.558594 1.503906 1.457031 3.535156 2.246094 5.628906 2.191406h120.179688c2.074218.050781 4.082031-.75 5.558593-2.210938 1.476563-1.460937 2.292969-3.460937 2.261719-5.539062v-10.257812c0-36.3125-30.457031-65.859376-68-65.859376zm52 67.867188h-104v-2.007812c0-27.492188 23.277344-49.859376 52-49.859376s52 22.367188 52 49.859376zm0 0"/><path d="m305.851562 401h-20.851562v-8.855469c2-1.816406 4.539062-3.777343 6.617188-5.914062 12.414062-12.636719 19.375-29.640625 19.382812-47.355469v-50.875h6.351562c4.4375-.042969 8.007813-3.65625 8-8.09375-.023437-26.414062-21.402343-47.832031-47.8125-47.90625h-40.984374c-5.777344.058594-11.398438 1.863281-16.132813 5.175781-25.441406 10.058594-42.226563 34.558594-42.421875 61.917969v39.78125c.132812 17.753906 7.210938 34.753906 19.71875 47.355469 2.902344 2.78125 6.003906 5.347656 9.28125 7.675781v7.09375h-20.851562c-26.359376 0-48.148438 21.453125-48.148438 47.8125v35.1875c.164062 4.484375 3.859375 8.027344 8.34375 8h199.3125c4.484375.027344 8.183594-3.515625 8.34375-8v-35.1875c0-26.359375-21.789062-47.8125-48.148438-47.8125zm-69.300781-153h40.984375c14.777344 0 27.238282 11 30.792969 24h-71.773437c-6.628907 0-12-5.371094-12-12s5.371093-12 12-12zm-27.652343 15.941406c1.082031 8.109375 5.660156 15.332032 12.527343 19.773438-7.382812 6.859375-16.800781 11.132812-26.824219 12.167968.808594-12.007812 5.878907-23.335937 14.296876-31.941406zm-14.898438 74.933594v-26.960938c11-.734374 29.699219-4.914062 45.238281-23.914062h55.761719v50.875c.007812 13.535156-5.300781 26.535156-14.785156 36.195312-9.257813 9.6875-22.066406 15.183594-35.464844 15.21875-13.472656-.035156-26.359375-5.523437-35.714844-15.21875-9.550781-9.636718-14.949218-22.628906-15.035156-36.195312zm50.835938 67.414062c8.285156-.03125 16.488281-1.652343 24.164062-4.777343v3.054687l-23.648438 14.84375-22.351562-14.730468v-2.261719c6.996094 2.566406 14.386719 3.875 21.835938 3.871093zm-90.835938 42.523438c0-17.539062 14.613281-31.8125 32.148438-31.8125h26.191406l24.660156 16.230469v42.769531h-83zm184 27.1875h-85v-42.65625l26.410156-16.34375h26.441406c17.535157 0 32.148438 14.273438 32.148438 31.8125zm0 0"/><path d="m237.839844 327.523438c0-4.417969-3.582032-8-8-8-4.417969 0-8 3.582031-8 8 0 1.074218-.871094 1.945312-1.945313 1.945312-1.078125 0-1.949219-.871094-1.949219-1.945312 0-4.417969-3.578124-8-8-8-4.417968 0-8 3.582031-8 8 0 9.910156 8.035157 17.945312 17.949219 17.945312 9.910157 0 17.945313-8.035156 17.945313-17.945312zm0 0"/><path d="m269.621094 345.46875c9.90625-.011719 17.933594-8.039062 17.945312-17.945312 0-4.417969-3.582031-8-8-8-4.417968 0-8 3.582031-8 8 .015625.703124-.351562 1.363281-.960937 1.71875-.609375.359374-1.363281.359374-1.96875 0-.609375-.355469-.976563-1.015626-.960938-1.71875 0-4.417969-3.582031-8-8-8s-8 3.582031-8 8c.011719 9.90625 8.039063 17.933593 17.945313 17.945312zm0 0"/></svg>