<svg height="493pt" viewBox="-10 0 493 493.00791" width="493pt" xmlns="http://www.w3.org/2000/svg"><path d="m193.183594 364.792969c0 22.898437 19.207031 41.53125 42.820312 41.53125 23.613282 0 42.820313-18.632813 42.820313-41.53125 0-22.898438-19.207031-41.53125-42.820313-41.53125-23.613281 0-42.820312 18.632812-42.820312 41.53125zm42.820312-25.53125c14.789063 0 26.820313 11.453125 26.820313 25.53125s-12.03125 25.53125-26.820313 25.53125c-14.789062 0-26.820312-11.453125-26.820312-25.53125s12.03125-25.53125 26.820312-25.53125zm0 0"/><path d="m236.003906 408.390625c-37.542968 0-68 29.546875-68 65.859375v10.257812c0 4.417969 3.492188 8.5 7.910156 8.5h120.179688c4.417969 0 7.910156-4.082031 7.910156-8.5v-10.257812c0-36.3125-30.457031-65.859375-68-65.859375zm52 68.617187h-104v-2.757812c0-27.492188 23.277344-49.859375 52-49.859375s52 22.367187 52 49.859375zm0 0"/><path d="m403.914062 323.261719c-23.609374 0-42.820312 18.632812-42.820312 41.53125 0 22.898437 19.210938 41.53125 42.820312 41.53125 23.613282 0 42.820313-18.632813 42.820313-41.53125 0-22.898438-19.207031-41.53125-42.820313-41.53125zm0 67.0625c-14.789062 0-26.820312-11.453125-26.820312-25.53125s12.03125-25.53125 26.820312-25.53125c14.789063 0 26.820313 11.453125 26.820313 25.53125s-12.03125 25.53125-26.820313 25.53125zm0 0"/><path d="m404.003906 408.390625c-37.546875 0-68 29.546875-68 65.859375v10.257812c0 4.417969 3.398438 8.5 7.820313 8.5h120.179687c4.417969 0 8-4.082031 8-8.5v-10.257812c0-36.3125-30.453125-65.859375-68-65.859375zm52 68.617187h-104v-2.757812c0-27.492188 23.277344-49.859375 52-49.859375s52 22.367187 52 49.859375zm0 0"/><path d="m25.273438 364.792969c0 22.898437 19.207031 41.53125 42.820312 41.53125 23.609375 0 42.820312-18.632813 42.820312-41.53125 0-22.898438-19.210937-41.53125-42.820312-41.53125-23.613281 0-42.820312 18.632812-42.820312 41.53125zm42.820312-25.53125c14.789062 0 26.820312 11.453125 26.820312 25.53125s-12.03125 25.53125-26.820312 25.53125-26.820312-11.453125-26.820312-25.53125 12.03125-25.53125 26.820312-25.53125zm0 0"/><path d="m68.003906 408.390625c-37.546875 0-67.99999975 29.546875-67.99999975 65.859375v10.257812c0 4.417969 3.58203175 8.5 7.99999975 8.5h120.179688c4.417968 0 7.820312-4.082031 7.820312-8.5v-10.257812c0-36.3125-30.453125-65.859375-68-65.859375zm52 68.617187h-104v-2.757812c0-27.492188 23.277344-49.859375 52-49.859375s52 22.367187 52 49.859375zm0 0"/><path d="m362.824219 344.792969c0-22.898438-19.207031-41.53125-42.820313-41.53125-23.613281 0-42.820312 18.632812-42.820312 41.53125 0 22.898437 19.207031 41.53125 42.820312 41.53125 23.613282 0 42.820313-18.632813 42.820313-41.53125zm-42.820313 25.53125c-14.789062 0-26.820312-11.453125-26.820312-25.53125s12.03125-25.53125 26.820312-25.53125c14.789063 0 26.820313 11.453125 26.820313 25.53125s-12.03125 25.53125-26.820313 25.53125zm0 0"/><path d="m194.824219 344.792969c0-22.898438-19.207031-41.53125-42.820313-41.53125-23.613281 0-42.820312 18.632812-42.820312 41.53125 0 22.898437 19.207031 41.53125 42.820312 41.53125 23.613282 0 42.820313-18.632813 42.820313-41.53125zm-42.820313 25.53125c-14.789062 0-26.820312-11.453125-26.820312-25.53125s12.03125-25.53125 26.820312-25.53125c14.789063 0 26.820313 11.453125 26.820313 25.53125s-12.03125 25.53125-26.820313 25.53125zm0 0"/><path d="m228.667969 129.207031c0-4.417969-3.582031-8-8-8s-8 3.582031-8 8c0 .796875-.644531 1.4375-1.4375 1.4375-.796875 0-1.441407-.640625-1.441407-1.4375 0-4.417969-3.578124-8-8-8-4.417968 0-8 3.582031-8 8 0 9.632813 7.808594 17.4375 17.441407 17.4375 9.628906 0 17.4375-7.804687 17.4375-17.4375zm0 0"/><path d="m258.421875 146.644531c9.625-.011719 17.425781-7.8125 17.4375-17.4375 0-4.417969-3.582031-8-8-8s-8 3.582031-8 8c0 .796875-.644531 1.4375-1.4375 1.4375-.796875 0-1.441406-.640625-1.441406-1.4375 0-4.417969-3.582031-8-8-8s-8 3.582031-8 8c.011719 9.625 7.8125 17.425781 17.441406 17.4375zm0 0"/><path d="m431.503906.0078125h-391c-4.417968 0-8.5 3.0820315-8.5 7.4999995v270c.195313 4.613282 3.886719 8.304688 8.5 8.5h99.199219c.558594 0 1.136719.191407 1.730469.191407s1.171875-.191407 1.730468-.191407h185.679688c.558594 0 1.136719.191407 1.730469.191407.597656 0 1.171875-.191407 1.730469-.191407h99.203124c4.417969 0 7.5-4.082031 7.5-8.5v-270c.09375-2.015624-.667968-3.980468-2.09375-5.40625-1.429687-1.429687-3.394531-2.1874995-5.410156-2.0937495zm-204.464844 75.9999995c-3.84375.140626-7.453124-1.828124-9.417968-5.136718-1.960938-3.304688-1.960938-7.421875 0-10.726563 1.964844-3.308593 5.574218-5.277343 9.417968-5.136719h38.894532c13.148437-.09375 24.804687 8.4375 28.6875 21zm-26.535156-6.261718c1.203125 7.308594 5.363282 13.792968 11.5 17.941406-6.765625 6.132812-15.28125 9.996094-24.351562 11.042969.839844-10.847657 5.378906-21.078125 12.851562-28.984375zm-12.5 45.027344c10-.777344 27.144532-4.765626 41.777344-22.765626h52.222656v47.972657c.023438 12.730469-4.957031 24.964843-13.867187 34.0625-8.703125 9.113281-20.742188 14.285156-33.34375 14.320312-12.53125-.039062-24.503907-5.214843-33.117188-14.320312-8.855469-9.117188-13.765625-21.355469-13.671875-34.0625zm135 155.234374h-80v-40.152343l24.824219-14.847657h24.976563c16.417968 0 30.199218 12.882813 30.199218 29.300782zm-88.105468-65.644531c7.898437-.074219 15.71875-1.546875 23.105468-4.34375v2.070313l-22.609375 13.835937-21.390625-13.71875v-1.351562c6.730469 2.285156 13.785156 3.46875 20.894532 3.507812zm-30.960938 10.644531 23.066406 14.734376v40.265624h-78v-25.699218c0-16.417969 13.785156-29.300782 30.199219-29.300782zm219.066406 55h-84v-25.699218c0-25.238282-20.960937-45.300782-46.199218-45.300782h-18.800782v-8.28125c2-1.699218 3.886719-3.53125 5.828125-5.523437 11.761719-12.101563 18.289063-28.347656 18.171875-45.222656v-47.972657h5.710938c2.078125.089844 4.105468-.671874 5.613281-2.105468 1.507813-1.4375 2.371094-3.421875 2.386719-5.503906-.03125-12.097657-4.875-23.683594-13.464844-32.203126-8.589844-8.515624-20.21875-13.261718-32.316406-13.1875h-38.894532c-5.359374-.089843-10.617187 1.492188-15.035156 4.527344-24.125 9.484375-39.992187 32.765625-40 58.691406v37.753907c-.15625 16.863281 6.332032 33.113281 18.066406 45.226562 2.417969 2.640625 5.074219 5.050781 7.933594 7.199219v6.601562h-18.800781c-25.238281 0-46.199219 20.0625-46.199219 45.300782v25.699218h-85v-254h375zm0 0"/></svg>