<svg height="487pt" viewBox="0 0 487.71963 487" width="487pt" xmlns="http://www.w3.org/2000/svg"><path d="m216.046875 144.464844 21.230469 28.769531c1.507812 2.042969 3.898437 3.25 6.4375 3.25 2.539062 0 4.929687-1.207031 6.4375-3.25l21.234375-28.769531c33.277343-13.269532 52.453125-48.296875 45.695312-83.484375-6.753906-35.183594-37.539062-60.621094-73.367187-60.621094s-66.613282 25.4375-73.367188 60.621094c-6.757812 35.1875 12.417969 70.214843 45.699219 83.484375zm27.667969-128.125c28.527344.007812 52.921875 20.511718 57.832031 48.613281s-11.082031 55.664063-37.914063 65.347656c-1.488281.535157-2.785156 1.5-3.726562 2.773438l-16.191406 21.941406-16.191406-21.941406c-.941407-1.273438-2.234376-2.238281-3.722657-2.773438-26.835937-9.683593-42.828125-37.246093-37.917969-65.347656 4.910157-28.101563 29.304688-48.605469 57.832032-48.613281zm0 0"/><path d="m360.175781 106.136719c-21.574219 21.652343-27.839843 54.238281-15.824219 82.347656l-5.328124 35.355469c-.375 2.511718.460937 5.050781 2.257812 6.847656 1.792969 1.792969 4.332031 2.628906 6.84375 2.253906l35.355469-5.328125c34.5625 14.863281 74.785156 1.710938 93.890625-30.699219 19.101562-32.410156 11.128906-73.972656-18.613282-97.011718-29.742187-23.039063-71.976562-20.367188-98.582031 6.230468zm94.339844 94.34375c-17.523437 17.460937-44.089844 22.109375-66.5 11.632812-1.0625-.5-2.226563-.757812-3.402344-.757812-.398437 0-.796875.03125-1.191406.089843l-26.960937 4.0625 4.0625-26.964843c.234374-1.566407 0-3.164063-.671876-4.597657-12.683593-26.984374-3.136718-59.1875 22.203126-74.894531 25.34375-15.707031 58.433593-9.929687 76.953124 13.4375 18.519532 23.367188 16.585938 56.898438-4.492187 77.984375zm0 0"/><path d="m103.945312 227.617188 35.355469 5.328124c2.511719.375 5.050781-.460937 6.847657-2.253906 1.792968-1.796875 2.628906-4.335937 2.253906-6.847656l-5.328125-35.355469c14.089843-32.851562 2.882812-71.078125-26.714844-91.121093-29.59375-20.039063-69.25-16.261719-94.523437 9.015624-25.273438 25.273438-29.054688 64.929688-9.011719 94.523438s58.269531 40.800781 91.117187 26.710938zm-71.03125-110.167969c20.175782-20.167969 51.929688-22.917969 75.269532-6.519531 23.34375 16.398437 31.527344 47.203124 19.394531 73.019531-.671875 1.433593-.90625 3.035156-.667969 4.601562l4.0625 26.964844-26.964844-4.066406c-1.566406-.234375-3.164062 0-4.597656.671875-25.820312 12.132812-56.625 3.949218-73.023437-19.394532-16.398438-23.339843-13.644531-55.09375 6.523437-75.269531zm0 0"/><path d="m232.726562 295.941406c0-4.417968-3.582031-8-8-8-4.417968 0-8 3.582032-8 8 0 2.035156-1.652343 3.683594-3.6875 3.683594-2.035156 0-3.683593-1.648438-3.683593-3.683594 0-4.417968-3.582031-8-8-8s-8 3.582032-8 8c0 10.871094 8.8125 19.683594 19.683593 19.683594 10.875 0 19.6875-8.8125 19.6875-19.683594zm0 0"/><path d="m271.46875 315.625c10.863281-.011719 19.671875-8.816406 19.683594-19.683594 0-4.417968-3.582032-8-8-8-4.417969 0-8 3.582032-8 8-.03125 2.011719-1.671875 3.625-3.683594 3.625s-3.652344-1.613281-3.6875-3.625c0-4.417968-3.582031-8-8-8s-8 3.582032-8 8c.011719 10.863282 8.820312 19.671875 19.6875 19.683594zm0 0"/><path d="m198.714844 373.222656v10.84375h-25.320313c-14.472656-.070312-28.375 5.628906-38.632812 15.832032-10.261719 10.207031-16.035157 24.078124-16.046875 38.546874v41.34375c-.0625 4.453126 3.457031 8.136719 7.914062 8.277344h234.175782c4.453124-.140625 7.972656-3.824218 7.910156-8.277344v-41.34375c-.011719-14.46875-5.785156-28.339843-16.046875-38.546874-10.257813-10.203126-24.160157-15.902344-38.632813-15.832032h-25.320312v-12.871094c2-2.207031 5.335937-4.621093 7.898437-7.253906 14.257813-14.613281 22.195313-34.25 22.101563-54.664062v-61.210938h8.832031c4.4375-.054687 8.007813-3.675781 8-8.113281-.023437-30.261719-24.515625-54.800781-54.777344-54.886719h-48.15625c-6.476562.078125-12.777343 2.152344-18.035156 5.9375-29.382813 11.605469-48.738281 39.9375-48.863281 71.53125v46.742188c-.042969 20.429687 7.941406 40.0625 22.234375 54.664062 3.261719 3.453125 6.871093 6.5625 10.765625 9.28125zm-64 65.222656c.007812-10.226562 4.09375-20.03125 11.355468-27.238281 7.261719-7.203125 17.09375-11.214843 27.324219-11.140625h31.1875l30.132813 19.3125v52.6875h-100zm218 0v33.621094h-102v-52.574218l31.855468-19.425782h31.464844c10.230469-.074218 20.0625 3.9375 27.324219 11.140625 7.261719 7.207031 11.347656 17.011719 11.355469 27.238281zm-80-51.210937-29.777344 18.332031-28.222656-18.21875v-5.453125c18.726562 7.292969 39.574218 6.882813 58-1.132812zm-40.101563-186.167969h48.15625c18.636719 0 34.25 14 37.945313 31h-86.101563c-8.558593 0-15.5-6.941406-15.5-15.5 0-8.5625 6.941407-15.5 15.5-15.5zm-31.355469 17.097656c.433594 10.851563 6.441407 20.710938 15.886719 26.070313-13.144531 12.597656-27.117187 15.546875-35.316406 16.054687.652344-16.058593 7.640625-31.203124 19.433594-42.125zm-19.542968 58.125c12-.585937 34.710937-5.222656 53.398437-28.222656h67.601563v61.210938c.003906 16.269531-6.382813 31.890625-17.78125 43.5-11.128906 11.6875-26.5625 18.304687-42.699219 18.304687-16.140625 0-31.574219-6.617187-42.703125-18.304687-11.40625-11.605469-17.804688-27.226563-17.816406-43.5zm0 0"/></svg>