<svg height="492pt" viewBox="0 -1 492.00002 492" width="492pt" xmlns="http://www.w3.org/2000/svg"><path d="m484 180h-21v-147.777344c-.152344-17.796875-14.589844-32.160156-32.386719-32.222656h-230.398437c-17.765625.0742188-32.144532 14.457031-32.214844 32.222656v147.777344h-17.160156c-2.058594-.09375-4.0625.664062-5.546875 2.09375s-2.3125 3.410156-2.292969 5.46875v.4375h-29.011719c-6.449219-.070312-12.761719 1.855469-18.078125 5.511719-29.355468 11.40625-48.753906 39.601562-48.910156 71.097656v46.742187c-.042969 20.429688 7.941406 40.0625 22.234375 54.664063 3.261719 3.453125 6.871094 6.5625 10.765625 9.285156v10.699219h-25.234375c-30.183594-.082031-54.7109375 24.335938-54.765625 54.519531v41.34375c-.0117188 4.445313 3.554688 8.070313 8 8.136719h234.175781c2.117188-.039062 4.132813-.917969 5.601563-2.445312 1.46875-1.527344 2.265625-3.574219 2.222656-5.691407v-41.34375c.011719-14.476562-5.734375-28.363281-15.980469-38.589843-10.242187-10.230469-24.132812-15.960938-38.609375-15.929688h-25.410156v-12.734375c2-2.207031 5.335938-4.617187 7.898438-7.25 14.257812-14.617187 22.195312-34.25 22.101562-54.664063v-56.351562h259.917969c17.6875 0 32.082031-14.824219 32.082031-32.515625v-34.921875c0-4.417969-3.582031-7.5625-8-7.5625zm-300-147.777344c.058594-8.929687 7.28125-16.15625 16.210938-16.222656h230.398437c8.96875.050781 16.25 7.257812 16.390625 16.222656v147.777344h-91.445312c-2.03125-.082031-4 .6875-5.4375 2.125-1.433594 1.4375-2.203126 3.410156-2.117188 5.4375v15.4375h-65v-15.4375c.042969-2.046875-.761719-4.023438-2.226562-5.457031-1.460938-1.429688-3.453126-2.195313-5.5-2.105469h-91.273438zm-70.011719 171.777344h48.15625c18.636719 0 34.25 13 37.945313 30h-86.101563c-8.285156 0-15-6.714844-15-15s6.714844-15 15-15zm-31.355469 16.238281c.429688 10.855469 6.441407 20.714844 15.886719 26.070313-13.144531 12.601562-27.121093 15.546875-35.320312 16.054687.652343-16.058593 7.640625-31.203125 19.433593-42.125zm-66.632812 220.28125c.019531-10.253906 4.121094-20.074219 11.394531-27.300781 7.273438-7.226562 17.121094-11.261719 27.371094-11.21875h31.1875l30.046875 19.453125v52.546875h-100zm218 0v33.480469h-102v-52.433594l31.941406-19.566406h31.46875c10.234375-.039062 20.058594 4.007812 27.304688 11.234375 7.242187 7.230469 11.304687 17.050781 11.285156 27.285156zm-80-51.210937-29.777344 18.328125-28.222656-18.214844v-5.453125c18.726562 7.292969 39.574219 6.882812 58-1.132812zm12.261719-34.457032c-11.128907 11.691407-26.5625 18.304688-42.703125 18.304688s-31.574219-6.613281-42.707032-18.304688c-11.417968-11.601562-17.828124-27.222656-17.851562-43.5v-32.988281c13-.585937 34.800781-5.363281 53.492188-28.363281h67.507812v61.351562c.019531 16.265626-6.351562 31.886719-17.738281 43.5zm309.738281-132.367187c0 8.871094-7.214844 16.515625-16.082031 16.515625h-243.148438c-1.265625-19-11.464843-34-26.25-43h76.480469v15.246094c0 4.417968 3.855469 7.753906 8.273438 7.753906h80.28125c4.417968 0 8.445312-3.335938 8.445312-7.753906v-15.246094h112zm0 0"/><path d="m368 163.957031v-21.628906c0-23.515625-16.882812-43.226563-39.644531-48.160156 12.679687-4.441407 21.863281-16.246094 21.863281-30.078125 0-17.628906-14.710938-31.96875-32.847656-31.96875-18.132813 0-32.863282 14.339844-32.863282 31.96875.03125 13.59375 8.683594 25.671875 21.542969 30.078125-22.761719 4.933593-40.050781 24.644531-40.050781 48.160156v21.628906c0 4.417969 4.050781 8.042969 8.46875 8.042969h85.898438c2.089843-.023438 4.078124-.894531 5.515624-2.410156s2.203126-3.546875 2.117188-5.632813zm-67.472656-99.867187c0-8.800782 7.578125-15.96875 16.894531-15.96875 9.3125 0 16.886719 7.164062 16.886719 15.96875 0 8.800781-7.578125 15.964844-16.886719 15.964844-9.3125 0-16.894531-7.164063-16.894531-15.964844zm51.472656 91.910156h-70v-13.671875c0-18.394531 15.726562-33.359375 35-33.359375s35 14.964844 35 33.359375zm0 0"/><path d="m106.101562 290.011719c-4.417968 0-8 3.582031-8 8-.035156 2.011719-1.675781 3.625-3.6875 3.625-2.011718 0-3.652343-1.613281-3.683593-3.625 0-4.417969-3.582031-8-8-8s-8 3.582031-8 8c.074219 10.820312 8.867187 19.546875 19.683593 19.546875 10.816407 0 19.609376-8.726563 19.6875-19.546875 0-4.417969-3.582031-8-8-8zm0 0"/><path d="m164.523438 290.011719c-4.417969 0-8 3.582031-8 8 0 2.035156-1.648438 3.6875-3.683594 3.6875s-3.683594-1.652344-3.683594-3.6875c0-4.417969-3.582031-8-8-8s-8 3.582031-8 8c0 10.871093 8.8125 19.6875 19.683594 19.6875s19.683594-8.816407 19.683594-19.6875c0-4.417969-3.582032-8-8-8zm0 0"/></svg>