<svg height="500pt" viewBox="0 -1 500.00054 500" width="500pt" xmlns="http://www.w3.org/2000/svg"><path d="m226.578125 378.75h-31.578125v-16.582031c3.679688-2.53125 7.066406-5.46875 10.089844-8.753907 16.53125-16.75 25.832031-39.3125 25.910156-62.847656v-72.816406h11.339844c2.09375.066406 4.121094-.714844 5.628906-2.167969 1.503906-1.453125 2.359375-3.453125 2.371094-5.542969-.0625-34.488281-28.085938-62.382812-62.574219-62.289062h-56.179687c-7.277344-.039062-14.386719 2.199219-20.332032 6.402344-33.804687 13.132812-56.121094 45.621094-56.253906 81.882812v54.53125c.042969 23.523438 9.3125 46.085938 25.8125 62.847656 3.953125 4.1875 8.378906 7.90625 13.1875 11.078126v14.257812h-31.507812c-34.511719.023438-62.4804692 28.003906-62.492188 62.519531v48.234375c-.0507812 4.453125 3.480469 8.125 7.929688 8.246094h273.210937c4.4375-.128906 7.945313-3.808594 7.859375-8.246094v-48.234375c.023438-34.5-27.921875-62.488281-62.421875-62.519531zm-94.992187-215h56.179687c22.953125 0 42.082031 16 45.886719 38h-102.066406c-10.492188 0-19-8.503906-19-19 0-10.492188 8.507812-19 19-19zm-35.246094 17.542969c-.023438.511719-.039063 1.027343-.039063 1.546875.011719 13.34375 7.546875 25.542968 19.472657 31.53125-16.789063 16.867187-35 20.097656-44.800782 20.453125.414063-20.652344 9.648438-40.136719 25.367188-53.53125zm-25.339844 109.273437v-39.761718c14-.410157 40.632812-5.054688 62.878906-33.054688h81.121094v72.816406c-.050781 19.351563-7.6875 37.90625-21.269531 51.683594-13.246094 13.898438-31.601563 21.761719-50.796875 21.761719-19.195313 0-37.550782-7.863281-50.792969-21.761719-13.546875-13.789062-21.136719-32.351562-21.140625-51.683594zm71.902344 89.445313c12.488281.039062 24.828125-2.738281 36.097656-8.121094v10.371094l-35.425781 22.222656-33.574219-22.109375v-9.050781c10.394531 4.460937 21.589844 6.734375 32.902344 6.6875zm-126.902344 61.257812c0-25.683593 20.8125-46.503906 46.492188-46.519531h36.785156l35.722656 23.550781v63.449219h-119zm257 40.480469h-122v-63.335938l38.488281-23.664062h37.089844c25.667969.019531 46.457031 20.851562 46.421875 46.519531zm0 0"/><path d="m122.382812 267.007812c-4.417968 0-8 3.582032-8 8-.042968 3.082032-2.550781 5.558594-5.632812 5.558594s-5.59375-2.476562-5.632812-5.558594c0-4.417968-3.582032-8-8-8-4.421876 0-8 3.582032-8 8 .078124 11.890626 9.742187 21.488282 21.632812 21.488282s21.550781-9.597656 21.632812-21.488282c0-4.417968-3.582031-8-8-8zm0 0"/><path d="m176.914062 296.640625c11.941407-.011719 21.621094-9.691406 21.632813-21.632813 0-4.417968-3.582031-8-8-8s-8 3.582032-8 8c0 3.109376-2.519531 5.632813-5.632813 5.632813-3.109374 0-5.632812-2.523437-5.632812-5.632813 0-4.417968-3.582031-8-8-8s-8 3.582032-8 8c.011719 11.941407 9.691406 21.621094 21.632812 21.632813zm0 0"/><path d="m471.335938 0c-14.039063.0117188-26.035157 10.125-28.421876 23.960938-11.570312 8.636718-56.914062 40.371093-99.914062 40.371093v8.417969-8h-63.570312c-8.050782-.078125-15.796876 3.066406-21.511719 8.730469-5.714844 5.667969-8.925781 13.386719-8.917969 21.433593v43.707032c0 16.808594 13 30.488281 30 30.578125v76.683593c.0625 2.683594 1.433594 5.164063 3.671875 6.640626 2.234375 1.480468 5.054687 1.773437 7.546875.78125l55.894531-22.582032c3-1.234375 4.9375-4.179687 4.886719-7.421875v-53.765625c42 3.367188 81.472656 31.835938 91.910156 39.929688 2.429688 14.757812 15.769532 25.1875 30.679688 23.980468 14.90625-1.210937 26.394531-13.652343 26.410156-28.609374v-176.136719c0-15.835938-12.828125-28.6796878-28.664062-28.699219zm-176.335938 80.75h40v72h-40zm-30 57.871094v-43.707032c-.09375-3.792968 1.332031-7.46875 3.960938-10.203124 2.628906-2.738282 6.246093-4.3125 10.039062-4.367188v72.851562c-3.792969-.058593-7.410156-1.628906-10.039062-4.367187-2.628907-2.738281-4.054688-6.410156-3.960938-10.207031zm30 95.414062v-65.285156h40v49.148438zm56-154.007812c37-2.75 73-23.53125 92-36.144532v145.445313c-19-12.722656-54-33.222656-92-35.847656zm133 124.808594c0 6.902343-5.597656 12.5-12.5 12.5s-12.5-5.597657-12.5-12.5v-176.136719c0-6.902344 5.597656-12.5 12.5-12.5s12.5 5.597656 12.5 12.5zm0 0"/></svg>