<svg height="492pt" viewBox="0 -16 492.01784 492" width="492pt" xmlns="http://www.w3.org/2000/svg"><path d="m484.484375 378.011719h-18.476563v-64.460938c13.867188-3.523437 23.027344-16.707031 21.496094-30.929687-1.535156-14.222656-13.296875-25.148438-27.59375-25.628906-14.296875-.484376-26.773437 9.625-29.261718 23.710937-2.488282 14.085937 5.765624 27.859375 19.359374 32.304687v65h-36v-41.53125c.078126-16.847656-6.578124-33.023437-18.484374-44.941406-11.90625-11.914062-28.074219-18.585937-44.921876-18.523437h-32.59375v-17.667969c3.785157-2.636719 7.289063-5.652344 10.453126-9.011719 16.914062-17.117187 26.445312-40.183593 26.546874-64.246093v-74.074219h11.742188c4.429688-.023438 8.003906-3.617188 8-8.046875-.035156-35.289063-28.621094-63.894532-63.90625-63.953125h-57.558594c-7.421875-.050781-14.675781 2.226562-20.742187 6.507812-34.570313 13.410157-57.398438 46.621094-57.535157 83.699219v55.867188c.054688 24.046874 9.535157 47.117187 26.410157 64.246093 4.109375 4.273438 8.664062 8.09375 13.589843 11.390625v15.289063h-32.507812c-16.851562-.0625-33.035156 6.601562-44.953125 18.515625-11.921875 11.914062-18.59375 28.09375-18.539063 44.949218v41.535157h-49.5c-4.417968 0-8.5 3.175781-8.5 7.59375v66.589843c0 4.414063 4.082032 7.816407 8.5 7.816407h414.976563c2.054687.023437 4.023437-.804688 5.449219-2.285157 1.425781-1.476562 2.175781-3.480468 2.074218-5.53125v-66.589843c.09375-2.03125-.667968-4.003907-2.097656-5.449219-1.429687-1.441406-3.398437-2.21875-5.425781-2.144531zm-38.277344-92.292969c0-7.027344 5.695313-12.71875 12.71875-12.722656 7.023438 0 12.71875 5.695312 12.71875 12.71875 0 7.023437-5.695312 12.71875-12.71875 12.71875-7.019531-.007813-12.707031-5.695313-12.71875-12.714844zm-48.199219 50.757812v41.535157h-125v-65.058594l39.539063-23.941406h38.054687c12.605469-.066407 24.707032 4.914062 33.613282 13.832031s13.875 21.027344 13.792968 33.632812zm-144.722656-284.464843h57.558594c23.429688-.074219 43.449219 16.875 47.238281 40h-104.796875c-11.046875 0-20-8.957031-20-20 0-11.046875 8.953125-20 20-20zm-35.890625 17.683593c-.039062.671876-.0625 1.34375-.0625 2.027344.011719 13.695313 7.800781 26.199219 20.085938 32.25-17.40625 17.613282-36.363281 20.878906-46.429688 21.210938.371094-21.441406 10-41.675782 26.40625-55.488282zm-26.386719 112.390626v-40.925782c14-.382812 41.675782-5.148437 64.535157-33.148437h83.464843v74.074219c-.066406 19.878906-7.921874 38.9375-21.882812 53.085937-13.609375 14.273437-32.472656 22.351563-52.195312 22.351563-19.722657 0-38.582032-8.078126-52.195313-22.351563-13.917969-14.164063-21.71875-33.226563-21.726563-53.085937zm73.863282 91.4375c12.863281.074218 25.570312-2.808594 37.136718-8.429688v11.039062l-36.449218 22.890626-34.550782-22.777344v-9.667969c10.679688 4.664063 22.214844 7.027344 33.863282 6.945313zm-129.863282 62.953124c-.058593-12.613281 4.925782-24.726562 13.847657-33.640624 8.917969-8.914063 21.035156-13.894532 33.644531-13.824219h37.742188l36.765624 23.828125v65.171875h-122zm341 107.535157h-399v-50h47.5c.667969 0 1.367188.285156 2.09375.285156.722657 0 1.421876-.285156 2.089844-.285156h275.71875c.667969 0 1.363282.285156 2.089844.285156s1.425781-.285156 2.089844-.285156h46.910156c.789062 0 1.632812.40625 2.507812.40625.878907 0 1.71875-.40625 2.507813-.40625h15.492187zm0 0"/><path d="m243.855469 158.144531c-4.417969 0-8 3.582031-8 8 .027343 2.148438-1.101563 4.148438-2.960938 5.230469-1.855469 1.082031-4.152343 1.082031-6.011719 0-1.855468-1.082031-2.988281-3.082031-2.960937-5.230469 0-4.417969-3.582031-8-8-8s-8 3.582031-8 8c-.050781 7.882813 4.121094 15.191407 10.941406 19.148438 6.816407 3.957031 15.234375 3.957031 22.050781 0 6.820313-3.957031 10.996094-11.265625 10.941407-19.148438 0-4.417969-3.582031-8-8-8zm0 0"/><path d="m299.722656 188.109375c12.125-.011719 21.953125-9.839844 21.96875-21.964844 0-4.417969-3.582031-8-8-8-4.417968 0-8 3.582031-8 8 .027344 2.148438-1.105468 4.148438-2.960937 5.230469-1.859375 1.082031-4.15625 1.082031-6.011719 0-1.859375-1.082031-2.988281-3.082031-2.960938-5.230469 0-4.417969-3.582031-8-8-8-4.417968 0-8 3.582031-8 8 .011719 12.125 9.839844 21.953125 21.964844 21.964844zm0 0"/><path d="m115.480469 154.984375c1.460937 1.265625 3.328125 1.957031 5.261719 1.949219 1.183593-.003906 2.359374-.253906 3.441406-.730469 2.890625-1.289063 4.769531-4.132813 4.824218-7.292969v-32.898437h30.863282c4.464844-.035157 8.082031-3.636719 8.136718-8.101563v-100.085937c-.039062-2.113281-.917968-4.128907-2.445312-5.597657-1.527344-1.464843-3.574219-2.2617182-5.691406-2.2148432h-152.335938c-2.054687-.0234376-4.027344.8007812-5.453125 2.2812502-1.421875 1.480469-2.1718748 3.480469-2.0742185 5.53125v100.085937c0 4.417969 3.1093755 8.101563 7.5273435 8.101563h63.230469zm-99.472657-138.972656h136v84h-31.269531c-2.082031-.011719-4.082031.824219-5.539062 2.3125s-2.246094 3.503906-2.191407 5.585937v23.402344l-33.847656-29.378906c-1.511718-1.257813-3.425781-1.941406-5.394531-1.921875h-57.757813zm0 0"/></svg>