<svg height="502pt" viewBox="-44 0 502 502" width="502pt" xmlns="http://www.w3.org/2000/svg"><path d="m411 151.449219c0-4.417969-3.167969-8.449219-7.585938-8.449219h-122.351562c-4.613281-20-23.0625-36-45.074219-36h-39.3125c-5.5-.023438-10.875 1.636719-15.402343 4.761719-14.816407 5.835937-26.933594 16.96875-34 31.238281h-139.21875c-4.417969 0-8.054688 4.03125-8.054688 8.449219v283.789062c.0234375 2.101563.886719 4.109375 2.402344 5.566407 1.515625 1.460937 3.550781 2.25 5.652344 2.195312h129.167968l-13.945312 43h-26.324219c-4.417969 0-8 3.582031-8 8s3.582031 8 8 8h217.5625c4.417969 0 8-3.582031 8-8s-3.582031-8-8-8h-26.324219l-13.945312-43h129.167968c2.054688.039062 4.035157-.773438 5.46875-2.242188 1.4375-1.46875 2.203126-3.464843 2.117188-5.519531zm-237.652344 133.550781 23.652344 15.515625v40.484375h-79v-25.710938c.074219-16.710937 13.609375-30.230468 30.320312-30.289062zm39.652344 15.628906 24.878906-15.628906h25.273438c7.976562.046875 15.609375 3.265625 21.210937 8.949219 5.601563 5.683593 8.707031 13.359375 8.636719 21.339843v25.710938h-80zm15-27.96875-22.617188 14.039063-21.382812-13.925781v-1.535157c6.691406 2.421875 13.765625 3.636719 20.882812 3.582031 7.910157-.066406 15.742188-1.566406 23.117188-4.429687zm10.117188-28.34375c-8.734376 9.257813-20.898438 14.503906-33.625 14.503906-12.726563 0-24.886719-5.246093-33.625-14.503906-8.972657-9.226562-13.957032-21.621094-13.867188-34.492187v-25.5625c10-.769531 27.585938-5.261719 42.398438-22.261719h52.601562v47.824219c.082031 12.875-4.902344 25.265625-13.882812 34.492187zm-41.441407-121.316406h39.3125c13.882813 0 25.601563 10 29.121094 23h-68.433594c-6.121093 0-11.101562-5.382812-11.101562-11.5s4.980469-11.5 11.101562-11.5zm-26.769531 15.644531c1.1875 7.464844 5.433594 14.097657 11.714844 18.300781-6.890625 6.28125-15.585938 10.226563-24.851563 11.269532.835938-11.078125 5.476563-21.523438 13.136719-29.570313zm-153.90625 20.355469h125.835938c-.675782 4.183594-.953126 8.421875-.835938 12.660156v38.164063c-.023438 17.066406 6.652344 33.464843 18.601562 45.65625 2.582032 2.671875 5.390626 5.113281 8.398438 7.300781v6.21875h-19.679688c-25.542968.066406-46.234374 20.746094-46.320312 46.289062v33.753907c.066406 4.4375 3.699219 7.988281 8.136719 7.957031h191.199219c2.082031-.003906 4.074218-.851562 5.519531-2.351562 1.445312-1.5 2.21875-3.523438 2.144531-5.605469v-33.753907c0-25.46875-20.382812-46.289062-45.847656-46.289062h-19.152344v-7.917969c2-1.722656 3.816406-3.578125 5.785156-5.601562 11.835938-12.230469 18.382813-28.636719 18.214844-45.65625v-47.824219h6.183594c2.179687-.035156 4.195312-1.160156 5.367187-3h115.449219v211h-379zm255.363281 327h-131.257812l13.949219-43h103.363281zm123.636719-59h-379v-41h379zm0 0"/><path d="m190.230469 190.933594c-4.417969 0-8 3.582031-8 8 0 .851562-.6875 1.539062-1.539063 1.539062-.851562 0-1.542968-.6875-1.542968-1.539062 0-4.417969-3.582032-8-8-8-4.417969 0-8 3.582031-8 8 0 9.6875 7.855468 17.539062 17.542968 17.539062s17.539063-7.851562 17.539063-17.539062c0-4.417969-3.582031-8-8-8zm0 0"/><path d="m237.9375 190.933594c-4.417969 0-8 3.582031-8 8-.023438.835937-.707031 1.503906-1.542969 1.503906-.835937 0-1.519531-.667969-1.539062-1.503906 0-4.417969-3.582031-8-8-8s-8 3.582031-8 8c.070312 9.636718 7.902343 17.410156 17.539062 17.410156s17.46875-7.773438 17.542969-17.410156c0-4.417969-3.582031-8-8-8zm0 0"/><path d="m392.90625 0h-114.339844c-11.601562 0-20.566406 9.4375-20.566406 21.039062v66.179688c-.089844 5.5 2.039062 10.808594 5.910156 14.71875s9.152344 6.097656 14.65625 6.0625h29.433594v23.523438c.035156 3.089843 1.828125 5.890624 4.621094 7.210937 2.804687 1.367187 6.15625.9375 8.527344-1.089844l36.953124-29.644531h34.796876c5.558593.054688 10.910156-2.105469 14.871093-6.007812 3.960938-3.898438 6.203125-9.214844 6.230469-14.773438v-66.179688c-.039062-11.625-9.46875-21.0312495-21.09375-21.039062zm5.09375 87.21875c-.023438 1.316406-.582031 2.566406-1.539062 3.464844-.960938.902344-2.246094 1.375-3.5625 1.316406h-37.597657c-1.855469.046875-3.644531.707031-5.082031 1.878906l-26.21875 21.011719v-14.632813c.101562-4.433593-3.390625-8.121093-7.824219-8.257812h-37.609375c-1.261718.039062-2.476562-.460938-3.347656-1.375-.871094-.910156-1.316406-2.148438-1.21875-3.40625v-66.179688c0-2.777343 1.785156-5.039062 4.566406-5.039062h114.339844c2.792969-.003906 5.070312 2.246094 5.097656 5.039062zm0 0"/></svg>