<svg height="437pt" viewBox="-2 0 437 437.38251" width="437pt" xmlns="http://www.w3.org/2000/svg"><path d="m47.859375 287.691406h6.332031v141.691406c-.089844 2.621094 1.148438 5.117188 3.292969 6.628907 2.140625 1.488281 4.890625 1.785156 7.300781.789062l99.3125-40c3.046875-1.207031 5.0625-4.140625 5.101563-7.417969v-101.816406c81 3.652344 158.527343 61.445313 174.390625 73.988282 2.507812 23.519531 23.003906 40.949218 46.621094 39.644531 23.617187-1.300781 42.070312-20.878907 41.980468-44.53125v-312c.105469-23.660157-18.335937-43.261719-41.960937-44.5976565-23.625-1.3320315-44.160157 16.0664065-46.714844 39.5937495-17.089844 12.960938-102.324219 74.296876-182.324219 74.296876v7.730468-8h-113.332031c-26.46875 0-47.667969 21.800782-47.667969 48.269532v77.421874c0 26.464844 21.199219 48.308594 47.667969 48.308594zm22.332031 129.839844v-129.839844h83v96.285156zm0-145.839844v-142h83v142zm289-227.019531c0-15.742187 12.757813-28.5 28.5-28.5 15.738282 0 28.5 12.757813 28.5 28.5v312c0 15.738281-12.761718 28.5-28.5 28.5-15.742187 0-28.5-12.761719-28.5-28.5zm-16 15.070313v281.472656c-14.769531-10.832032-30.210937-20.722656-46.230468-29.605469-31.453126-17.417969-78.769532-37.988281-127.769532-40.046875v-141.785156c38-1.664063 80.289063-15.105469 126.015625-40.023438 16.570313-9.050781 32.59375-19.074218 47.984375-30.011718zm-327 102.21875c0-17.644532 14.023438-32.269532 31.667969-32.269532h6.332031v142h-6.332031c-17.644531 0-31.667969-14.664062-31.667969-32.308594zm0 0"/></svg>