<svg height="472pt" viewBox="-146 0 472 472.00001" width="472pt" xmlns="http://www.w3.org/2000/svg"><path d="m33.8125 159.664062v239.335938c0 15.4375 13.058594 28 28.5 28h19.5v37c0 4.417969 3.582031 8 8 8s8-3.582031 8-8v-37h19.5c15.4375 0 27.5-12.5625 27.5-28v-239.335938c30.007812-23.503906 41.796875-63.457031 29.359375-99.484374-12.441406-36.03125-46.367187-60.1992192-84.484375-60.179688-49.351562 0-89.6875 40.148438-89.6875 89.5 0 28.398438 13.8125 53.757812 33.8125 70.164062zm16 167.335938h79v34h-79zm67.5 84h-55c-6.617188 0-12.5-5.382812-12.5-12v-22h79v22c0 6.617188-4.882812 12-11.5 12zm11.5-100h-79v-141.199219c12.285156 6.058594 25.800781 9.207031 39.5 9.199219 14.171875 0 28.5-3.316406 39.5-9.199219zm-39-295c40.59375 0 73.5 32.90625 73.5 73.5s-32.90625 73.5-73.5 73.5-73.5-32.90625-73.5-73.5c.046875-40.574219 32.925781-73.453125 73.5-73.5zm0 0"/></svg>