<svg height="468pt" viewBox="0 -15 468.01055 468" width="468pt" xmlns="http://www.w3.org/2000/svg"><path d="m468.003906 52.175781c.078125-2.105469-.691406-4.15625-2.132812-5.691406-1.445313-1.535156-3.441406-2.425781-5.550782-2.480469h-110.316406v-15.6875c-.140625-15.578125-12.734375-28.171875-28.316406-28.31249975h-175.367188c-15.578124.14062475-28.175781 12.73437475-28.316406 28.31249975v15.6875h-110.316406c-2.105469.054688-4.101562.945313-5.546875 2.480469s-2.2109375 3.585937-2.13671875 5.691406v306.1875c-.05468745 2.050781.73437475 4.035157 2.19140575 5.480469 1.453126 1.449219 3.441407 2.230469 5.492188 2.160156h155.765625l-15.511719 56h-27.46875c-4.417968 0-8 3.582032-8 8 0 4.417969 3.582032 8 8 8h227.066406c4.417969 0 8-3.582031 8-8 0-4.417968-3.582031-8-8-8h-27.46875l-15.511718-56h155.761718c2.050782.070313 4.039063-.710937 5.496094-2.160156 1.453125-1.445312 2.246094-3.429688 2.1875-5.480469zm-334-23.859375c.132813-6.746094 5.570313-12.183594 12.316406-12.3125h175.367188c6.75.128906 12.1875 5.566406 12.316406 12.3125v101.503906c-.140625 6.71875-5.59375 12.117188-12.316406 12.183594h-57.683594c-1.804687-.035156-3.570312.550782-5 1.660156l-47 37.476563v-31.320313c-.007812-2.101562-.859375-4.113281-2.363281-5.582031-1.503906-1.472656-3.535156-2.273437-5.636719-2.234375h-57.683594c-6.722656-.066406-12.175781-5.464844-12.316406-12.183594zm-118 31.6875h102v69.816406c.152344 15.554688 12.761719 28.105469 28.316406 28.183594h49.683594v39.769532c0 4.421874 3.582032 8 8 8 1.808594.039062 3.574219-.546876 5-1.65625l57.804688-46.113282h54.878906c15.554688-.078125 28.167969-12.628906 28.316406-28.183594v-69.816406h102v220h-436zm287.449219 362h-138.898437l15.511718-56h107.871094zm148.550781-72h-436v-54h436zm0 0"/></svg>