<svg height="499pt" viewBox="-102 0 499 499" width="499pt" xmlns="http://www.w3.org/2000/svg"><path d="m295 40.167969c0-22.183594-17.984375-40.167969-40.167969-40.167969h-214.664062c-22.183594 0-40.167969 17.984375-40.167969 40.167969v418.664062c0 22.183594 17.984375 40.167969 40.167969 40.167969h214.664062c22.183594 0 40.167969-17.984375 40.167969-40.167969zm-17 345.832031h-262v-290h262zm-23.773438 96h-214.453124c-6.339844.035156-12.429688-2.472656-16.898438-6.96875s-6.949219-10.597656-6.875-16.9375v-56.09375h262v56.09375c.074219 6.339844-2.40625 12.441406-6.875 16.9375s-10.558594 7.003906-16.898438 6.96875zm-214.453124-466h214.453124c6.339844-.035156 12.429688 2.472656 16.898438 6.96875s6.949219 10.597656 6.875 16.9375v40.09375h-262v-40.09375c-.074219-6.339844 2.40625-12.441406 6.875-16.9375s10.558594-7.003906 16.898438-6.96875zm0 0"/><path d="m112.152344 53h69.699218c4.417969 0 8-3.582031 8-8s-3.582031-8-8-8h-69.699218c-4.417969 0-8 3.582031-8 8s3.582031 8 8 8zm0 0"/><path d="m147 412.5625c-16.261719 0-29.445312 13.183594-29.445312 29.445312-.003907 16.265626 13.179687 29.449219 29.445312 29.449219 16.261719 0 29.445312-13.183593 29.445312-29.445312-.019531-16.257813-13.191406-29.429688-29.445312-29.449219zm0 42.894531c-7.425781 0-13.445312-6.019531-13.445312-13.445312-.003907-7.425781 6.019531-13.449219 13.445312-13.449219s13.445312 6.019531 13.445312 13.449219c-.007812 7.421875-6.023437 13.433593-13.445312 13.445312zm0 0"/><path d="m147 229.699219c28.257812 0 51.246094-22.269531 51.246094-49.644531 0-27.371094-22.988282-49.636719-51.246094-49.636719s-51.246094 22.269531-51.246094 49.640625c0 27.375 22.988282 49.640625 51.246094 49.640625zm0-83.285157c19.4375 0 35.246094 15.089844 35.246094 33.640626 0 18.550781-15.808594 33.644531-35.246094 33.644531s-35.246094-15.09375-35.246094-33.644531c0-18.550782 15.808594-33.636719 35.246094-33.636719zm0 0"/><path d="m72.371094 362h149.257812c4.570313-.164062 8.230469-3.84375 8.371094-8.417969v-37.578125c0-44.035156-37.4375-79.859375-83-79.859375s-83 35.824219-83 79.859375v37.578125c.140625 4.574219 3.800781 8.253907 8.371094 8.417969zm7.628906-45.996094c0-35.210937 30.261719-63.859375 67-63.859375s67 28.648438 67 63.859375v30h-134zm0 0"/></svg>