<svg height="487pt" viewBox="0 -26 487.93797 487" width="487pt" xmlns="http://www.w3.org/2000/svg"><path d="m423.628906 151.027344c-.6875-39.648438-18.765625-77.21875-51.074218-106.023438-32.160157-28.460937-73.554688-44.285156-116.5-44.535156-70.328126 0-136.972657 43.179688-158.65625 102.417969-2.554688 5.316406-4.390626 10.945312-5.464844 16.742187h-58.863282c-8.707031-.097656-17.097656 3.285156-23.304687 9.394532-6.207031 6.109374-9.7226562 14.441406-9.765625 23.148437v48.386719c.0507812 18.242187 14.828125 33.019531 33.070312 33.070312h.929688v85.667969c-.050781 2.636719 1.222656 5.125 3.394531 6.628906 2.167969 1.488281 4.9375 1.78125 7.371094.789063l58.398437-23.550782.675782 121.027344c.027344 4.34375 3.546875 7.855469 7.890625 7.871094l205.824219 2.566406h.097656c2.148437.03125 4.222656-.769531 5.792968-2.226562 1.570313-1.453125 2.488282-3.476563 2.554688-5.613282v-56.0625l50.460938 1.558594c.472656.015625.859374.019532 1.328124.019532 11.519532.027343 22.597657-4.441407 30.871094-12.453126 8.699219-8.386718 13.648438-19.929687 13.71875-32.015624l.632813-65.207032h56.914062c2.882813.101563 5.585938-1.40625 7.007813-3.917968 1.421875-2.511719 1.328125-5.605469-.242188-8.023438zm-208.628906 107.300781c-20-14.019531-60-37.800781-103-40.511719v-82.917968c41-2.84375 82-26.941407 103-40.828126zm-119-122.699219v82h-46v-82zm-62.929688 82c-9.410156-.042968-17.03125-7.660156-17.070312-17.070312v-48.386719c0-9.371094 7.699219-16.542969 17.070312-16.542969h.929688v82zm16.929688 89.816406v-73.816406h46v55.265625zm365.089844-60.816406c-4.429688.101563-7.972656 3.710938-8 8.140625l-.730469 73.019531c-.070313 7.722657-3.242187 15.09375-8.804687 20.453126-5.566407 5.355468-13.050782 8.25-20.773438 8.023437l-58.097656-1.773437c-.339844-.042969-.683594-.066407-1.023438-.066407-.171875 0-.335937.019531-.5.03125l-57.667968-1.773437c-2.121094-.070313-4.183594.710937-5.730469 2.164062s-2.449219 3.464844-2.507813 5.585938c-.058594 4.453125 3.46875 8.121094 7.921875 8.242187l50.824219 1.558594v48.453125l-190.046875-2.441406-.816406-130.175782c-.019531-.28125-.046875-.558593-.09375-.832031-1.214844-11.019531-3.058594-23.703125-4.984375-37.132812-.667969-4.652344-1.363282-9.417969-2.039063-14.238281 47.222657 3.527343 91.695313 35.863281 102.972657 44.640624 2.316406 15.960938 16.597656 27.398438 32.675781 26.171876 16.082031-1.226563 28.464843-14.699219 28.332031-30.824219v-194.980469c.097656-16.117188-12.269531-29.570312-28.335938-30.824219-16.066406-1.25-30.375 10.121094-32.777343 26.054688-12.050781 9.011719-60.070313 42.765625-106.515625 44.953125.878906-3.363282 2.074218-6.636719 3.570312-9.777344.128906-.253906.246094-.515625.347656-.78125 9.285157-25.632812 28.890626-49.023438 55.1875-65.863281 26.464844-16.910157 57.171876-25.984375 88.578126-26.171875 39.019531.230468 76.628906 14.613281 105.851562 40.476562 29.5 26.300782 45.742188 60.542969 45.742188 96.429688 0 1.441406.429687 2.855468 1.238281 4.050781l56.519531 89.207031zm-184.089844 27.226563v-194.980469c-.152344-5.28125 2.578125-10.226562 7.125-12.910156 4.550781-2.683594 10.199219-2.683594 14.75 0 4.546875 2.683594 7.277344 7.628906 7.125 12.910156v194.980469c.152344 5.277343-2.578125 10.222656-7.125 12.90625-4.550781 2.6875-10.199219 2.6875-14.75 0-4.546875-2.683594-7.277344-7.628907-7.125-12.90625zm0 0"/></svg>