<svg height="468pt" viewBox="-52 0 468 468" width="468pt" xmlns="http://www.w3.org/2000/svg"><path d="m346.484375 135h-9.484375v-17.492188c-.011719-22.628906-15.859375-42.164062-38-46.847656v-22.5c0-26.460937-21.050781-48.160156-47.515625-48.160156h-120c-26.46875 0-48.484375 21.699219-48.484375 48.164062v22.5c-21.710938 5.136719-37.03125 24.535157-37 46.84375v25.492188h-18.484375c-15.4375 0-27.515625 12.945312-27.515625 28.386719v101.5c0 15.4375 12.078125 28.113281 27.515625 28.113281h18.484375v55.566406c-.03125 22.3125 15.289062 41.710938 37 46.847656v16.421876c0 26.464843 22.015625 48.164062 48.484375 48.164062h120c26.464844 0 47.515625-21.699219 47.515625-48.164062v-16.421876c22.140625-4.683593 37.988281-24.214843 38-46.847656v-23.566406h9.484375c9.925781 0 17.515625-8.324219 17.515625-18.25v-52.5c0-9.925781-7.589844-18.25-17.515625-18.25h-9.484375v-28h9.484375c9.925781 0 17.515625-8.324219 17.515625-18.25v-44.5c0-9.925781-7.589844-18.25-17.515625-18.25zm-215-119h120c17.644531 0 31.515625 14.519531 31.515625 32.164062v21.835938h-184v-21.835938c0-17.644531 14.839844-32.164062 32.484375-32.164062zm-115.484375 256.886719v-101.5c0-6.617188 4.898438-12.386719 11.515625-12.386719h175.367187c6.722657.179688 12.085938 5.660156 12.117188 12.386719v101.5c-.054688 6.667969-5.449219 12.0625-12.117188 12.113281h-57.683593c-1.839844-.019531-3.632813.574219-5.09375 1.695312l-47.105469 37.511719v-31.320312c.039062-2.089844-.765625-4.105469-2.234375-5.589844-1.46875-1.488281-3.476563-2.316406-5.566406-2.296875h-57.683594c-6.617187 0-11.515625-5.5-11.515625-12.113281zm235.484375 179.113281h-120c-17.644531 0-32.484375-14.519531-32.484375-32.164062v-14.835938h184v14.835938c0 17.644531-13.871094 32.164062-31.515625 32.164062zm69.515625-95.433594c0 17.648438-14.300781 32.433594-31.949219 32.433594h-195.136719c-17.644531 0-31.914062-14.785156-31.914062-32.433594v-55.566406h15v39.839844c.039062 3.09375 1.839844 5.890625 4.632812 7.210937 1.097657.519531 2.300782.789063 3.515626.789063 1.816406.023437 3.589843-.574219 5.019531-1.691406l57.832031-46.148438h54.878906c15.503906-.058594 28.058594-12.609375 28.121094-28.113281v-101.5c0-15.441407-12.675781-28.386719-28.117188-28.386719h-140.882812v-25.492188c.011719-8.425781 3.390625-16.496093 9.382812-22.414062 5.996094-5.917969 14.109376-9.191406 22.53125-9.09375h195.136719c8.425781-.101562 16.542969 3.171875 22.546875 9.089844 6 5.917968 9.386719 13.988281 9.402344 22.417968zm25.484375-96.566406c1.101563 0 1.515625 1.148438 1.515625 2.25v52.5c0 1.101562-.414062 2.25-1.515625 2.25h-9.484375v-57zm1.515625-62.25c0 1.101562-.414062 2.25-1.515625 2.25h-9.484375v-49h9.484375c1.101563 0 1.515625 1.148438 1.515625 2.25zm0 0"/></svg>