<svg height="458pt" viewBox="-38 0 458 458.00028" width="458pt" xmlns="http://www.w3.org/2000/svg"><path d="m104.101562 50h63.878907c4.421875 0 8-3.582031 8-8s-3.578125-8-8-8h-63.878907c-4.417968 0-8 3.582031-8 8s3.582032 8 8 8zm0 0"/><path d="m136.042969 378.253906c-15.273438 0-27.65625 12.382813-27.65625 27.65625 0 15.273438 12.382812 27.65625 27.65625 27.65625 15.273437 0 27.65625-12.382812 27.65625-27.65625-.015625-15.269531-12.390625-27.640625-27.65625-27.65625zm0 39.3125c-6.4375 0-11.65625-5.222656-11.65625-11.660156s5.21875-11.65625 11.65625-11.65625 11.65625 5.222656 11.65625 11.660156c-.007813 6.433594-5.222657 11.648438-11.65625 11.65625zm0 0"/><path d="m353.726562 108h-81.726562v-70.652344c-.125-20.703125-16.972656-37.4023435-37.675781-37.347656h-196.5625c-20.671875 0-37.761719 16.679688-37.761719 37.347656v383.300782c0 20.671874 17.089844 37.351562 37.761719 37.351562h196.5625c20.703125.054688 37.550781-16.644531 37.675781-37.347656v-133.152344l26.847656-21.5h54.878906c15.53125-.050781 28.136719-12.582031 28.273438-28.113281v-101.5c-.117188-15.585938-12.6875-28.210938-28.273438-28.386719zm-315.964843-92h196.5625c11.871093-.066406 21.5625 9.480469 21.675781 21.347656v36.652344h-240v-36.652344c0-11.847656 9.914062-21.347656 21.761719-21.347656zm196.5625 426h-196.5625c-11.847657 0-21.761719-9.5-21.761719-21.347656v-50.652344h240v50.652344c-.113281 11.871094-9.804688 21.414062-21.675781 21.347656zm21.675781-88h-240v-264h240v18h-77.640625c-15.601563.167969-28.203125 12.785156-28.359375 28.386719v101.5c.175781 15.546875 12.808594 28.070312 28.359375 28.113281h49.640625v39.839844c.015625 4.425781 3.605469 8.003906 8.03125 8 1.847656.003906 3.644531-.613282 5.101562-1.75l14.867188-11.808594zm110-116.113281c-.128906 6.699219-5.574219 12.074219-12.273438 12.113281h-57.683593c-1.816407-.019531-3.585938.578125-5.015625 1.695312l-47.027344 37.511719v-31.320312c.003906-2.105469-.832031-4.125-2.328125-5.609375-1.496094-1.480469-3.523437-2.300782-5.628906-2.277344h-57.683594c-6.71875-.03125-12.191406-5.398438-12.359375-12.113281v-101.5c.144531-6.769531 5.589844-12.226563 12.359375-12.386719h175.367187c6.75.167969 12.167969 5.632812 12.273438 12.386719zm0 0"/></svg>