<svg height="462pt" viewBox="0 -20 462.18955 462" width="462pt" xmlns="http://www.w3.org/2000/svg"><path d="m370.402344 243.332031-44.523438-96.191406c-.523437-38.78125-18.136718-75.546875-49.71875-103.703125-31.296875-27.695312-71.578125-43.097656-113.367187-43.34375-68.433594 0-133.289063 41.800781-154.398438 99.457031-15.28125 31.96875-6.390625 93.890625.757813 143.691407 1.832031 12.75 3.5625 24.796874 4.714844 35.15625l.753906 133.730468c.035156 4.335938 3.566406 7.828125 7.898437 7.816406l200.035157 2.429688h.101562c2.152344.050781 4.242188-.722656 5.835938-2.167969 1.578124-1.425781 2.515624-3.425781 2.601562-5.550781v-54.253906l48.757812 1.507812c11.710938.34375 23.066407-4.046875 31.503907-12.171875 8.4375-8.128906 13.242187-19.3125 13.335937-31.027343l.605469-63.125 38.050781-.890626c2.691406-.066406 5.171875-1.484374 6.59375-3.773437 1.425782-2.289063 1.597656-5.140625.460938-7.585937zm-53.242188-3.558593c-4.3125.101562-7.765625 3.605468-7.808594 7.917968l-.714843 70.855469c-.074219 7.4375-3.136719 14.53125-8.503907 19.679687-5.363281 5.148438-12.574218 7.921876-20.007812 7.695313l-114-3.507813c-4.410156-.125-8.097656 3.339844-8.242188 7.75-.03125 4.460938 3.511719 8.125 7.96875 8.242188l49.242188 1.503906v46.640625l-184.300781-2.363281-.820313-126.300781c-.019531-.277344-.050781-.554688-.101562-.832031-1.179688-10.710938-2.976563-23.039063-4.851563-36.09375-6.875-47.824219-15.433593-107.355469-2.046875-134.785157.121094-.257812.230469-.519531.324219-.785156 9.007813-24.863281 28.015625-47.558594 53.535156-63.898437 25.683594-16.410157 55.484375-25.214844 85.960938-25.398438 37.867187.226562 74.363281 14.183594 102.71875 39.28125 28.621093 25.515625 44.378906 58.734375 44.378906 93.546875 0 1.160156.253906 2.308594.742187 3.363281l40.125 86.691406zm0 0"/><path d="m371.308594 273.554688c-3.132813 3.117187-3.144532 8.183593-.023438 11.3125 19.710938 19.875 19.710938 51.921874 0 71.796874-2.039062 2.019532-2.835937 4.976563-2.09375 7.746094.742188 2.773438 2.914063 4.933594 5.6875 5.667969 2.773438.730469 5.726563-.078125 7.742188-2.125 25.914062-26.121094 25.914062-68.253906 0-94.375-3.117188-3.128906-8.183594-3.140625-11.3125-.023437zm0 0"/><path d="m420.136719 246.476562c-3.125 3.121094-3.125 8.1875 0 11.3125 34.78125 34.78125 34.761719 91.847657-.046875 127.199219-2.058594 2.027344-2.863282 5.003907-2.109375 7.792969.753906 2.785156 2.953125 4.949219 5.753906 5.660156 2.796875.710938 5.761719-.140625 7.757813-2.230468 40.949218-41.597657 40.925781-108.765626-.046876-149.738282-3.125-3.125-8.1875-3.121094-11.308593.003906zm0 0"/></svg>