<svg height="480pt" viewBox="0 -14 480.00471 480" width="480pt" xmlns="http://www.w3.org/2000/svg"><path d="m273.902344 77.417969c-41.382813 0-75.054688 32.554687-75.054688 72.566406 0 40.015625 33.671875 72.566406 75.054688 72.566406 41.386718 0 75.054687-32.550781 75.054687-72.566406 0-40.011719-33.671875-72.566406-75.054687-72.566406zm0 129.132812c-32.5625 0-59.054688-25.375-59.054688-56.566406s26.492188-56.566406 59.054688-56.566406 59.054687 25.375 59.054687 56.566406-26.492187 56.566406-59.054687 56.566406zm0 0"/><path d="m472.242188 365.007812h-18.238282v-68.742187c14.660156-3.367187 24.574219-17.054687 23.207032-32.035156-1.367188-14.980469-13.597657-26.644531-28.628907-27.300781-15.027343-.65625-28.226562 9.894531-30.898437 24.699218-2.671875 14.800782 6.007812 29.300782 20.320312 33.9375v69.441406h-40v-11.945312c0-65.847656-55.785156-119.421875-124-119.421875s-124 53.574219-124 119.421875v11.945312h-63.257812c-4.417969 0-7.742188 3.933594-7.742188 8.351563v70.925781c-.046875 2.066406.753906 4.0625 2.214844 5.519532 1.464844 1.460937 3.460938 2.253906 5.527344 2.203124h385.5c2.066406.050782 4.066406-.742187 5.53125-2.203124 1.464844-1.457032 2.269531-3.453126 2.226562-5.519532v-70.925781c0-4.417969-3.34375-8.351563-7.761718-8.351563zm-39.03125-98.039062c0-7.769531 6.296874-14.066406 14.066406-14.066406 7.769531-.003906 14.070312 6.296875 14.070312 14.066406 0 7.765625-6.300781 14.066406-14.070312 14.066406-7.761719-.007812-14.054688-6.300781-14.066406-14.066406zm-267.207032 86.09375c0-57.027344 48.605469-103.421875 108-103.421875 59.390625 0 108 46.394531 108 103.421875v11.945312h-216zm298 82.945312h-369v-55h347.84375c.96875 1 2.035156.648438 3.15625.648438s2.183594.351562 3.152344-.648438h14.847656zm0 0"/><path d="m128.972656 166.777344c4.425782.007812 8.019532-3.574219 8.03125-8v-35.769532h33.863282c4.46875-.046874 8.082031-3.652343 8.136718-8.121093v-107.160157c-.042968-2.105468-.929687-4.109374-2.457031-5.558593s-3.574219-2.230469-5.679687-2.1601565h-163.101563c-2.066406-.0546875-4.066406.7382815-5.535156 2.1992185-1.464844 1.457031-2.2695315 3.453125-2.22656275 5.519531v107.160157c-.05859375 2.109375.72656275 4.15625 2.18749975 5.679687 1.457032 1.527344 3.464844 2.402344 5.574219 2.441406h67.910156l48.035157 41.859376c1.460937 1.253906 3.332031 1.933593 5.261718 1.910156zm-7.96875-51.890625v26.292969l-37.050781-32.261719c-1.46875-1.253907-3.34375-1.933594-5.277344-1.910157h-62.671875v-91h147v91h-34.035156c-2.105469-.027343-4.132812.792969-5.628906 2.273438-1.5 1.480469-2.339844 3.5-2.335938 5.605469zm0 0"/></svg>