<svg height="470pt" viewBox="0 -30 470.00218 470" width="470pt" xmlns="http://www.w3.org/2000/svg"><path d="m40.402344 409.726562h42.277344c4.535156-.105468 8.191406-3.742187 8.320312-8.277343v-150.523438c-.132812-4.519531-3.800781-8.132812-8.320312-8.199219h-31.679688v-42.941406c0-101.339844 82.664062-183.785156 184-183.785156 101.339844 0 184 82.445312 184 183.785156v42.941406h-31.679688c-4.519531.066407-8.183593 3.679688-8.320312 8.199219v150.523438c.128906 4.535156 3.789062 8.171875 8.320312 8.277343h42.28125c22.316407 0 40.398438-18.433593 40.398438-40.753906v-85.570312c.152344-20.300782-14.867188-37.519532-35-40.132813v-43.484375c0-110.160156-89.839844-199.785156-200-199.785156s-200 89.625-200 199.785156v43.484375c-20.128906 2.613281-35.148438 19.832031-35 40.132813v85.570312c0 22.320313 18.085938 40.753906 40.402344 40.753906zm413.597656-126.324218v85.570312c.042969 13.550782-10.847656 24.601563-24.398438 24.753906h-34.601562v-135h34.601562c13.535157.117188 24.433594 11.140626 24.398438 24.675782zm-438 0c-.035156-13.535156 10.867188-24.558594 24.402344-24.675782h34.597656v135h-34.597656c-13.550782-.152343-24.441406-11.203124-24.402344-24.753906zm0 0"/><path d="m146.375 323.726562c3.472656 0 6.546875-2.238281 7.613281-5.539062l8.207031-25.390625 24.394532 71.558594c1.105468 3.238281 4.148437 5.417969 7.570312 5.417969.117188 0 .238282 0 .363282-.007813 3.550781-.160156 6.570312-2.644531 7.410156-6.097656l10.929687-44.941407h19.15625c3.253907 0 6.183594-1.972656 7.410157-4.984374l8.933593-21.953126 17.054688 49.4375c1.058593 3.074219 3.875 5.199219 7.125 5.378907 3.246093.175781 6.277343-1.628907 7.667969-4.570313l23.195312-49.058594 9.441406 21.027344c1.289063 2.875 4.148438 4.726563 7.296875 4.722656h27.855469c4.417969 0 8-3.582031 8-8 0-4.417968-3.582031-8-8-8h-22.679688l-14.425781-32.210937c-1.261719-2.871094-4.082031-4.746094-7.21875-4.789063h-.082031c-3.105469.027344-5.917969 1.832032-7.230469 4.644532l-22.226562 47.070312-17.59375-51c-1.085938-3.148437-4.011719-5.296875-7.34375-5.386718-3.332031-.089844-6.371094 1.894531-7.628907 4.980468l-14.933593 36.691406h-20.0625c-3.691407 0-6.902344 2.523438-7.773438 6.109376l-5.925781 24.371093-23.308594-68.375c-1.113281-3.265625-4.1875-5.449219-7.636718-5.421875-3.445313.027344-6.488282 2.261719-7.546876 5.539063l-13.828124 42.777343h-19.554688c-4.417969 0-8 3.582032-8 8 0 4.417969 3.582031 8 8 8zm0 0"/></svg>