<svg height="458pt" viewBox="-38 0 458 458" width="458pt" xmlns="http://www.w3.org/2000/svg"><path d="m193.160156 405h-25.097656c-4.417969 0-8 3.582031-8 8s3.582031 8 8 8h25.097656c4.421875 0 8-3.582031 8-8s-3.578125-8-8-8zm0 0"/><path d="m362 109.332031v-61.191406c0-26.46875-22.027344-48.140625-48.496094-48.140625h-265.800781c-26.464844 0-47.703125 21.671875-47.703125 48.140625v361.71875c0 26.46875 21.238281 48.140625 47.703125 48.140625h276.183594c10.304687-.042969 20.167969-4.199219 27.394531-11.546875 6.941406-7.195313 10.789062-16.824219 10.71875-26.824219v-154.6875c11.847656-3.699218 19.9375-14.644531 20-27.054687v-101.5c-.0625-12.414063-8.152344-23.355469-20-27.054688zm-22.449219 325.980469c-4.09375 4.269531-9.75 6.6875-15.664062 6.6875h-276.183594c-8.464844-.050781-16.566406-3.46875-22.511719-9.496094-5.949218-6.027344-9.253906-14.175781-9.191406-22.644531v-361.71875c-.0625-8.46875 3.242188-16.617187 9.191406-22.644531 5.945313-6.027344 14.046875-9.445313 22.511719-9.496094h265.800781c17.644532 0 32.496094 14.492188 32.496094 32.140625v59.859375h-25v-61.167969c.0625-2.070312-.722656-4.078125-2.171875-5.554687-1.453125-1.480469-3.445313-2.300782-5.515625-2.277344h-265.402344c-2.09375-.035156-4.113281.777344-5.601562 2.25-1.488282 1.476562-2.320313 3.488281-2.308594 5.582031v330.660157c0 4.417968 3.492188 7.507812 7.910156 7.507812h265.402344c2.035156.101562 4.023438-.652344 5.480469-2.078125 1.457031-1.421875 2.257812-3.390625 2.207031-5.429687v-111.492188h25v153.742188c0 .078124-.246094.199218-.242188.277343.085938 5.726563-2.15625 11.246094-6.207031 15.292969zm-160.621093-169.3125h50.070312v39.839844c-.078125 3.042968 1.613281 5.855468 4.339844 7.210937 1.046875.519531 2.199218.789063 3.367187.789063 1.796875.023437 3.542969-.574219 4.949219-1.691406l57.757812-46.148438h5.585938v103h-249v-314h249v53h-126.070312c-15.441407 0-27.929688 12.945312-27.929688 28.386719v101.5c-.027344 15.464843 12.460938 28.035156 27.929688 28.113281zm187.070312-28.113281c.066406 3.160156-1.132812 6.21875-3.328125 8.492187-2.195313 2.273438-5.210937 3.578125-8.371094 3.621094h-57.6875c-1.75-.019531-3.453125.582031-4.800781 1.695312l-46.8125 37.511719v-31.320312c0-4.417969-3.96875-7.886719-8.386719-7.886719h-57.683593c-6.632813-.066406-11.964844-5.480469-11.929688-12.113281v-101.5c0-6.617188 5.3125-12.386719 11.929688-12.386719h175.371093c6.617188 0 11.699219 5.769531 11.699219 12.386719zm0 0"/></svg>