<svg height="484pt" viewBox="0 -16 484 484" width="484pt" xmlns="http://www.w3.org/2000/svg"><path d="m442.964844 118.847656h-139.964844v-35.152344c-.003906-2.105468-.855469-4.121093-2.359375-5.597656-1.503906-1.472656-3.535156-2.285156-5.640625-2.25h-61.183594l87.382813-61.222656c3.636719-2.535156 4.53125-7.535156 1.996093-11.171875-2.53125-3.632813-7.535156-4.527344-11.167968-1.996094l-101.617188 71.101563-98.335937-71.042969c-3.578125-2.585937-8.578125-1.78125-11.167969 1.800781-2.585938 3.605469-1.785156 8.621094 1.800781 11.242188l84.738281 61.289062h-63.445312c-2.105469-.035156-4.136719.777344-5.640625 2.253906-1.503906 1.472657-2.351563 3.488282-2.359375 5.59375v35.152344h-74.960938c-22.628906 0-41.039062 18.105469-41.039062 40.0625v252.964844c0 21.957031 18.410156 39.972656 41.039062 39.972656h401.925782c22.625 0 41.035156-18.015625 41.035156-39.972656v-252.964844c0-21.957031-18.410156-40.0625-41.035156-40.0625zm-310.964844-27h155v27h-155zm336 320.027344c0 13.136719-11.230469 23.972656-25.035156 23.972656h-401.925782c-13.804687 0-25.039062-10.835937-25.039062-23.972656v-252.964844c0-13.132812 11.234375-24.0625 25.039062-24.0625h401.925782c13.800781 0 25.035156 10.929688 25.035156 24.0625zm0 0"/><path d="m442.964844 366.847656h-66.070313c-4.417969 0-8 3.578125-8 8 0 4.417969 3.582031 8 8 8h66.070313c4.417968 0 8-3.582031 8-8 0-4.421875-3.582032-8-8-8zm0 0"/><path d="m409.929688 280.398438c22.324218 0 40.484374-17.625 40.484374-39.289063s-18.160156-39.289063-40.484374-39.289063c-22.324219 0-40.484376 17.625-40.484376 39.289063s18.160157 39.289063 40.484376 39.289063zm0-62.578126c13.5 0 24.484374 10.449219 24.484374 23.289063 0 12.84375-10.984374 23.289063-24.484374 23.289063s-24.484376-10.445313-24.484376-23.289063c0-12.839844 10.984376-23.289063 24.484376-23.289063zm0 0"/><path d="m442.964844 313.847656h-66.070313c-4.417969 0-8 3.578125-8 8 0 4.417969 3.582031 8 8 8h66.070313c4.417968 0 8-3.582031 8-8 0-4.421875-3.582032-8-8-8zm0 0"/><path d="m345 175.847656c0-4.421875-3.582031-8-8-8h-280c-4.417969 0-8 3.578125-8 8v224c0 4.417969 3.582031 8 8 8h280c4.417969 0 8-3.582031 8-8zm-16 216h-264v-208h264zm0 0"/></svg>