<svg height="490pt" viewBox="-48 0 490 490" width="490pt" xmlns="http://www.w3.org/2000/svg"><path d="m288.453125 133.082031c1.066406.523438 2.238281.792969 3.421875.792969 1.808594.007812 3.5625-.601562 4.976562-1.726562l35.226563-28.148438h33.191406c11.363281-.015625 20.605469-9.164062 20.730469-20.527344v-63.335937c0-11.292969-9.4375-20.136719-20.730469-20.136719h-109.425781c-11.292969 0-20.84375 8.84375-20.84375 20.136719v63.335937c0 11.289063 9.550781 20.527344 20.84375 20.527344h28.15625v21.875c-.03125 3.058594 1.699219 5.867188 4.453125 7.207031zm-32.609375-45.082031c-2.554688 0-4.671875-1.980469-4.84375-4.527344v-63.335937c0-2.472657 2.375-4.136719 4.84375-4.136719h109.425781c2.46875 0 4.730469 1.664062 4.730469 4.136719v63.335937c-.117188 2.527344-2.199219 4.519532-4.730469 4.527344h-35.996093c-1.785157-.007812-3.519532.601562-4.910157 1.726562l-24.363281 19.511719v-13.289062c-.082031-4.4375-3.722656-7.984375-8.164062-7.949219zm0 0"/><path d="m394 154.511719c0-4.417969-3.398438-7.511719-7.8125-7.511719h-140.332031c-5.523438-22-25.332031-36.847656-48.855469-36.847656s-43.328125 14.847656-48.855469 36.847656h-140.332031c-4.410156 0-7.8125 3.09375-7.8125 7.511719v271.601562c-.0351562 2.089844.773438 4.105469 2.246094 5.589844 1.46875 1.484375 3.476562 2.3125 5.566406 2.296875h123.148438l-13.121094 40h-24.945313c-4.417969 0-8 3.582031-8 8s3.582031 8 8 8h208.210938c4.421875 0 8-3.582031 8-8s-3.578125-8-8-8h-24.941407l-13.121093-40h123.144531c2.089844.015625 4.101562-.8125 5.570312-2.296875 1.472657-1.488281 2.28125-3.503906 2.242188-5.59375zm-197-28.847657c18.964844 0 34.394531 14.726563 34.394531 32.824219 0 18.097657-15.429687 32.824219-34.394531 32.824219s-34.398438-14.726562-34.398438-32.824219c0-18.097656 15.433594-32.824219 34.398438-32.824219zm-181 37.335938h130.792969c2.121093 25 23.820312 44.800781 50.207031 44.800781 26.390625 0 48.089844-19.800781 50.210938-44.800781h130.789062v200h-362zm243.335938 311h-124.667969l13.121093-40h98.425782zm118.664062-56h-362v-39h362zm0 0"/><path d="m197 213.308594c-44.75 0-81 35.1875-81 78.445312v36.835938c0 4.417968 3.425781 8.410156 7.84375 8.410156h146.316406c4.417969 0 7.839844-3.992188 7.839844-8.410156v-36.835938c0-43.253906-36.246094-78.445312-81-78.445312zm65 107.691406h-130v-29.246094c0-34.433594 29.070312-62.445312 65-62.445312s65 28.011718 65 62.445312zm0 0"/></svg>