<svg height="472pt" viewBox="0 -37 472 472" width="472pt" xmlns="http://www.w3.org/2000/svg"><path d="m472 109.199219v-68.65625c0-22.601563-17.699219-40.542969-39.453125-40.542969h-393.097656c-21.75 0-39.449219 17.941406-39.449219 40.542969v316.914062c0 22.601563 17.699219 40.542969 39.449219 40.542969h393.097656c21.753906 0 39.453125-17.941406 39.453125-40.542969v-248.105469c0-.027343 0-.050781 0-.078124 0-.027344 0-.050782 0-.074219zm-432.550781-93.199219h393.097656c12.929687 0 23.453125 10.761719 23.453125 24.542969v60.457031h-440v-60.457031c0-13.78125 10.519531-24.542969 23.449219-24.542969zm393.097656 366h-393.097656c-12.929688 0-23.449219-10.761719-23.449219-24.542969v-240.457031h440v240.457031c0 13.78125-10.523438 24.542969-23.453125 24.542969zm0 0"/><path d="m123.308594 87.03125c15.972656 0 28.96875-13.453125 28.96875-29.992188 0-16.539062-12.996094-29.996093-28.96875-29.996093-15.96875 0-28.964844 13.457031-28.964844 29.996093 0 16.535157 12.996094 29.992188 28.964844 29.992188zm0-43.988281c7.152344 0 12.96875 6.277343 12.96875 13.996093 0 7.714844-5.816406 13.992188-12.96875 13.992188-7.148438 0-12.964844-6.277344-12.964844-13.992188 0-7.71875 5.816406-13.996093 12.964844-13.996093zm0 0"/><path d="m191.449219 87.03125c15.972656 0 28.964843-13.453125 28.964843-29.992188 0-16.539062-12.992187-29.996093-28.964843-29.996093-15.972657 0-28.96875 13.457031-28.96875 29.996093 0 16.535157 12.996093 29.992188 28.96875 29.992188zm0-43.988281c7.148437 0 12.964843 6.277343 12.964843 13.996093 0 7.714844-5.816406 13.992188-12.964843 13.992188-7.152344 0-12.96875-6.277344-12.96875-13.992188 0-7.71875 5.820312-13.996093 12.96875-13.996093zm0 0"/><path d="m55.171875 87.03125c15.972656 0 28.964844-13.453125 28.964844-29.992188 0-16.539062-12.992188-29.996093-28.964844-29.996093s-28.964844 13.457031-28.964844 29.996093c0 16.535157 12.992188 29.992188 28.964844 29.992188zm0-43.988281c7.148437 0 12.964844 6.277343 12.964844 13.996093 0 7.714844-5.816407 13.992188-12.964844 13.992188s-12.964844-6.277344-12.964844-13.992188c0-7.71875 5.816407-13.996093 12.964844-13.996093zm0 0"/><path d="m323.683594 146h-175.367188c-15.59375.171875-28.179687 12.792969-28.316406 28.386719v101.5c.15625 15.539062 12.773438 28.066406 28.316406 28.113281h49.683594v39.839844c.019531 3.070312 1.777344 5.859375 4.539062 7.199218 2.757813 1.335938 6.039063.992188 8.460938-.890624l57.800781-46.148438h54.878907c15.542968-.042969 28.164062-12.570312 28.320312-28.113281v-101.5c-.132812-15.59375-12.722656-28.214844-28.316406-28.386719zm12.316406 129.886719c-.148438 6.707031-5.609375 12.078125-12.316406 12.113281h-57.683594c-1.8125-.023438-3.574219.574219-5 1.695312l-47 37.511719v-31.320312c-.003906-2.109375-.851562-4.132813-2.355469-5.613281-1.5-1.480469-3.535156-2.300782-5.644531-2.273438h-57.683594c-6.707031-.035156-12.167968-5.40625-12.316406-12.113281v-101.5c.125-6.761719 5.554688-12.222657 12.316406-12.386719h175.367188c6.761718.164062 12.191406 5.625 12.316406 12.386719zm0 0"/></svg>