<svg height="499pt" viewBox="-13 0 499 499.75" width="499pt" xmlns="http://www.w3.org/2000/svg"><path d="m236.375 413.316406c23.613281 0 42.820312-18.632812 42.820312-41.53125 0-22.898437-19.207031-41.53125-42.820312-41.53125s-42.820312 18.632813-42.820312 41.53125c0 22.898438 19.207031 41.53125 42.820312 41.53125zm0-67.0625c14.789062 0 26.820312 11.453125 26.820312 25.53125s-12.03125 25.53125-26.820312 25.53125-26.820312-11.453125-26.820312-25.53125 12.03125-25.53125 26.820312-25.53125zm0 0"/><path d="m176.285156 499.75h120.179688c4.449218-.125 7.972656-3.800781 7.910156-8.25v-10.257812c0-36.3125-30.453125-65.859376-68-65.859376s-68 29.546876-68 65.859376v10.257812c-.0625 4.449219 3.460938 8.125 7.910156 8.25zm8.089844-18.507812c0-27.492188 23.277344-49.859376 52-49.859376s52 22.367188 52 49.859376v2.507812h-104zm0 0"/><path d="m361.464844 371.785156c0 22.898438 19.210937 41.53125 42.820312 41.53125s42.820313-18.632812 42.820313-41.53125c0-22.898437-19.207031-41.53125-42.820313-41.53125-23.613281 0-42.820312 18.632813-42.820312 41.53125zm69.640625 0c0 14.078125-12.03125 25.53125-26.820313 25.53125-14.789062 0-26.820312-11.453125-26.820312-25.53125s12.03125-25.53125 26.820312-25.53125c14.789063 0 26.820313 11.453125 26.820313 25.53125zm0 0"/><path d="m336.375 481.242188v10.257812c-.101562 4.433594 3.390625 8.117188 7.820312 8.25h120.179688c4.464844-.117188 8.019531-3.78125 8-8.25v-10.257812c0-36.3125-30.453125-65.859376-68-65.859376s-68 29.546876-68 65.859376zm120 0v2.507812h-104v-2.507812c0-27.492188 23.277344-49.859376 52-49.859376s52 22.367188 52 49.859376zm0 0"/><path d="m68.464844 413.316406c23.609375 0 42.820312-18.632812 42.820312-41.53125 0-22.898437-19.210937-41.53125-42.820312-41.53125s-42.820313 18.632813-42.820313 41.53125c0 22.898438 19.207031 41.53125 42.820313 41.53125zm0-67.0625c14.789062 0 26.820312 11.453125 26.820312 25.53125s-12.03125 25.53125-26.820312 25.53125c-14.789063 0-26.820313-11.453125-26.820313-25.53125s12.03125-25.53125 26.820313-25.53125zm0 0"/><path d="m8.375 499.75h120.179688c4.429687-.132812 7.921874-3.816406 7.820312-8.25v-10.257812c0-36.3125-30.453125-65.859376-68-65.859376s-68 29.546876-68 65.859376v10.257812c-.019531 4.46875 3.535156 8.132812 8 8.25zm8-18.507812c0-27.492188 23.277344-49.859376 52-49.859376s52 22.367188 52 49.859376v2.507812h-104zm0 0"/><path d="m363.195312 351.785156c0-22.898437-19.207031-41.53125-42.820312-41.53125s-42.820312 18.632813-42.820312 41.53125c0 22.898438 19.207031 41.53125 42.820312 41.53125s42.820312-18.632812 42.820312-41.53125zm-69.640624 0c0-14.078125 12.03125-25.53125 26.820312-25.53125s26.820312 11.453125 26.820312 25.53125-12.03125 25.53125-26.820312 25.53125-26.820312-11.453125-26.820312-25.53125zm0 0"/><path d="m152.375 310.253906c-23.613281 0-42.820312 18.632813-42.820312 41.53125 0 22.898438 19.207031 41.53125 42.820312 41.53125s42.820312-18.632812 42.820312-41.53125c0-22.898437-19.207031-41.53125-42.820312-41.53125zm0 67.0625c-14.789062 0-26.820312-11.453125-26.820312-25.53125s12.03125-25.53125 26.820312-25.53125 26.820312 11.453125 26.820312 25.53125-12.03125 25.53125-26.820312 25.53125zm0 0"/><path d="m60.875 287.75h351c4.417969 0 7.5-3.832031 7.5-8.25v-45c.105469-2.042969-.644531-4.035156-2.066406-5.503906s-3.390625-2.28125-5.433594-2.246094h-38.5v-38.898438c10.03125-3.367187 16.246094-13.390624 14.796875-23.871093s-10.148437-18.445313-20.714844-18.960938c-10.566406-.519531-20.003906 6.554688-22.472656 16.84375-2.464844 10.285157 2.738281 20.871094 12.390625 25.203125v39.683594h-20v-24.792969c-.054688-24.9375-20.25-45.140625-45.1875-45.207031h-18.8125v-7.378906c2.058594-1.691406 4.027344-3.492188 5.894531-5.394532 11.640625-11.898437 18.144531-27.890624 18.105469-44.539062v-16.710938c3.976562.765626 8.0625.792969 12.050781.078126 13.046875-2.320313 23.414063-12.273438 26.261719-25.214844 2.847656-12.945313-2.382812-26.328125-13.253906-33.910156-7.25-5.023438-16.242188-6.863282-24.878906-5.085938-4.714844.914062-9.179688 2.8125-13.105469 5.574219-11.890625-15.25-30.148438-24.167969-49.484375-24.167969-34.375 0-62.589844 27.964844-62.589844 62.34375v37.097656c.113281 16.695313 6.761719 32.683594 18.519531 44.539063 2.601563 2.609375 5.441407 4.972656 8.480469 7.054687v5.714844h-18.8125c-24.9375.066406-45.132812 20.269531-45.1875 45.207031v24.792969h-74.5c-4.417969 0-8.5 3.332031-8.5 7.75v45c.214844 4.5625 3.933594 8.171875 8.5 8.25zm305.5-126.75c3.3125 0 6 2.6875 6 6s-2.6875 6-6 6-6-2.6875-6-6c.003906-3.3125 2.6875-5.996094 6-6zm-45 40.957031v24.792969h-78v-38.917969l24.3125-15.082031h24.5c16.105469.054688 29.144531 13.101562 29.1875 29.207031zm-64-41.558593-21.601562 13.5-20.398438-13.386719v-1.0625c6.390625 2.277343 13.128906 3.425781 19.914062 3.394531 7.558594.003906 15.054688-1.417969 22.085938-4.195312zm43.257812-126.101563c4.386719-.925781 8.960938-.019531 12.664063 2.507813 5.574219 3.882812 8.25 10.75 6.777344 17.378906-1.476563 6.632812-6.8125 11.714844-13.507813 12.867187-3.089844.542969-6.269531.222657-9.191406-.921875v-3.785156c.039062-8.335938-1.601562-16.589844-4.828125-24.273438 2.347656-1.898437 5.121094-3.195312 8.085937-3.773437zm-65.664062-18.300781c22.960938.023437 42.476562 16.792968 45.953125 39.488281-3.039063-3.742187-5.320313-8.046875-6.707031-12.667969-.777344-3.160156-3.398438-5.53125-6.621094-5.984375-3.222656-.457031-6.398438 1.097657-8.019531 3.917969-9.117188 15.746094-24.746094 24.640625-45.976563 26.429688-8.421875.632812-16.886718.261718-25.222656-1.101563v-3.734375c.144531-25.632812 20.960938-46.335938 46.59375-46.34375zm-46.59375 83.441406v-17.164062c5.765625.796874 11.574219 1.207031 17.394531 1.230468 2.777344 0 5.808594-.101562 8.796875-.339844 21.082032-1.671874 38.175782-9.476562 50.253906-22.773437 4.136719 6.800781 9.804688 12.539063 16.554688 16.757813v22.292968c.035156 12.472656-4.835938 24.460938-13.558594 33.378906-8.515625 8.925782-20.304687 13.988282-32.640625 14.023438-12.421875-.03125-24.296875-5.089844-32.921875-14.027344-8.8125-8.882812-13.792968-20.867187-13.878906-33.378906zm-37 102.519531c.042969-16.105469 13.082031-29.152343 29.1875-29.207031h24.261719l22.550781 14.96875v39.03125h-76zm-83 40.792969h73.035156c.648438 0 1.328125.269531 2.035156.269531.703126 0 1.382813-.269531 2.035157-.269531h181.789062c.652344 0 1.332031.269531 2.035157.269531.707031 0 1.386718-.269531 2.035156-.269531h32.082031c.628906 0 1.277344.25 1.953125.25s1.324219-.25 1.953125-.25h36.046875v29h-335zm0 0"/><path d="m229.304688 98.941406c0-4.417968-3.582032-8-8-8-4.417969 0-8 3.582032-8 8-.019532.691406-.585938 1.242188-1.273438 1.242188-.691406 0-1.257812-.550782-1.277344-1.242188 0-4.417968-3.582031-8-8-8-4.417968 0-8 3.582032-8 8 .074219 9.492188 7.785156 17.144532 17.277344 17.144532 9.488281 0 17.199219-7.652344 17.273438-17.144532zm0 0"/><path d="m258.402344 116.21875c9.535156-.011719 17.261718-7.742188 17.273437-17.277344 0-4.417968-3.582031-8-8-8s-8 3.582032-8 8c-.019531.691406-.585937 1.242188-1.273437 1.242188-.691406 0-1.257813-.550782-1.277344-1.242188 0-4.417968-3.582031-8-8-8s-8 3.582032-8 8c.011719 9.539063 7.742188 17.265625 17.277344 17.277344zm0 0"/></svg>