<svg height="499pt" viewBox="-102 0 499 499" width="499pt" xmlns="http://www.w3.org/2000/svg"><path d="m295 40.167969c0-22.183594-17.984375-40.167969-40.167969-40.167969h-214.664062c-22.183594 0-40.167969 17.984375-40.167969 40.167969v418.664062c0 22.183594 17.984375 40.167969 40.167969 40.167969h214.664062c22.183594 0 40.167969-17.984375 40.167969-40.167969zm-17 345.832031h-262v-290h262zm-23.773438 96h-214.453124c-6.339844.035156-12.429688-2.472656-16.898438-6.96875s-6.949219-10.597656-6.875-16.9375v-56.09375h262v56.09375c.074219 6.339844-2.40625 12.441406-6.875 16.9375s-10.558594 7.003906-16.898438 6.96875zm-214.453124-466h214.453124c6.339844-.035156 12.429688 2.472656 16.898438 6.96875s6.949219 10.597656 6.875 16.9375v40.09375h-262v-40.09375c-.074219-6.339844 2.40625-12.441406 6.875-16.9375s10.558594-7.003906 16.898438-6.96875zm0 0"/><path d="m112.152344 53h69.699218c4.417969 0 8-3.582031 8-8s-3.582031-8-8-8h-69.699218c-4.417969 0-8 3.582031-8 8s3.582031 8 8 8zm0 0"/><path d="m147 412.5625c-16.261719 0-29.445312 13.183594-29.445312 29.445312-.003907 16.265626 13.179687 29.449219 29.445312 29.449219 16.261719 0 29.445312-13.183593 29.445312-29.445312-.019531-16.257813-13.191406-29.429688-29.445312-29.449219zm0 42.894531c-7.425781 0-13.445312-6.019531-13.445312-13.445312-.003907-7.425781 6.019531-13.449219 13.445312-13.449219s13.445312 6.019531 13.445312 13.449219c-.007812 7.421875-6.023437 13.433593-13.445312 13.445312zm0 0"/><path d="m53.332031 368h187.335938c4.417969 0 8.332031-3.300781 8.332031-7.714844v-33.074218c0-25.039063-20.699219-45.210938-45.742188-45.210938h-19.257812v-7.820312c2-1.679688 4.449219-3.488282 6.363281-5.453126 11.835938-11.9375 18.523438-28.035156 18.636719-44.847656v-16.941406c1.980469.402344 4 .609375 6.019531.613281 14.394531-.011719 27.109375-9.371093 31.402344-23.105469 4.292969-13.738281-.832031-28.671874-12.65625-36.875-11.519531-8.027343-27.066406-7.320312-38.277344.546876-16.421875-21.253907-44.542969-29.710938-69.964843-21.039063-25.421876 8.667969-42.515626 32.550781-42.523438 59.410156v37.390625c.074219 16.800782 6.730469 32.898438 18.539062 44.847656 2.597657 2.628907 5.429688 5.015626 8.460938 7.125v6.148438h-19.257812c-25.042969 0-45.742188 20.171875-45.742188 45.210938v33.074218c0 4.417969 3.914062 7.714844 8.332031 7.714844zm179.667969-40.789062v24.789062h-79v-39.0625l24.542969-14.9375h24.714843c16.214844 0 29.742188 12.992188 29.742188 29.210938zm-4.019531-142.910157c-4.441407 6.421875-12.726563 8.925781-19.980469 6.046875v-2.011718l22.777344-17.023438c.875 4.527344-.136719 9.21875-2.796875 12.988281zm-7.695313-25.347656-14.886718 11.078125c-.738282-2.742188-1.667969-5.429688-2.773438-8.042969 4.910156-4.121093 11.65625-5.28125 17.660156-3.035156zm-29.167968 20.847656c-3.144532-3.832031-5.515626-8.238281-6.976563-12.972656-.789063-3.160156-3.417969-5.527344-6.644531-5.980469-3.226563-.457031-6.40625 1.09375-8.039063 3.914063-9.199219 15.890625-24.757812 24.863281-46.179687 26.667969-8.441406.640624-16.925782.265624-25.277344-1.125v-3.816407c.011719-2.859375.289062-5.710937.820312-8.519531 3.75.53125 7.53125.796875 11.320313.796875 3.699219 0 7.394531-.257813 11.058594-.777344 14.300781-2.042969 33.875-9.128906 49.144531-30.671875 11.265625 7.34375 18.835938 19.175782 20.773438 32.484375zm-46.285157-40.082031c3.484375 0 6.957031.394531 10.355469 1.167969-16.617188 21.066406-38.335938 22.777343-50.542969 21.707031 8.425781-14.175781 23.695313-22.867188 40.1875-22.878906zm-46.832031 84.160156v-17.378906c5.753906.808594 11.558594 1.226562 17.371094 1.246094 2.800781 0 5.742187-.097656 8.753906-.339844 21.265625-1.683594 38.734375-9.566406 50.898438-23 4.300781 6.871094 10.105468 12.671875 16.976562 16.96875v22.5c-.074219 12.625-5.089844 24.714844-13.972656 33.683594-8.628906 9.042968-20.585938 14.160156-33.085938 14.160156s-24.457031-5.117188-33.089844-14.160156c-8.847656-8.980469-13.820312-21.070313-13.851562-33.679688zm46.90625 63.84375c7.570312.011719 15.074219-1.4375 22.097656-4.261718v1.898437l-21.597656 13.652344-20.40625-13.542969v-1.191406c6.378906 2.320312 13.117188 3.484375 19.90625 3.445312zm-84.90625 39.488282c0-16.21875 13.527344-29.210938 29.742188-29.210938h24.476562l22.78125 14.824219v39.175781h-77zm0 0"/><path d="m139.808594 223.378906c0-4.417968-3.582032-8-8-8-4.417969 0-8 3.582032-8 8 0 .746094-.601563 1.351563-1.347656 1.351563-.746094 0-1.351563-.605469-1.351563-1.351563 0-4.417968-3.582031-8-8-8s-8 3.582032-8 8c0 9.582032 7.769531 17.351563 17.351563 17.351563 9.582031 0 17.347656-7.769531 17.347656-17.351563zm0 0"/><path d="m169.199219 240.726562c9.578125-.007812 17.339843-7.769531 17.351562-17.347656 0-4.417968-3.582031-8-8-8-4.421875 0-8 3.582032-8 8 0 .746094-.605469 1.351563-1.351562 1.351563-.746094 0-1.351563-.605469-1.351563-1.351563 0-4.417968-3.582031-8-8-8-4.417968 0-8 3.582032-8 8 .011719 9.578125 7.773438 17.339844 17.351563 17.347656zm0 0"/></svg>