<svg height="493pt" viewBox="-10 0 493 493.00782" width="493pt" xmlns="http://www.w3.org/2000/svg"><path d="m193.183594 364.792969c0 22.898437 19.207031 41.53125 42.820312 41.53125 23.613282 0 42.820313-18.632813 42.820313-41.53125 0-22.898438-19.207031-41.53125-42.820313-41.53125-23.613281 0-42.820312 18.632812-42.820312 41.53125zm42.820312-25.53125c14.789063 0 26.820313 11.453125 26.820313 25.53125s-12.03125 25.53125-26.820313 25.53125c-14.789062 0-26.820312-11.453125-26.820312-25.53125s12.03125-25.53125 26.820312-25.53125zm0 0"/><path d="m236.003906 408.390625c-37.542968 0-68 29.546875-68 65.859375v10.257812c0 4.417969 3.492188 8.5 7.910156 8.5h120.179688c4.417969 0 7.910156-4.082031 7.910156-8.5v-10.257812c0-36.3125-30.457031-65.859375-68-65.859375zm52 68.617187h-104v-2.757812c0-27.492188 23.277344-49.859375 52-49.859375s52 22.367187 52 49.859375zm0 0"/><path d="m403.914062 406.324219c23.613282 0 42.820313-18.632813 42.820313-41.53125 0-22.898438-19.207031-41.53125-42.820313-41.53125-23.609374 0-42.820312 18.632812-42.820312 41.53125 0 22.898437 19.210938 41.53125 42.820312 41.53125zm0-67.0625c14.789063 0 26.820313 11.453125 26.820313 25.53125s-12.03125 25.53125-26.820313 25.53125c-14.789062 0-26.820312-11.453125-26.820312-25.53125s12.03125-25.53125 26.820312-25.53125zm0 0"/><path d="m404.003906 408.390625c-37.546875 0-68 29.546875-68 65.859375v10.257812c0 4.417969 3.398438 8.5 7.820313 8.5h120.179687c4.417969 0 8-4.082031 8-8.5v-10.257812c0-36.3125-30.453125-65.859375-68-65.859375zm52 68.617187h-104v-2.757812c0-27.492188 23.277344-49.859375 52-49.859375s52 22.367187 52 49.859375zm0 0"/><path d="m25.273438 364.792969c0 22.898437 19.207031 41.53125 42.820312 41.53125 23.609375 0 42.820312-18.632813 42.820312-41.53125 0-22.898438-19.210937-41.53125-42.820312-41.53125-23.613281 0-42.820312 18.632812-42.820312 41.53125zm42.820312-25.53125c14.789062 0 26.820312 11.453125 26.820312 25.53125s-12.03125 25.53125-26.820312 25.53125-26.820312-11.453125-26.820312-25.53125 12.03125-25.53125 26.820312-25.53125zm0 0"/><path d="m68.003906 408.390625c-37.546875 0-67.99999975 29.546875-67.99999975 65.859375v10.257812c0 4.417969 3.58203175 8.5 7.99999975 8.5h120.179688c4.417968 0 7.820312-4.082031 7.820312-8.5v-10.257812c0-36.3125-30.453125-65.859375-68-65.859375zm52 68.617187h-104v-2.757812c0-27.492188 23.277344-49.859375 52-49.859375s52 22.367187 52 49.859375zm0 0"/><path d="m362.824219 344.792969c0-22.898438-19.207031-41.53125-42.820313-41.53125-23.613281 0-42.820312 18.632812-42.820312 41.53125 0 22.898437 19.207031 41.53125 42.820312 41.53125 23.613282 0 42.820313-18.632813 42.820313-41.53125zm-42.820313 25.53125c-14.789062 0-26.820312-11.453125-26.820312-25.53125s12.03125-25.53125 26.820312-25.53125c14.789063 0 26.820313 11.453125 26.820313 25.53125s-12.03125 25.53125-26.820313 25.53125zm0 0"/><path d="m194.824219 344.792969c0-22.898438-19.207031-41.53125-42.820313-41.53125-23.613281 0-42.820312 18.632812-42.820312 41.53125 0 22.898437 19.207031 41.53125 42.820312 41.53125 23.613282 0 42.820313-18.632813 42.820313-41.53125zm-42.820313 25.53125c-14.789062 0-26.820312-11.453125-26.820312-25.53125s12.03125-25.53125 26.820312-25.53125c14.789063 0 26.820313 11.453125 26.820313 25.53125s-12.03125 25.53125-26.820313 25.53125zm0 0"/><path d="m328.933594 276.277344c.699218 0 1.386718-.269532 2.035156-.269532h100.535156c4.417969 0 7.5-4.082031 7.5-8.5v-260c.09375-2.015624-.664062-3.980468-2.09375-5.40625-1.425781-1.429687-3.390625-2.1874995-5.40625-2.0937495h-391c-4.417968 0-8.5 3.0820315-8.5 7.4999995v260c.195313 4.613282 3.886719 8.304688 8.5 8.5h100.535156c.648438 0 1.328126.269532 2.035157.269532.703125 0 1.382812-.269532 2.035156-.269532h181.789063c.652343 0 1.332031.269532 2.035156.269532zm-36.757813-205.199219c2.328125-1.894531 5.089844-3.191406 8.039063-3.769531 4.394531-.929688 8.976562-.023438 12.6875 2.503906 3.664062 2.53125 6.160156 6.425781 6.929687 10.8125.769531 4.382812-.253906 8.894531-2.835937 12.519531-4.492188 6.359375-12.746094 8.832031-19.992188 5.988281v-3.78125c.039063-8.335937-1.601562-16.589843-4.828125-24.273437zm-11.5 17.421875c-3.046875-3.753906-5.347656-8.054688-6.773437-12.675781-.789063-3.160157-3.417969-5.527344-6.644532-5.980469-3.226562-.453125-6.40625 1.09375-8.039062 3.914062-9.117188 15.746094-24.753906 24.640626-45.984375 26.429688-8.425781.636719-16.894531.265625-25.234375-1.101562v-3.734376c.140625-24.304687 18.933594-44.425781 43.171875-46.214843 24.238281-1.792969 45.789063 15.339843 49.5 39.359375zm-92.671875 26.78125c5.761719.796875 11.574219 1.207031 17.390625 1.230469 2.78125 0 5.8125-.101563 8.800781-.339844 21.082032-1.671875 38.175782-9.476563 50.253907-22.773437 4.136719 6.800781 9.804687 12.539062 16.554687 16.753906v22.292968c.035156 12.472657-4.835937 24.460938-13.558594 33.378907-8.515624 8.925781-20.304687 13.992187-32.640624 14.027343-12.421876-.03125-24.296876-5.089843-32.921876-14.027343-8.8125-8.882813-13.792968-20.867188-13.878906-33.378907zm69 78.125-21.601562 13.5-20.398438-13.386719v-1.0625c6.390625 2.277344 13.128906 3.425781 19.914063 3.394531 7.558593.003907 15.054687-1.421874 22.085937-4.199218zm-52.550781 12.601562 22.550781 14.71875v39.28125h-76v-25.042968c.066406-16.054688 13.132813-29.019532 29.1875-28.957032zm38.550781 14.832032 24.3125-14.832032h24.5c16.054688-.0625 29.121094 12.902344 29.1875 28.957032v25.042968h-78zm-195-204.832032h375v244h-86v-25.042968c-.074218-24.886719-20.300781-45.007813-45.1875-44.957032h-18.8125v-7.628906c2.058594-1.691406 4.027344-3.492187 5.894532-5.394531 11.640624-11.898437 18.144531-27.890625 18.105468-44.539063v-16.730468c2.042969.390625 4.121094.59375 6.199219.597656 14.332031.050781 27.03125-9.214844 31.351563-22.878906 4.320312-13.664063-.742188-28.546875-12.492188-36.746094-7.25-5.023438-16.242188-6.863281-24.882812-5.085938-4.710938.914063-9.171876 2.8125-13.097657 5.574219-11.890625-15.25-30.148437-24.167969-49.488281-24.167969-34.375 0-62.589844 27.964844-62.589844 62.34375v37.097657c.113282 16.695312 6.761719 32.683593 18.519532 44.539062 2.601562 2.609375 5.441406 4.972657 8.480468 7.054688v5.964843h-18.8125c-24.886718-.050781-45.113281 20.070313-45.1875 44.957032v25.042968h-87zm0 0"/><path d="m228.933594 131.949219c0-4.417969-3.582032-8-8-8-4.417969 0-8 3.582031-8 8-.019532.691406-.585938 1.242187-1.273438 1.242187-.691406 0-1.257812-.550781-1.277344-1.242187 0-4.417969-3.582031-8-8-8-4.417968 0-8 3.582031-8 8 .074219 9.492187 7.785157 17.144531 17.277344 17.144531 9.488282 0 17.199219-7.652344 17.273438-17.144531zm0 0"/><path d="m258.03125 149.226562c9.535156-.011718 17.261719-7.742187 17.273438-17.277343 0-4.417969-3.582032-8-8-8-4.417969 0-8 3.582031-8 8-.019532.691406-.585938 1.242187-1.273438 1.242187-.691406 0-1.257812-.550781-1.277344-1.242187 0-4.417969-3.582031-8-8-8-4.417968 0-8 3.582031-8 8 .011719 9.539062 7.742188 17.265625 17.277344 17.277343zm0 0"/></svg>