<svg height="490pt" viewBox="-1 0 490 490.42201" width="490pt" xmlns="http://www.w3.org/2000/svg"><path d="m216.589844 144.105469 21.230468 28.769531c1.507813 2.042969 3.898438 3.25 6.4375 3.25 2.539063 0 4.929688-1.207031 6.4375-3.25l21.234376-28.769531c33.277343-13.269531 52.453124-48.296875 45.695312-83.484375-6.753906-35.1875-37.539062-60.621094-73.367188-60.621094-35.828124 0-66.613281 25.433594-73.367187 60.621094-6.757813 35.1875 12.417969 70.214844 45.699219 83.484375zm27.667968-128.128907c28.527344.007813 52.921876 20.515626 57.832032 48.613282 4.910156 28.101562-11.082032 55.667968-37.914063 65.347656-1.488281.535156-2.785156 1.5-3.726562 2.773438l-16.191407 21.941406-16.191406-21.941406c-.941406-1.273438-2.234375-2.238282-3.722656-2.773438-26.835938-9.679688-42.828125-37.246094-37.917969-65.347656 4.910157-28.097656 29.304688-48.605469 57.832031-48.613282zm0 0"/><path d="m360.71875 105.773438c-21.578125 21.652343-27.839844 54.242187-15.824219 82.347656l-5.328125 35.359375c-.171875 1.160156-.082031 2.34375.253906 3.46875-2.839843-4.578125-6.589843-8.527344-11.011718-11.601563-8.761719-6.066406-19.625-8.285156-30.066406-6.132812-6.414063 1.238281-12.441407 3.988281-17.582032 8.015625-19.769531-27.015625-54.664062-38.261719-86.488281-27.882813-31.828125 10.382813-53.375 40.042969-53.414063 73.519532v47.332031c.066407 20.699219 8.242188 40.546875 22.777344 55.285156 3.425782 3.496094 7.1875 6.648437 11.222656 9.417969v10.519531h-26.207031c-30.527343 0-55.792969 25.054687-55.792969 55.578125v41.867188c0 4.417968 4.015626 7.554687 8.433594 7.554687h237.132813c4.417969 0 8.433593-3.136719 8.433593-7.554687v-41.867188c0-30.523438-25.265624-55.578125-55.789062-55.578125h-26.210938v-12.574219c2.96875-2.230468 5.757813-4.691406 8.335938-7.363281 14.503906-14.75 22.640625-34.601563 22.664062-55.285156v-24.078125c3.238282.875 6.578126 1.304687 9.929688 1.285156 13.738281-.003906 26.496094-7.128906 33.703125-18.828125s7.835937-26.296875 1.660156-38.570313c.097657.105469.175781.21875.277344.316407 1.792969 1.796875 4.335937 2.636719 6.84375 2.253906l35.355469-5.324219c34.5625 14.863282 74.785156 1.710938 93.890625-30.703125 19.101562-32.410156 11.128906-73.96875-18.613281-97.007812-29.746094-23.039063-71.980469-20.371094-98.585938 6.230469zm-58.902344 119.148437c5.660156-1.179687 11.558594-.210937 16.539063 2.722656l-24.199219 18.007813c-1.121094-4.925782-2.730469-9.730469-4.800781-14.34375 3.472656-3.253906 7.792969-5.46875 12.460937-6.386719zm-21.765625 35.460937c-6.261719-6.066406-10.921875-13.585937-13.574219-21.890624-.789062-3.160157-3.417968-5.527344-6.644531-5.980469-3.226562-.457031-6.40625 1.089843-8.039062 3.910156-12.035157 20.785156-32.382813 32.5-60.292969 34.824219-11.445312.871094-22.949219.285156-34.242188-1.753906v-6.625c.035157-4.4375.546876-8.859376 1.535157-13.183594 5.296875.855468 10.648437 1.285156 16.011719 1.285156 4.601562 0 9.195312-.320312 13.746093-.964844 18.039063-2.578125 42.875-11.648437 61.9375-39.609375 17.613281 10.652344 28.710938 29.421875 29.5625 49.988281zm-61.273437-58.847656c5.664062.003906 11.296875.789063 16.738281 2.34375-23.375 32-55.539063 32.519532-71.035156 30.515625 10.59375-20.1875 31.503906-32.839843 54.296875-32.859375zm-109.519532 239.464844c0-21.699219 18.089844-39.578125 39.792969-39.578125h31.605469l30.601562 20.21875v52.78125h-102zm222 0v33.421875h-104v-52.667969l32.316407-20.332031h31.894531c21.703125 0 39.789062 17.875 39.789062 39.578125zm-82-51.800781-29.789062 18.621093-28.210938-18.507812v-5.726562c18.699219 7.449218 39.613282 7.035156 58-1.15625zm12.886719-34.878907c-11.308593 11.859376-26.980469 18.566407-43.367187 18.566407-16.386719 0-32.058594-6.707031-43.367188-18.566407-11.59375-11.761718-18.113281-27.605468-18.152344-44.121093v-24.464844c7.984376 1.273437 16.058594 1.917969 24.148438 1.925781 3.5 0 7.203125-.128906 10.964844-.425781 27.46875-2.179687 49.628906-12.671875 64.746094-30.578125 4.398437 7.679688 11.140624 16.949219 23.140624 23.875v29.667969c-.023437 16.511719-6.527343 32.355469-18.113281 44.121093zm63.453125-93c-6.574218 9.398438-18.953125 12.707032-29.339844 7.839844v-5.019531l32.246094-24.050781c.414063 1.167968.734375 2.371094.960938 3.59375 1.121094 6.160156-.273438 12.511718-3.867188 17.636718zm129.464844-61.199218c-17.519531 17.464844-44.089844 22.113281-66.5 11.636718-1.0625-.5-2.226562-.757812-3.402344-.757812-.398437 0-.796875.027344-1.191406.089844l-26.960938 4.0625 4.0625-26.964844c.234376-1.5625 0-3.164062-.671874-4.59375-12.691407-26.980469-3.144532-59.1875 22.195312-74.898438 25.339844-15.710937 58.433594-9.933593 76.953125 13.429688 18.523437 23.367188 16.589844 56.902344-4.488281 77.988281zm0 0"/><path d="m75.089844 233.289062c10.105468.007813 20.109375-2.046874 29.398437-6.035156l35.355469 5.328125c2.511719.375 5.050781-.460937 6.847656-2.253906 1.792969-1.796875 2.632813-4.335937 2.253906-6.847656l-5.324218-35.359375c13.074218-30.339844 4.6875-65.664063-20.636719-86.886719-25.320313-21.21875-61.570313-23.300781-89.15625-5.121094-27.585937 18.179688-39.964844 52.3125-30.449219 83.953125 9.515625 31.636719 38.671875 53.277344 71.710938 53.222656zm-41.632813-116.199218c20.175781-20.171875 51.929688-22.921875 75.269531-6.523438 23.34375 16.398438 31.527344 47.203125 19.394532 73.023438-.671875 1.429687-.90625 3.027344-.667969 4.59375l4.0625 26.964844-26.964844-4.066407c-1.566406-.234375-3.164062-.003906-4.597656.671875-25.820313 12.128906-56.625 3.949219-73.023437-19.394531-16.398438-23.34375-13.644532-55.09375 6.523437-75.269531zm0 0"/><path d="m201.027344 301.566406c-4.417969 0-8 3.582032-8 8 0 2.117188-1.714844 3.832032-3.832032 3.832032-2.117187 0-3.832031-1.714844-3.832031-3.832032 0-4.417968-3.582031-8-8-8s-8 3.582032-8 8c0 10.953125 8.878907 19.832032 19.832031 19.832032 10.953126 0 19.832032-8.878907 19.832032-19.832032 0-4.417968-3.578125-8-8-8zm0 0"/><path d="m260.195312 301.566406c-4.417968 0-8 3.582032-8 8 .019532 1.382813-.703124 2.671875-1.898437 3.371094s-2.675781.699219-3.871094 0c-1.195312-.699219-1.917969-1.988281-1.898437-3.371094 0-4.417968-3.578125-8-8-8-4.417969 0-8 3.582032-8 8-.046875 7.117188 3.71875 13.71875 9.878906 17.292969 6.15625 3.574219 13.753906 3.574219 19.914062 0 6.15625-3.574219 9.925782-10.175781 9.875-17.292969 0-4.417968-3.582031-8-8-8zm0 0"/></svg>