<svg height="492pt" viewBox="0 0 492.0001 492" width="492pt" xmlns="http://www.w3.org/2000/svg"><path d="m484 180h-21v-147.636719c-.140625-17.824219-14.5625-32.238281-32.386719-32.363281h-230.398437c-17.792969.140625-32.15625 14.570312-32.214844 32.363281v147.636719h-17.160156c-2.074219-.0625-4.082032.726562-5.5625 2.179688-1.476563 1.453124-2.300782 3.445312-2.277344 5.519531v.769531c-5.804688-1.363281-11.746094-2.0625-17.707031-2.082031-42.683594.050781-77.265625 34.652343-77.292969 77.335937v47.332032c-.121094 20.640624 7.882812 40.496093 22.277344 55.285156 3.253906 3.488281 6.84375 6.640625 10.722656 9.417968v11.242188h-25.644531c-30.523438 0-55.355469 24.332031-55.355469 54.855469v41.867187c-.0195312 4.472656 3.527344 8.144532 8 8.277344h237.136719c4.441406-.144531 7.945312-3.832031 7.863281-8.277344v-41.867187c-.003906-14.609375-5.835938-28.617188-16.203125-38.914063s-24.410156-16.035156-39.019531-15.941406h-25.777344v-13.292969c2-2.242187 5.230469-4.691406 7.835938-7.367187 14.363281-14.800782 22.328124-34.660156 22.164062-55.285156v-24.0625c3.335938.8125 6.753906 1.246093 10.1875 1.292968 2.394531 0 4.785156-.210937 7.144531-.628906 10.347657-1.757812 19.558594-7.589844 25.574219-16.1875 3.492188-4.890625 5.792969-10.53125 6.714844-16.46875h208.300781c17.765625-.160156 32.082031-14.609375 32.078125-32.375v-34.925781c-.011719-2.089844-.871094-4.085938-2.375-5.535157-1.507812-1.449218-3.535156-2.230468-5.625-2.164062zm-300-147.636719c.046875-8.960937 7.253906-16.234375 16.210938-16.363281h230.398437c8.996094.113281 16.261719 7.367188 16.390625 16.363281v147.636719h-91.445312c-2.046876-.050781-4.019532.75-5.449219 2.210938-1.433594 1.457031-2.195313 3.445312-2.105469 5.488281v15.300781h-65v-15.300781c.050781-2.0625-.75-4.050781-2.210938-5.507813-1.460937-1.457031-3.457031-2.25-5.515624-2.191406h-91.273438zm16.464844 214.144531c-1.125-4.9375-2.738282-9.746093-4.8125-14.363281 7.800781-7.410156 19.902344-9.097656 29.015625-3.648437zm-14.105469 14.730469c-6.257813-6.066406-10.921875-13.585937-13.574219-21.890625-.789062-3.160156-3.417968-5.527344-6.644531-5.980468-3.226563-.457032-6.40625 1.09375-8.039063 3.914062-12.035156 20.78125-32.167968 32.5-60.078124 34.824219-11.371094.871093-22.804688.28125-34.023438-1.753907v-6.628906c-.039062-4.429687.40625-8.851562 1.320312-13.183594 5.257813.855469 10.574219 1.289063 15.898438 1.285157 4.582031.003906 9.15625-.320313 13.691406-.964844 18.039063-2.578125 42.847656-11.648437 61.910156-39.609375 17.609376 10.652344 28.699219 29.425781 29.539063 49.988281zm-61.269531-58.847656c5.660156 0 11.292968.789063 16.734375 2.339844-23.375 32-55.539063 32.519531-71.03125 30.515625 10.59375-20.183594 31.5-32.835938 54.296875-32.855469zm-109.089844 239.464844c.03125-10.382813 4.203125-20.324219 11.59375-27.617188 7.386719-7.292969 17.382812-11.339843 27.761719-11.238281h31.613281l31.03125 19.5v53.5h-102zm221 0v34.144531h-103v-53.390625l31.886719-19.609375h31.890625c10.367187-.097656 20.34375 3.953125 27.710937 11.25 7.367188 7.300781 11.511719 17.238281 11.511719 27.605469zm-81-51.800781-30.289062 18.621093-28.710938-18.507812v-5.726563c19.042969 7.449219 40.265625 7.035156 59-1.15625zm12.171875-34.875c-11.222656 11.851562-26.828125 18.5625-43.152344 18.5625s-31.929687-6.710938-43.15625-18.5625c-11.511719-11.792969-17.929687-27.640626-17.863281-44.125v-24.464844c7.914062 1.277344 15.914062 1.921875 23.929688 1.925781 3.5 0 7.101562-.125 10.859374-.425781 27.46875-2.179688 49.289063-12.671875 64.40625-30.574219 5.5625 9.683594 13.386719 17.875 22.804688 23.875v29.664063c.078125 16.480468-6.324219 32.328124-17.828125 44.125zm63.660156-93c-3.648437 5.152343-9.191406 8.652343-15.414062 9.730468-4.886719.832032-9.910157.171875-14.417969-1.890625v-5.019531l32.535156-24.054688c2.5625 7.097657 1.554688 14.996094-2.703125 21.226563zm244.167969-39.554688c.011719 8.9375-7.148438 16.226562-16.082031 16.375h-209.136719c-2.378906-9.164062-7.929688-17.1875-15.664062-22.648438-14.410157-10.046874-34.054688-8.621093-47.628907 1.984376-6.765625-9.234376-15.519531-17.335938-25.636719-22.335938h105.148438v15.386719c0 4.417969 3.855469 7.613281 8.273438 7.613281h80.28125c4.417968 0 8.445312-3.199219 8.445312-7.613281v-15.386719h112zm0 0"/><path d="m368 164.101562v-21.632812c0-23.515625-16.882812-43.230469-39.640625-48.160156 12.675781-4.441406 21.859375-16.246094 21.859375-30.082032 0-17.625-14.710938-31.964843-32.84375-31.964843-18.136719 0-32.867188 14.339843-32.867188 31.964843.035157 13.597657 8.683594 25.671876 21.542969 30.082032-22.761719 4.929687-40.050781 24.644531-40.050781 48.160156v21.632812c0 4.417969 4.050781 7.898438 8.46875 7.898438h85.898438c2.074218.007812 4.0625-.832031 5.5-2.320312 1.441406-1.492188 2.210937-3.507813 2.132812-5.578126zm-67.472656-99.875c0-8.796874 7.578125-15.964843 16.894531-15.964843 9.3125 0 16.886719 7.160156 16.886719 15.964843 0 8.804688-7.578125 15.972657-16.886719 15.972657-9.3125 0-16.894531-7.167969-16.894531-15.972657zm51.472656 91.773438h-70v-13.53125c0-18.394531 15.726562-33.359375 35-33.359375s35 14.964844 35 33.359375zm0 0"/><path d="m107.339844 302.421875c-4.417969 0-8 3.582031-8 8 0 2.117187-1.71875 3.832031-3.832032 3.832031-2.117187 0-3.835937-1.714844-3.835937-3.832031 0-4.417969-3.582031-8-8-8s-8 3.582031-8 8c0 10.953125 8.878906 19.832031 19.835937 19.832031 10.953126 0 19.832032-8.878906 19.832032-19.832031 0-4.417969-3.582032-8-8-8zm0 0"/><path d="m166.5 302.421875c-4.417969 0-8 3.582031-8 8 0 2.117187-1.714844 3.832031-3.832031 3.832031-2.117188 0-3.832031-1.714844-3.832031-3.832031 0-4.417969-3.582032-8-8-8-4.421876 0-8 3.582031-8 8 0 10.953125 8.878906 19.832031 19.832031 19.832031s19.832031-8.878906 19.832031-19.832031c0-4.417969-3.582031-8-8-8zm0 0"/></svg>