<svg height="493pt" viewBox="0 -5 493.00076 493" width="493pt" xmlns="http://www.w3.org/2000/svg"><path d="m438.144531 377h-26.144531v-13.300781c2.96875-2.230469 5.753906-4.691407 8.335938-7.363281 14.503906-14.746094 22.640624-34.597657 22.664062-55.28125v-24.0625c3.214844.871093 6.535156 1.308593 9.867188 1.292968 17.296874-.003906 32.585937-11.234375 37.765624-27.738281 5.179688-16.5-.953124-34.453125-15.144531-44.339844-8.761719-6.066406-19.625-8.285156-30.066406-6.132812-6.414063 1.238281-12.441406 3.984375-17.582031 8.015625-19.761719-27.015625-54.648438-38.265625-86.464844-27.882813-31.820312 10.382813-53.355469 40.046875-53.375 73.515625v47.332032c.066406 20.699218 8.242188 40.546874 22.777344 55.285156 3.425781 3.496094 7.1875 6.648437 11.222656 9.417968v11.242188h-26.277344c-20.351562.015625-39.058594 11.1875-48.722656 29.101562-9.664062-17.914062-28.371094-29.085937-48.722656-29.101562h-26.277344v-13.292969c2.96875-2.230469 5.757812-4.695312 8.335938-7.367187 14.503906-14.746094 22.640624-34.597656 22.664062-55.285156v-24.0625c3.238281.871093 6.582031 1.308593 9.9375 1.292968 2.351562 0 4.703125-.210937 7.019531-.628906 15.761719-2.820312 28.269531-14.855469 31.699219-30.492188 3.429688-15.640624-2.898438-31.804687-16.035156-40.957031-14.414063-10.046875-34.058594-8.699219-47.632813 1.910157-19.773437-27.027344-54.675781-38.289063-86.515625-27.914063-31.84375 10.371094-53.414062 40.03125-53.472656 73.519531v47.332032c.066406 20.699218 8.242188 40.546874 22.777344 55.285156 3.425781 3.496094 7.1875 6.648437 11.222656 9.417968v11.242188h-26.144531c-30.523438 0-55.855469 24.332031-55.855469 54.855469v41.867187c.210938 4.566406 3.929688 8.1875 8.5 8.277344h237.136719c.457031-.003906.914062-.042969 1.363281-.125.449219.082031.90625.121094 1.363281.125h237.136719c4.417969 0 7.5-3.859375 7.5-8.277344v-41.867187c.078125-14.570313-5.675781-28.570313-15.980469-38.875-10.304687-10.304688-24.304687-16.058594-38.875-15.980469zm34.054688-124.828125c-3.523438 5.140625-8.964844 8.648437-15.097657 9.734375-4.78125.898438-9.726562.238281-14.101562-1.886719v-5.019531l32.21875-24.054688c2.453125 7.152344 1.328125 15.042969-3.019531 21.226563zm-23.707031-36.398437c5.660156-1.179688 11.558593-.210938 16.542968 2.722656l-24.199218 18.007812c-1.125-4.925781-2.734376-9.730468-4.800782-14.34375 3.46875-3.253906 7.785156-5.464844 12.457032-6.382812zm-21.765626 35.460937c-6.257812-6.066406-10.921874-13.585937-13.574218-21.886719-.789063-3.164062-3.417969-5.527344-6.644532-5.984375-3.226562-.453125-6.40625 1.09375-8.039062 3.914063-12.03125 20.785156-32.347656 32.5-60.257812 34.824218-11.433594.875-22.929688.285157-34.210938-1.75v-6.628906c.023438-4.433594.523438-8.855468 1.5-13.183594 5.289062.855469 10.636719 1.289063 15.992188 1.285157 4.597656.003906 9.191406-.320313 13.742187-.964844 18.035156-2.578125 42.867187-11.648437 61.929687-39.609375 17.613282 10.652344 28.710938 29.421875 29.558594 49.988281zm-61.273437-58.84375c5.660156 0 11.292969.789063 16.738281 2.339844-23.378906 32-55.542968 32.523437-71.035156 30.515625 10.59375-20.183594 31.5-32.835938 54.296875-32.855469zm-61.453125 108.664063v-24.464844c7.972656 1.277344 16.039062 1.917968 24.113281 1.925781 3.5 0 7.1875-.125 10.949219-.425781 27.464844-2.179688 49.652344-12.671875 64.773438-30.574219 4.398437 7.675781 11.164062 16.945313 23.164062 23.875v29.664063c-.039062 16.519531-6.554688 32.359374-18.144531 44.125-11.308594 11.855468-26.980469 18.566406-43.367188 18.566406-16.382812 0-32.054687-6.710938-43.363281-18.566406-11.585938-11.765626-18.09375-27.609376-18.125-44.125zm61.613281 78.691406c10.464844-.046875 20.808594-2.242188 30.386719-6.460938v6.769532l-29.789062 18.621093-28.210938-18.507812v-5.722657c8.765625 3.570313 18.148438 5.375 27.613281 5.300782zm-133.28125-127.574219c-3.550781 5.144531-9.011719 8.648437-15.167969 9.734375-4.800781.898438-9.765624.238281-14.164062-1.886719v-5.019531l32.285156-24.054688c2.476563 7.140626 1.375 15.035157-2.953125 21.226563zm-7.167969-33.671875-24.199218 18.007812c-1.125-4.933593-2.738282-9.742187-4.8125-14.359374 7.800781-7.414063 19.894531-9.101563 29.011718-3.648438zm-38.304687 32.742188c-6.261719-6.066407-10.921875-13.585938-13.574219-21.890626-.789062-3.160156-3.417968-5.527343-6.644531-5.984374-3.226563-.453126-6.40625 1.09375-8.039063 3.914062-12.035156 20.78125-32.417968 32.5-60.328124 34.824219-11.453126.871093-22.96875.28125-34.273438-1.757813v-6.625c.042969-4.4375.570312-8.859375 1.570312-13.183594 5.300782.855469 10.660157 1.289063 16.03125 1.285157 4.601563.003906 9.195313-.320313 13.753907-.964844 18.035156-2.578125 42.878906-11.648437 61.941406-39.609375 17.613281 10.652344 28.710937 29.421875 29.5625 49.988281zm-61.269531-58.851563c5.660156 0 11.292968.789063 16.734375 2.339844-23.375 32-55.539063 32.519531-71.03125 30.515625 10.59375-20.183594 31.5-32.835938 54.296875-32.855469zm-61.589844 108.664063v-24.464844c7.996094 1.277344 16.082031 1.917968 24.179688 1.925781 3.5 0 7.222656-.125 10.984374-.425781 27.46875-2.179688 49.601563-12.671875 64.71875-30.574219 5.691407 9.6875 13.617188 17.875 23.117188 23.875v29.664063c-.011719 16.507812-6.503906 32.351562-18.078125 44.125-11.3125 11.855468-26.984375 18.566406-43.371094 18.566406-16.390625 0-32.0625-6.710938-43.375-18.566406-11.601562-11.761719-18.125-27.605469-18.175781-44.125zm61.613281 78.691406c10.476563.058594 20.839844-2.144532 30.386719-6.460938v6.769532l-29.789062 18.621093-28.210938-18.507812v-5.722657c8.792969 3.480469 18.160156 5.277344 27.613281 5.300782zm-109.613281 52.109375c0-21.699219 18.15625-38.855469 39.855469-38.855469h31.613281l30.53125 19.5v53.5h-102zm222 34.144531h-104v-53.390625l32.386719-19.609375h31.890625c21.699218 0 39.722656 17.15625 39.722656 38.855469zm18-34.144531c0-21.699219 18.019531-38.855469 39.722656-38.855469h31.613282l30.664062 19.5v53.5h-102zm221 34.144531h-103v-53.390625l32.25-19.609375h31.894531c10.328125-.082031 20.261719 3.984375 27.566407 11.289062 7.304687 7.304688 11.371093 17.238282 11.289062 27.566407zm0 0"/><path d="m355.699219 300.421875c0-4.417969-3.582031-8-8-8s-8 3.582031-8 8c0 2.117187-1.714844 3.832031-3.832031 3.832031-2.117188 0-3.832032-1.714844-3.832032-3.832031 0-4.417969-3.582031-8-8-8-4.417968 0-8 3.582031-8 8 0 10.953125 8.878906 19.832031 19.832032 19.832031 10.953124 0 19.832031-8.878906 19.832031-19.832031zm0 0"/><path d="m395.035156 320.253906c10.949219-.011718 19.820313-8.882812 19.832032-19.832031 0-4.417969-3.578126-8-8-8-4.417969 0-8 3.582031-8 8 0 2.117187-1.714844 3.832031-3.832032 3.832031-2.117187 0-3.832031-1.714844-3.832031-3.832031 0-4.417969-3.582031-8-8-8s-8 3.582031-8 8c.011719 10.949219 8.882813 19.820313 19.832031 19.832031zm0 0"/><path d="m115.839844 300.421875c0-4.417969-3.582032-8-8-8-4.417969 0-8 3.582031-8 8 0 2.117187-1.71875 3.832031-3.832032 3.832031-2.117187 0-3.835937-1.714844-3.835937-3.832031 0-4.417969-3.582031-8-8-8s-8 3.582031-8 8c0 10.953125 8.878906 19.832031 19.835937 19.832031 10.953126 0 19.832032-8.878906 19.832032-19.832031zm0 0"/><path d="m155.171875 320.253906c10.945313-.015625 19.816406-8.886718 19.828125-19.832031 0-4.417969-3.582031-8-8-8s-8 3.582031-8 8c0 2.117187-1.714844 3.832031-3.832031 3.832031-2.117188 0-3.832031-1.714844-3.832031-3.832031 0-4.417969-3.582032-8-8-8-4.421876 0-8 3.582031-8 8 .011718 10.949219 8.886718 19.824219 19.835937 19.832031zm0 0"/><path d="m163.816406 158h53.25l27.652344 44.089844c1.484375 2.300781 4.035156 3.695312 6.773438 3.699218 2.742187.007813 5.296874-1.375 6.789062-3.671874l27.652344-44.117188h53.25c15.464844-.136719 27.902344-12.757812 27.816406-28.21875v-101.503906c0-15.4375-12.378906-28.277344-27.816406-28.277344h-175.367188c-15.4375 0-27.816406 12.839844-27.816406 28.277344v101.5c-.085938 15.464844 12.351562 28.085937 27.816406 28.222656zm-11.816406-129.722656c0-6.613282 5.199219-12.277344 11.816406-12.277344h175.367188c6.617187 0 11.816406 5.664062 11.816406 12.277344v101.5c.097656 6.632812-5.183594 12.09375-11.816406 12.222656h-57.683594c-2.738281-.042969-5.308594 1.335938-6.78125 3.648438l-23.21875 37.058593-23.21875-37.03125c-1.472656-2.316406-4.035156-3.707031-6.78125-3.675781h-57.683594c-6.632812-.128906-11.914062-5.589844-11.816406-12.21875zm0 0"/></svg>