<svg height="504pt" viewBox="0 -2 504.00107 504" width="504pt" xmlns="http://www.w3.org/2000/svg"><path d="m475.382812 0c-14.046874.0117188-26.046874 10.121094-28.445312 23.960938-11.570312 8.636718-56.9375 40.371093-99.9375 40.371093v7.710938-8h-63.480469c-16.863281 0-30.519531 14.007812-30.519531 30.871093v43.707032c0 16.808594 14 30.488281 30 30.578125v76.683593c.070312 2.683594 1.453125 5.164063 3.699219 6.632813 2.253906 1.488281 5.089843 1.78125 7.601562.789063l55.855469-22.582032c2.988281-1.238281 4.914062-4.183594 4.847656-7.421875v-53.765625c42 3.367188 81.515625 31.835938 91.957032 39.929688 2.421874 14.75 15.757812 25.171875 30.652343 23.960937 14.898438-1.207031 26.375-13.644531 26.386719-28.589843v-176.136719c.019531-15.824219-12.792969-28.6757815-28.617188-28.699219zm-176.382812 80.042969h40v73h-40zm-30 58.578125v-43.707032c-.09375-3.792968 1.332031-7.464843 3.960938-10.203124 2.632812-2.738282 6.246093-4.308594 10.039062-4.367188v72.855469c-3.792969-.058594-7.410156-1.632813-10.039062-4.371094-2.628907-2.734375-4.054688-6.410156-3.960938-10.207031zm30 95.414062v-64.992187h40v48.859375zm56-154.007812c37-2.75 73-23.53125 92-36.144532v145.445313c-19-12.722656-54-33.222656-92-35.84375zm133 124.808594c0 6.902343-5.59375 12.5-12.5 12.5-6.902344 0-12.5-5.597657-12.5-12.5v-176.136719c0-6.902344 5.597656-12.5 12.5-12.5 6.90625 0 12.5 5.597656 12.5 12.5zm0 0"/><path d="m213.277344 387.042969h-29.277344v-14.363281c3.292969-2.53125 6.441406-5.242188 9.433594-8.117188 15.640625-15.820312 24.460937-37.140625 24.566406-59.386719v-26.929687c3.664062 1.113281 7.480469 1.652344 11.3125 1.597656 18.421875-.019531 34.699219-11.996094 40.199219-29.578125 5.503906-17.582031-1.042969-36.703125-16.167969-47.222656-9.34375-6.460938-20.925781-8.824219-32.050781-6.53125-7.074219 1.367187-13.699219 4.449219-19.292969 8.984375-20.941406-29.304688-58.4375-41.6875-92.710938-30.617188-34.273437 11.070313-57.445312 43.046875-57.289062 79.066406v51.234376c-.078125 22.1875 8.566406 43.515624 24.066406 59.386718 3.710938 3.734375 7.703125 7.183594 11.933594 10.3125v12.164063h-28.898438c-32.671874 0-59.101562 27.046875-59.101562 59.726562v45.320313c-.0351562 2.097656.777344 4.125 2.253906 5.621094 1.472656 1.496093 3.488282 2.335937 5.585938 2.332031h256.703125c4.417969 0 8.457031-3.535157 8.457031-7.953125v-45.320313c0-32.679687-27.046875-59.726562-59.722656-59.726562zm37.585937-134.40625c-7.488281 10.746093-21.863281 14.148437-32.863281 8.539062v-6.191406l35.886719-26.769531c3.113281 8.136718 1.980469 17.289062-3.023438 24.421875zm-26.511719-40.425781c6.617188-1.382813 13.515626-.109376 19.199219 3.546874l-27.78125 20.675782c-1.25-5.789063-3.117187-11.421875-5.578125-16.808594 3.90625-3.789062 8.824219-6.363281 14.160156-7.414062zm-22.734374 40.601562c-7.441407-6.824219-12.96875-15.476562-16.035157-25.101562-.789062-3.15625-3.417969-5.523438-6.644531-5.976563-3.222656-.453125-6.402344 1.09375-8.035156 3.910156-13.148438 22.707031-35.027344 35.5-65.492188 38.027344-12.503906.980469-25.082031.304687-37.410156-2.011719v-7.714844c-.070312-5.046874.425781-10.089843 1.484375-15.023437 5.835937.992187 11.742187 1.484375 17.660156 1.480469 4.921875.003906 9.839844-.34375 14.714844-1.039063 19.5-2.785156 46.355469-12.625 66.898437-43.101562 20.027344 11.871093 32.464844 33.273437 32.859376 56.546875zm-67.027344-65.929688c6.507812 0 12.984375.953126 19.21875 2.820313-13.628906 19.082031-31.636719 30.417969-53.660156 33.726563-8.386719 1.230468-16.910157 1.277343-25.3125.144531 11.4375-22.492188 34.523437-36.664063 59.753906-36.691407zm-66.589844 118.292969v-27.257812c8.742188 1.484375 17.59375 2.21875 26.460938 2.199219 3.769531 0 7.597656-.136719 11.65625-.457032 29.917968-2.375 53.992187-13.910156 70.257812-33.59375 6.023438 10.992188 14.871094 20.179688 25.625 26.613282v32.496093c-.0625 18.058594-7.207031 35.371094-19.890625 48.222657-12.398437 12.929687-29.519531 20.257812-47.429687 20.300781-17.78125 0-34.40625-7.207031-47.152344-20.300781-12.585938-12.886719-19.597656-30.207032-19.527344-48.222657zm66.5 84.519531c11.574219.058594 23.015625-2.453124 33.5-7.359374v8.722656l-32.863281 20.574218-31.136719-20.457031v-7.53125c9.683594 3.96875 20.039062 6.023438 30.5 6.050781zm-118.5 57.074219c0-23.855469 19.25-43.726562 43.105469-43.726562h34.417969l33.476562 22.410156v58.589844h-111zm241 37.273438h-114v-58.476563l35.5625-22.523437h34.714844c24.0625.207031 43.519531 19.664062 43.722656 43.726562zm0 0"/><path d="m115.375 296.488281c-4.417969 0-8 3.582031-8 8 0 2.65625-2.152344 4.808594-4.808594 4.808594s-4.808594-2.152344-4.808594-4.808594c0-4.417969-3.582031-8-8-8-4.417968 0-8 3.582031-8 8 0 11.492188 9.316407 20.808594 20.808594 20.808594 11.492188 0 20.808594-9.316406 20.808594-20.808594 0-4.417969-3.582031-8-8-8zm0 0"/><path d="m166.613281 325.296875c11.488281-.011719 20.796875-9.320313 20.808594-20.808594 0-4.417969-3.582031-8-8-8s-8 3.582031-8 8c-.035156 2.628907-2.179687 4.742188-4.808594 4.742188-2.628906 0-4.769531-2.113281-4.808593-4.742188 0-4.417969-3.582032-8-8-8-4.417969 0-8 3.582031-8 8 .011718 11.488281 9.320312 20.796875 20.808593 20.808594zm0 0"/></svg>