<svg height="492pt" viewBox="0 -18 492.00294 492" width="492pt" xmlns="http://www.w3.org/2000/svg"><path d="m484.203125 373h-19.203125v-63.78125c13.929688-3.351562 23.269531-16.4375 21.914062-30.699219-1.359374-14.261719-13.003906-25.347656-27.3125-26.007812-14.3125-.660157-26.925781 9.308593-29.59375 23.382812-2.664062 14.078125 5.433594 27.96875 18.992188 32.585938v64.519531h-38v-39.890625c.101562-34.761719-28.003906-63.019531-62.765625-63.109375h-32.234375v-16.742188c3.664062-2.570312 7.03125-5.535156 10.042969-8.847656 16.617187-16.902344 25.9375-39.65625 25.957031-63.359375v-29.699219c4.25 1.214844 8.644531 1.863282 13.066406 1.921876 2.695313 0 5.382813-.238282 8.039063-.707032 17.816406-3.160156 31.976562-16.742187 35.871093-34.414062 3.894532-17.671875-3.246093-35.945313-18.085937-46.300782-9.894531-6.851562-22.164063-9.351562-33.953125-6.917968-7.699219 1.484375-14.894531 4.894531-20.917969 9.917968-22.304687-31.503906-62.425781-44.953124-99.210937-33.261718s-61.78125 45.835937-61.808594 84.433594v55.027343c-.019531 23.691407 9.261719 46.445313 25.847656 63.359375 4.09375 4.203125 9.152344 7.9375 13.152344 11.195313v14.394531h-31.332031c-34.765625 0-62.667969 28.339844-62.667969 63.109375v39.890625h-52.519531c-4.585938.136719-8.285157 3.792969-8.480469 8.375v66.746094c0 4.417968 4.0625 7.878906 8.480469 7.878906h416.722656c2.085937.019531 4.09375-.804688 5.5625-2.289062 1.472656-1.488282 2.277344-3.503907 2.234375-5.589844v-66.746094c0-4.417969-3.378906-8.375-7.796875-8.375zm-25.933594-104.507812c7.050781 0 12.765625 5.714843 12.765625 12.765624 0 7.050782-5.714844 12.765626-12.765625 12.765626-7.046875 0-12.761719-5.714844-12.761719-12.765626.007813-7.046874 5.71875-12.757812 12.761719-12.765624zm-63.269531 64.617187v39.890625h-123v-62.992188l38.789062-24.007812h37.445313c12.449219.039062 24.375 5.023438 33.148437 13.859375 8.773438 8.835937 13.671876 20.796875 13.617188 33.25zm-13.25-248.132813c13.015625 9.070313 16.214844 26.976563 7.140625 39.988282-4.40625 6.273437-11.128906 10.539062-18.679687 11.851562-6.199219 1.082032-12.578126.148438-18.210938-2.65625v-8.136718c.070312-12.765626-2.640625-25.394532-7.941406-37.003907 9.898437-9.996093 26.199218-12.054687 37.691406-4.042969zm-118.25-31.554687c40.058594.058594 72.5 32.546875 72.5 72.601563v.136718c-8.515625-7.5625-14.820312-17.296875-18.246094-28.160156-.757812-3.152344-3.363281-5.523438-6.578125-5.980469-3.210937-.457031-6.375 1.09375-7.980469 3.914063-14.226562 24.570312-38.183593 38.410156-71.121093 41.136718-13.730469 1.035157-27.539063.277344-41.074219-2.261718v-8.785156c0-40.054688 32.445312-72.542969 72.5-72.601563zm-72.5 127.628906v-29.972656c9.6875 1.636719 19.492188 2.460937 29.316406 2.46875 4.035156 0 8.296875-.144531 12.636719-.492187 32.300781-2.5625 57.9375-15.113282 75.3125-36.535157 6.496094 12.042969 16.066406 22.152344 27.734375 29.296875v35.234375c.066406 19.503907-7.539062 38.25-21.171875 52.199219-13.347656 14.035156-31.863281 21.980469-51.230469 21.980469-19.367187 0-37.886718-7.945313-51.234375-21.980469-13.683593-13.929688-21.355469-32.671875-21.363281-52.199219zm72.390625 90.175781c12.667969.054688 25.183594-2.761718 36.609375-8.234374v10.617187l-35.933594 22.46875-34.066406-22.355469v-9.277344c10.574219 4.4375 21.921875 6.742188 33.390625 6.78125zm-127.390625 61.882813c-.074219-12.441406 4.804688-24.402344 13.5625-33.238281 8.753906-8.839844 20.667969-13.828125 33.105469-13.871094h37.136719l36.195312 23.894531v63.105469h-120zm340 106.890625h-401v-51h50.117188c.789062 1 1.625.402344 2.5.402344.878906 0 1.710937.597656 2.5-.402344h270.675781c.785156 1 1.621093.402344 2.5.402344.875 0 1.710937.597656 2.5-.402344h48.101562c.957031 1 2.011719.628906 3.113281.628906 1.101563 0 2.152344.371094 3.109376-.628906h15.882812zm0 0"/><path d="m243.101562 172.3125c-4.417968 0-8 3.582031-8 8 0 3.179688-2.578124 5.757812-5.757812 5.757812-3.175781 0-5.753906-2.578124-5.753906-5.757812 0-4.417969-3.582032-8-8-8-4.417969 0-8 3.582031-8 8 0 12.015625 9.738281 21.757812 21.753906 21.757812s21.757812-9.742187 21.757812-21.757812c0-4.417969-3.582031-8-8-8zm0 0"/><path d="m298.121094 202.070312c12.011718-.015624 21.742187-9.746093 21.757812-21.757812 0-4.417969-3.582031-8-8-8-4.417968 0-8 3.582031-8 8 0 3.179688-2.578125 5.757812-5.757812 5.757812-3.175782 0-5.753906-2.578124-5.753906-5.757812 0-4.417969-3.582032-8-8-8-4.417969 0-8 3.582031-8 8 .011718 12.011719 9.746093 21.742188 21.753906 21.757812zm0 0"/><path d="m115.148438 154.027344c1.449218 1.304687 3.316406 2.042968 5.261718 2.085937 1.070313.015625 2.132813-.210937 3.101563-.664062 2.804687-1.296875 4.570312-4.136719 4.488281-7.226563v-33.222656h31.335938c2.039062.089844 4.023437-.675781 5.476562-2.109375s2.246094-3.40625 2.1875-5.445313v-99.5625c.074219-2.074218-.707031-4.085937-2.152344-5.574218-1.445312-1.488282-3.4375-2.3203128-5.511718-2.308594h-151.535157c-2.089843-.015625-4.09375.808594-5.566406 2.292969-1.46875 1.488281-2.2734375 3.503906-2.234375 5.589843v99.5625c-.0273438 2.054688.792969 4.03125 2.269531 5.460938 1.476563 1.429688 3.476563 2.1875 5.53125 2.09375h62.882813zm-99.148438-138.027344h135v83h-30.589844c-4.582031.175781-8.253906 3.859375-8.410156 8.445312v23.175782l-33.261719-29.425782c-1.359375-1.328124-3.15625-2.109374-5.054687-2.195312h-57.683594zm0 0"/></svg>