<svg height="502pt" viewBox="-33 0 502 502" width="502pt" xmlns="http://www.w3.org/2000/svg"><path d="m415 149.039062c0-4.417968-4.078125-8.039062-8.5-8.039062h-90.613281c-2.160157-7.945312-7.066407-14.867188-13.851563-19.535156-12.558594-8.757813-29.558594-7.808594-41.632812 1.039062-12.839844-17.03125-32.925782-27.046875-54.253906-27.054687-29.640626 0-54.898438 19.550781-64.203126 45.550781h-133.585937c-4.496094-.007812-8.191406 3.546875-8.359375 8.039062v285.785157c.15625 4.523437 3.835938 8.121093 8.359375 8.175781h130.15625l-14.082031 43h-26.546875c-4.421875 0-8 3.582031-8 8s3.578125 8 8 8h219.089843c4.417969 0 8-3.582031 8-8s-3.582031-8-8-8h-26.546874l-14.082032-43h130.152344c4.417969 0 8.5-3.757812 8.5-8.175781zm-114.128906-1.953124c.910156 5.066406-.242188 10.285156-3.199219 14.5-2.953125 4.214843-7.46875 7.078124-12.542969 7.949218-3.753906.644532-7.613281.203125-11.128906-1.265625v-3.121093l26.429688-19.601563c.132812.507813.351562 1.015625.441406 1.539063zm-128.046875 137.914062 26.175781 16.566406v44.433594h-86v-28.25c-.035156-8.699219 3.410156-17.050781 9.5625-23.203125 6.15625-6.148437 14.507812-9.585937 23.210938-9.546875zm42.175781 16.679688 26.78125-16.679688h27.308594c8.714844-.042969 17.085937 3.386719 23.261718 9.535156 6.179688 6.144532 9.652344 14.5 9.648438 23.214844v28.25h-87zm16-29.378907-24.671875 15.445313-23.328125-15.332032v-2.800781c7.289062 2.730469 15.015625 4.113281 22.800781 4.082031 8.8125 0 18.199219-1.738281 25.199219-5.035156zm11.777344-30.355469c-9.5625 10.058594-22.835938 15.753907-36.714844 15.753907s-27.148438-5.695313-36.710938-15.753907c-9.828124-9.992187-15.339843-23.441406-15.351562-37.453124v-19.933594c6.5625.992187 13.1875 1.488281 19.824219 1.488281 3.054687 0 6.277343-.109375 9.554687-.371094 23.5-1.863281 42.421875-10.683593 55.660156-25.714843 4.734376 7.855468 11.222657 14.511718 18.960938 19.4375v25.089843c.035156 14-5.429688 27.453125-15.222656 37.460938zm47.585937-108.78125-18.269531 13.59375c-.898438-3.523437-2.082031-6.972656-3.535156-10.308593 5.972656-5.320313 14.527344-6.609375 21.804687-3.285157zm-32.425781 25.34375c-4.28125-4.71875-7.503906-10.296874-9.445312-16.367187-.792969-3.160156-3.421876-5.527344-6.648438-5.980469-3.222656-.453125-6.402344 1.09375-8.035156 3.914063-10.226563 17.65625-27.519532 27.621093-51.289063 29.617187-9.523437.734375-19.105469.28125-28.519531-1.347656v-4.835938c.019531-3.425781.378906-6.84375 1.066406-10.199218 4.316406.644531 8.671875.96875 13.035156.96875 4.027344.003906 8.046876-.277344 12.035157-.84375 15.648437-2.238282 37.125-10.042969 53.765625-33.898438 13.597656 8.582032 22.46875 22.964844 24.035156 38.972656zm-51.789062-47.035156c4.285156 0 8.550781.527344 12.703124 1.574219-19.070312 25-44.539062 26.339844-58 24.921875 9.21875-16.355469 26.527344-26.476562 45.296876-26.496094zm-190.148438 45.527344h122.429688c-.199219 2-.429688 4.324219-.429688 6.507812v40.984376c-.027344 18.175781 7.085938 35.636718 19.808594 48.617187 2.882812 2.851563 5.953125 5.511719 9.191406 7.953125v7.9375h-21.226562c-12.941407-.035156-25.363282 5.089844-34.519532 14.238281-9.152344 9.152344-14.28125 21.570313-14.253906 34.511719v36.25c-.054688 2.097656.738281 4.128906 2.199219 5.632812 1.460937 1.503907 3.46875 2.359376 5.566406 2.367188h205.335937c2.109376-.003906 4.132813-.851562 5.613282-2.355469 1.484375-1.5 2.308594-3.535156 2.285156-5.644531v-36.25c-.003906-12.957031-5.160156-25.378906-14.339844-34.523438-9.175781-9.148437-21.613281-14.265624-34.570312-14.226562h-22.089844v-9.746094c2.589844-1.734375 4.9375-3.800781 6.992188-6.144531 12.777343-12.960937 19.960937-30.417969 20.007812-48.617187v-19.480469c2.519531.523437 5.082031.804687 7.652344.835937 2.125 0 4.246094-.1875 6.335937-.558594 9.25-1.632812 17.460938-6.890624 22.8125-14.605468 2.894531-4.089844 4.863281-8.757813 5.769531-13.683594h82.429688v212h-383zm257.601562 329h-132.335937l14.078125-43h104.175781zm125.398438-59h-383v-42h383zm0 0"/><path d="m190.78125 195.941406c-4.417969 0-8 3.582032-8 8-.027344 1.222656-1.023438 2.199219-2.246094 2.199219s-2.21875-.976563-2.246094-2.199219c0-4.417968-3.582031-8-8-8-4.417968 0-8 3.582032-8 8 .074219 10.027344 8.222657 18.113282 18.246094 18.113282 10.023438 0 18.171875-8.085938 18.246094-18.113282 0-4.417968-3.582031-8-8-8zm0 0"/><path d="m242.011719 195.941406c-4.417969 0-8 3.582032-8 8-.027344 1.222656-1.023438 2.199219-2.246094 2.199219s-2.21875-.976563-2.246094-2.199219c0-4.417968-3.582031-8-8-8s-8 3.582032-8 8c.074219 10.027344 8.222657 18.113282 18.246094 18.113282s18.171875-8.085938 18.246094-18.113282c0-4.417968-3.582031-8-8-8zm0 0"/><path d="m414.601562 0h-114.339843c-11.65625-.00390625-21.144531 9.382812-21.261719 21.039062v66.179688c0 11.597656 9.660156 20.78125 21.261719 20.78125h29.738281v23.523438c-.027344 3.066406 1.710938 5.871093 4.46875 7.210937 1.070312.519531 2.242188.792969 3.433594.789063 1.824218-.046876 3.578125-.707032 4.980468-1.878907l36.917969-29.644531h34.800781c11.597657 0 21.398438-9.179688 21.398438-20.78125v-66.179688c0-11.601562-9.800781-21.039062-21.398438-21.039062zm5.398438 87.21875c0 2.78125-2.621094 4.78125-5.398438 4.78125h-37.613281c-1.808593.046875-3.546875.710938-4.929687 1.878906l-26.058594 21.011719v-14.632813c-.039062-4.492187-3.636719-8.148437-8.128906-8.257812h-37.609375c-2.773438.132812-5.128907-2.007812-5.261719-4.78125v-66.179688c.109375-2.824218 2.4375-5.054687 5.261719-5.039062h114.339843c2.851563-.023438 5.226563 2.191406 5.398438 5.039062zm0 0"/></svg>