<?xml version="1.0" encoding="iso-8859-1"?>
<!-- Generator: Adobe Illustrator 19.0.0, SVG Export Plug-In . SVG Version: 6.00 Build 0)  -->
<svg version="1.1" id="Capa_1" xmlns="http://www.w3.org/2000/svg" xmlns:xlink="http://www.w3.org/1999/xlink" x="0px" y="0px"
	 viewBox="0 0 512 512" style="enable-background:new 0 0 512 512;" xml:space="preserve">
<g>
	<g>
		<g>
			<path d="M341.333,127.999c11.776,0,21.333-9.557,21.333-21.333s-9.557-21.333-21.333-21.333S320,94.89,320,106.666
				S329.557,127.999,341.333,127.999z"/>
			<path d="M425.301,442.367l-36.565-14.634c62.592-43.072,101.93-114.816,101.93-193.067C490.666,105.28,385.386,0,256,0
				S21.333,105.28,21.333,234.666c0,78.251,39.339,149.995,101.93,193.067l-36.586,14.634C72.896,447.872,64,461.013,64,475.946
				C64,495.828,80.17,512,100.053,512h311.893c19.861,0,36.053-16.171,36.032-36.16
				C447.979,461.013,439.083,447.872,425.301,442.367z M411.925,490.666L411.925,490.666l-311.871,0
				c-8.107,0-14.72-6.592-14.72-14.805c0-6.08,3.627-11.435,9.258-13.674l51.392-20.566c10.154,5.398,20.736,10.134,31.786,14.059
				c5.61,1.962,11.648-0.917,13.632-6.486c1.941-5.546-0.96-11.648-6.507-13.61C99.84,405.461,42.666,324.735,42.666,234.666
				c0-117.632,95.701-213.333,213.333-213.333s213.333,95.701,213.333,213.333c0,90.069-57.174,170.795-142.229,200.938
				c-5.547,1.963-8.469,8.064-6.507,13.61c1.579,4.374,5.674,7.104,10.07,7.104c1.195,0,2.368-0.214,3.563-0.618
				c11.05-3.925,21.654-8.661,31.786-14.059l51.37,20.544c5.632,2.24,9.259,7.595,9.259,13.76
				C426.645,484.052,420.053,490.666,411.925,490.666z"/>
			<path d="M384,255.999c0-70.592-57.408-128-128-128s-128,57.408-128,128s57.408,128,128,128S384,326.591,384,255.999z
				 M256,362.666c-58.816,0-106.667-47.851-106.667-106.667S197.184,149.333,256,149.333s106.667,47.851,106.667,106.667
				S314.816,362.666,256,362.666z"/>
			<path d="M256,170.666c-47.062,0-85.333,38.272-85.333,85.333s38.272,85.334,85.333,85.334s85.333-38.272,85.333-85.334
				S303.061,170.666,256,170.666z M256,320c-35.286,0-64-28.714-64-64s28.714-64,64-64s64,28.714,64,64S291.285,320,256,320z"/>
		</g>
	</g>
</g>
<g>
</g>
<g>
</g>
<g>
</g>
<g>
</g>
<g>
</g>
<g>
</g>
<g>
</g>
<g>
</g>
<g>
</g>
<g>
</g>
<g>
</g>
<g>
</g>
<g>
</g>
<g>
</g>
<g>
</g>
</svg>
