<?xml version="1.0" encoding="iso-8859-1"?>
<!-- Generator: Adobe Illustrator 19.0.0, SVG Export Plug-In . SVG Version: 6.00 Build 0)  -->
<svg version="1.1" id="Capa_1" xmlns="http://www.w3.org/2000/svg" xmlns:xlink="http://www.w3.org/1999/xlink" x="0px" y="0px"
	 viewBox="0 0 512 512" style="enable-background:new 0 0 512 512;" xml:space="preserve">
<g>
	<g>
		<g>
			<path d="M234.667,469.333h42.667c5.888,0,10.667-4.779,10.667-10.667S283.221,448,277.333,448h-42.667
				c-5.888,0-10.667,4.779-10.667,10.667S228.779,469.333,234.667,469.333z"/>
			<path d="M128,42.667c-5.888,0-10.667,4.779-10.667,10.667S122.112,64,128,64s10.667-4.779,10.667-10.667
				S133.888,42.667,128,42.667z"/>
			<path d="M384,0H128C98.603,0,74.667,23.936,74.667,53.333v405.333C74.667,488.064,98.603,512,128,512h256
				c29.397,0,53.333-23.936,53.333-53.333V53.333C437.333,23.936,413.397,0,384,0z M416,458.667c0,17.643-14.357,32-32,32H128
				c-17.643,0-32-14.357-32-32v-32h320V458.667z M224.213,304.811c-12.395-11.605-20.565-28.608-21.909-45.504
				c-0.448-5.525-7.189-9.813-12.757-9.813c-1.173,0-2.155-0.875-2.304-2.027l-2.688-27.797l3.093-0.789
				c3.072,0,5.973-1.301,8-3.605c2.027-2.283,2.965-5.333,2.581-8.384c-0.832-6.571-2.987-24.981-2.987-31.125
				c0-16.085,0-34.304,47.872-34.773c2.197-0.021,4.331-0.704,6.101-1.984C264.576,128,281.856,128,290.155,128
				c17.003,0,28.395,4.8,34.837,14.656c7.317,11.157,4.437,15.829,1.387,19.072l-6.507,6.507c-1.877,1.877-2.987,4.373-3.115,7.019
				l-1.579,32.491c-0.128,2.88,2.048,6.997,4.032,9.109c2.005,2.112,5.888,4.629,8.789,4.651l-3.243,25.984
				c-0.149,1.152-1.152,2.027-2.944,2.027c-5.568,0-10.197,4.267-10.645,9.813c-1.365,17.152-10.155,34.923-22.955,46.421
				c-2.944,2.624-4.181,6.677-3.221,10.517l6.101,24.405c0.96,3.819,3.947,6.827,7.765,7.765l53.525,13.376
				c21.355,5.333,37.205,22.528,41.259,43.52l-275.285-0.021c4.053-20.992,19.883-38.165,41.259-43.541l53.525-13.376
				c3.819-0.96,6.827-3.947,7.765-7.765l6.357-25.451C228.203,311.424,227.029,307.456,224.213,304.811z M416,405.333h-0.875
				c-4.267-30.827-26.645-56.491-57.557-64.213l-47.296-11.84l-3.072-12.245c12.459-13.035,21.12-30.208,24.235-47.979
				c7.701-3.157,13.419-10.261,14.507-18.944l3.243-25.984c0.832-6.656-1.216-13.376-5.632-18.432
				c-1.899-2.176-4.16-3.947-6.635-5.291l0.96-20.011l3.819-3.819c6.827-7.275,16.043-22.848,1.152-45.611
				c-7.275-11.072-22.293-24.299-52.693-24.299c-9.259,0-30.4,0-50.517,13.056c-58.176,1.621-65.728,30.699-65.728,56.043
				c0,5.355,1.109,16.192,2.005,24.192c-2.752,1.365-5.269,3.264-7.339,5.611c-4.48,5.077-6.592,11.861-5.739,18.581l3.243,25.984
				c1.109,8.896,7.125,16.149,16.021,19.179c3.072,17.088,11.285,33.728,23.019,46.528l-3.349,13.44l-47.317,11.84
				c-30.912,7.723-53.269,33.365-57.557,64.213H96v-352c0-17.643,14.357-32,32-32h256c17.643,0,32,14.357,32,32V405.333z"/>
		</g>
	</g>
</g>
<g>
</g>
<g>
</g>
<g>
</g>
<g>
</g>
<g>
</g>
<g>
</g>
<g>
</g>
<g>
</g>
<g>
</g>
<g>
</g>
<g>
</g>
<g>
</g>
<g>
</g>
<g>
</g>
<g>
</g>
</svg>
