<?xml version="1.0" encoding="iso-8859-1"?>
<!-- Generator: Adobe Illustrator 19.0.0, SVG Export Plug-In . SVG Version: 6.00 Build 0)  -->
<svg version="1.1" id="Capa_1" xmlns="http://www.w3.org/2000/svg" xmlns:xlink="http://www.w3.org/1999/xlink" x="0px" y="0px"
	 viewBox="0 0 512 512" style="enable-background:new 0 0 512 512;" xml:space="preserve">
<g>
	<g>
		<g>
			<path d="M277.333,42.667h-42.667c-5.888,0-10.667,4.779-10.667,10.667S228.779,64,234.667,64h42.667
				C283.221,64,288,59.221,288,53.333S283.221,42.667,277.333,42.667z"/>
			<path d="M341.76,42.667h-0.213c-5.888,0-10.56,4.779-10.56,10.667S335.872,64,341.76,64c5.888,0,10.667-4.779,10.667-10.667
				S347.648,42.667,341.76,42.667z"/>
			<path d="M256,469.333c11.776,0,21.333-9.557,21.333-21.333s-9.557-21.333-21.333-21.333s-21.333,9.557-21.333,21.333
				S244.224,469.333,256,469.333z"/>
			<path d="M341.333,0H170.667C129.493,0,96,33.493,96,74.667v362.667C96,478.507,129.493,512,170.667,512h170.667
				C382.507,512,416,478.507,416,437.333V74.667C416,33.493,382.507,0,341.333,0z M394.667,437.333
				c0,29.397-23.936,53.333-53.333,53.333H170.667c-29.397,0-53.333-23.936-53.333-53.333v-32h277.333V437.333z M229.781,298.24
				c-10.347-9.707-17.195-23.915-18.304-38.016c-0.448-5.525-5.077-9.813-10.645-9.813l-2.261-0.405l-1.173-22.784
				c3.072,0,5.973-1.301,8-3.605c2.027-2.283,2.965-5.333,2.581-8.384c-0.981-7.808-2.539-21.888-2.539-26.496
				c0-13.717,0-27.904,39.531-28.288c2.176-0.021,4.331-0.704,6.101-1.984c12.779-9.152,27.264-9.152,34.219-9.152
				c13.995,0,23.339,3.883,28.587,11.883c6.123,9.387,3.136,12.565,1.365,14.443l-5.568,5.568c-1.877,1.877-2.987,4.373-3.115,7.019
				l-1.344,27.861c-0.149,2.901,1.131,5.973,3.115,8.085s4.971,3.584,7.872,3.605l-3.776,22.677c-5.568,0-10.197,4.267-10.645,9.813
				c-1.131,14.315-8.491,29.184-19.179,38.763c-2.944,2.624-4.181,6.677-3.221,10.517l5.227,20.907
				c0.96,3.819,3.947,6.827,7.765,7.765l45.867,11.477c17.109,4.288,29.952,17.707,33.856,34.304l-232.192-0.021
				c3.904-16.576,16.747-29.995,33.835-34.304l45.867-11.477c3.819-0.96,6.827-3.947,7.765-7.765l5.461-21.824
				C233.771,304.853,232.597,300.885,229.781,298.24z M394.667,384h-0.939c-4.181-26.432-23.68-48.299-50.347-54.976l-39.659-9.92
				l-2.197-8.811c10.368-11.093,17.643-25.536,20.437-40.491c6.699-3.072,11.627-9.429,12.587-17.131l2.773-22.251
				c0.768-6.144-1.131-12.352-5.184-17.003c-1.536-1.749-3.328-3.221-5.269-4.395l0.768-15.637l2.88-2.88
				c6.165-6.549,14.507-20.587,1.152-40.981C325.248,139.712,311.979,128,285.248,128c-8.021,0-26.283,0-43.776,11.2
				c-50.773,1.557-57.387,27.2-57.387,49.557c0,4.416,0.853,13.099,1.621,19.883c-2.155,1.173-4.117,2.752-5.803,4.651
				c-4.139,4.693-6.08,10.923-5.291,17.131l2.773,22.251c1.003,7.936,6.208,14.443,13.909,17.387
				c2.752,14.357,9.643,28.288,19.392,39.168l-2.453,9.856l-39.659,9.92c-26.645,6.677-46.144,28.544-50.347,54.997h-0.896V106.667
				h277.333V384z M394.667,85.333H117.333V74.667c0-29.397,23.936-53.333,53.333-53.333h170.667
				c29.397,0,53.333,23.936,53.333,53.333V85.333z"/>
		</g>
	</g>
</g>
<g>
</g>
<g>
</g>
<g>
</g>
<g>
</g>
<g>
</g>
<g>
</g>
<g>
</g>
<g>
</g>
<g>
</g>
<g>
</g>
<g>
</g>
<g>
</g>
<g>
</g>
<g>
</g>
<g>
</g>
</svg>
