<?xml version="1.0" encoding="iso-8859-1"?>
<!-- Generator: Adobe Illustrator 19.0.0, SVG Export Plug-In . SVG Version: 6.00 Build 0)  -->
<svg version="1.1" id="Capa_1" xmlns="http://www.w3.org/2000/svg" xmlns:xlink="http://www.w3.org/1999/xlink" x="0px" y="0px"
	 viewBox="0 0 490.666 490.666" style="enable-background:new 0 0 490.666 490.666;" xml:space="preserve">
<g>
	<g>
		<g>
			<path d="M489.39,346.965c-1.835-3.456-5.44-5.632-9.387-5.632h-32V96c0-17.643-14.357-32-32-32H74.67c-17.643,0-32,14.357-32,32
				v245.333h-32c-3.925,0-7.531,2.155-9.387,5.632c-1.877,3.456-1.685,7.68,0.512,10.944l23.659,35.499
				c13.888,20.821,37.099,33.259,62.123,33.259h315.52c25.003,0,48.213-12.437,62.123-33.259l23.659-35.499
				C491.054,354.645,491.267,350.442,489.39,346.965z M64.003,96c0-5.888,4.8-10.667,10.667-10.667h341.333
				c5.867,0,10.667,4.779,10.667,10.667v245.333h-65.003c-4.096-22.08-20.608-40.171-43.008-45.781l-32.021-8l-1.344-5.355
				c8.299-9.173,14.208-20.885,16.661-33.045c5.696-2.944,9.813-8.533,10.667-15.253l2.304-18.56
				c0.704-5.632-1.024-11.307-4.757-15.573c-1.152-1.301-2.475-2.453-3.883-3.413l0.533-11.328l1.941-1.941
				c5.504-5.845,12.949-18.325,1.173-36.331C304.345,138.197,292.825,128,269.742,128c-6.805,0-22.144,0-37.035,9.323
				c-43.904,1.557-49.067,25.216-49.067,43.072c0,3.52,0.64,10.112,1.237,15.616c-1.579,1.003-3.029,2.24-4.288,3.669
				c-3.797,4.309-5.547,10.005-4.821,15.659l2.304,18.56c0.875,6.955,5.291,12.715,11.797,15.552
				c2.389,11.627,7.979,22.891,15.765,31.829l-1.557,6.272l-32.021,8c-22.4,5.611-38.912,23.701-43.008,45.781H64.003V96z
				 M224.75,270.336c-8.299-7.808-13.803-19.221-14.699-30.528c-0.448-5.525-5.184-8.597-10.752-8.597l-2.752-16.981
				c3.072,0,5.973-1.301,8-3.605c2.027-2.283,2.965-5.333,2.581-8.384c-0.811-6.443-2.112-18.091-2.112-21.845
				c0-11.051,0-21.483,31.189-21.803c2.176-0.021,4.309-0.704,6.101-1.984c10.155-7.275,21.845-7.275,27.456-7.275
				c11.029,0,18.325,2.965,22.336,9.088c4.331,6.635,2.56,8.512,1.365,9.813l-4.629,4.629c-1.877,1.877-2.987,4.373-3.115,7.019
				l-1.131,23.211c-0.128,2.901,0.213,4.928,2.197,7.04c2.005,2.112,4.053,2.539,6.955,2.56l-1.365,17.344
				c-5.568,0-10.176,4.267-10.624,9.813c-0.939,11.499-6.848,23.424-15.424,31.125c-2.923,2.624-4.181,6.677-3.221,10.517
				l4.352,17.429c0.96,3.819,3.925,6.827,7.765,7.765l38.229,9.557c12.843,3.221,22.656,12.907,26.325,25.088l-188.885-0.021
				c3.669-12.16,13.504-21.845,26.389-25.088l38.229-9.557c3.819-0.96,6.805-3.947,7.765-7.765l4.544-18.197
				C228.761,276.949,227.587,272.981,224.75,270.336z M447.47,381.589c-9.92,14.869-26.496,23.744-44.373,23.744H87.598
				c-17.877,0-34.453-8.875-44.373-23.744l-12.608-18.923h429.44L447.47,381.589z"/>
			<path d="M245.337,128c5.888,0,10.667-4.779,10.667-10.667s-4.779-10.667-10.667-10.667s-10.667,4.779-10.667,10.667
				S239.449,128,245.337,128z"/>
		</g>
	</g>
</g>
<g>
</g>
<g>
</g>
<g>
</g>
<g>
</g>
<g>
</g>
<g>
</g>
<g>
</g>
<g>
</g>
<g>
</g>
<g>
</g>
<g>
</g>
<g>
</g>
<g>
</g>
<g>
</g>
<g>
</g>
</svg>
