<?xml version="1.0" encoding="iso-8859-1"?>
<!-- Generator: Adobe Illustrator 19.0.0, SVG Export Plug-In . SVG Version: 6.00 Build 0)  -->
<svg version="1.1" id="Capa_1" xmlns="http://www.w3.org/2000/svg" xmlns:xlink="http://www.w3.org/1999/xlink" x="0px" y="0px"
	 viewBox="0 0 512 512" style="enable-background:new 0 0 512 512;" xml:space="preserve">
<g>
	<g>
		<g>
			<path d="M181.333,469.333H224c5.888,0,10.667-4.779,10.667-10.667S229.888,448,224,448h-42.667
				c-5.888,0-10.667,4.779-10.667,10.667S175.445,469.333,181.333,469.333z"/>
			<path d="M64,53.333C64,59.221,68.779,64,74.667,64s10.667-4.779,10.667-10.667s-4.779-10.667-10.667-10.667S64,47.445,64,53.333z
				"/>
			<path d="M485.056,150.592c-3.477-1.856-7.68-1.643-10.965,0.533l-47.424,31.616V160c0-5.888-4.779-10.667-10.667-10.667H266.667
				c-31.104,0-32,76.608-32,85.333s0.896,85.333,32,85.333H416c5.888,0,10.667-4.779,10.667-10.667v-22.741l47.424,31.616
				c1.792,1.195,3.84,1.792,5.909,1.792c1.728,0,3.456-0.427,5.035-1.259c3.456-1.856,5.632-5.461,5.632-9.408V160
				C490.667,156.053,488.491,152.448,485.056,150.592z M469.333,289.408l-47.403-31.616c-3.307-2.176-7.488-2.389-10.965-0.533
				c-3.456,1.856-5.632,5.461-5.632,9.408v32.021l-136.747,0.448C264.341,296.085,256,273.344,256,234.667
				c0-38.677,8.341-61.419,10.667-64h138.667v32c0,3.947,2.176,7.552,5.611,9.408c3.477,1.856,7.68,1.643,10.965-0.533
				l47.424-31.616V289.408z"/>
			<path d="M373.333,341.333c-5.888,0-10.667,4.779-10.667,10.667v53.333h-320v-352c0-17.643,14.357-32,32-32h256
				c17.643,0,32,14.357,32,32v64c0,5.888,4.779,10.667,10.667,10.667c5.888,0,10.667-4.779,10.667-10.667v-64
				C384,23.936,360.085,0,330.667,0h-256C45.248,0,21.333,23.936,21.333,53.333v405.333c0,29.397,23.915,53.333,53.333,53.333h256
				C360.085,512,384,488.064,384,458.667V352C384,346.112,379.221,341.333,373.333,341.333z M362.667,458.667
				c0,17.643-14.357,32-32,32h-256c-17.643,0-32-14.357-32-32v-32h320V458.667z"/>
		</g>
	</g>
</g>
<g>
</g>
<g>
</g>
<g>
</g>
<g>
</g>
<g>
</g>
<g>
</g>
<g>
</g>
<g>
</g>
<g>
</g>
<g>
</g>
<g>
</g>
<g>
</g>
<g>
</g>
<g>
</g>
<g>
</g>
</svg>
