<?xml version="1.0" encoding="iso-8859-1"?>
<!-- Generator: Adobe Illustrator 19.0.0, SVG Export Plug-In . SVG Version: 6.00 Build 0)  -->
<svg version="1.1" id="Capa_1" xmlns="http://www.w3.org/2000/svg" xmlns:xlink="http://www.w3.org/1999/xlink" x="0px" y="0px"
	 viewBox="0 0 512 512" style="enable-background:new 0 0 512 512;" xml:space="preserve">
<g>
	<g>
		<g>
			<path d="M256,469.333c11.776,0,21.333-9.557,21.333-21.333s-9.557-21.333-21.333-21.333c-11.776,0-21.333,9.557-21.333,21.333
				S244.202,469.333,256,469.333z"/>
			<path d="M36.886,161.045L36.886,161.045c-5.568-1.856-11.627,1.152-13.504,6.742c-8.448,25.258-12.715,51.349-12.715,77.547
				s4.267,52.288,12.694,77.547c1.514,4.48,5.674,7.296,10.133,7.296c1.13,0,2.261-0.192,3.392-0.598
				c5.568-1.856,8.598-7.893,6.742-13.482c-7.701-23.083-11.626-46.912-11.626-70.784s3.925-47.68,11.626-70.784
				C45.483,168.96,42.454,162.901,36.886,161.045z"/>
			<path d="M341.333,0H170.667C129.493,0,96,33.494,96,74.667v362.667C96,478.506,129.494,512,170.667,512h170.666
				C382.507,512,416,478.506,416,437.333V74.667C416,33.493,382.506,0,341.333,0z M394.666,437.333
				c0,29.398-23.914,53.333-53.333,53.333H170.666c-29.419,0-53.333-23.936-53.333-53.333v-32h277.333V437.333z M394.666,384
				H117.333V106.667h277.333V384z M394.666,85.333H117.333V74.667c0-29.397,23.914-53.333,53.333-53.333h170.666
				c29.419,0,53.333,23.936,53.333,53.333V85.333z"/>
			<path d="M74.667,245.354c0-19.307,3.158-38.592,9.387-57.323c1.834-5.568-1.174-11.626-6.742-13.482
				c-5.654-1.834-11.648,1.152-13.504,6.763c-6.976,20.885-10.474,42.453-10.474,64.042s3.52,43.158,10.474,64.042
				c1.515,4.48,5.654,7.296,10.134,7.296c1.13,0,2.24-0.192,3.37-0.534c5.568-1.856,8.597-7.893,6.742-13.482
				C77.824,283.946,74.667,264.661,74.667,245.354z"/>
			<path d="M488.618,167.829L488.618,167.829c-1.878-5.589-7.936-8.597-13.504-6.741c-5.568,1.856-8.598,7.893-6.742,13.482
				c7.702,23.083,11.627,46.912,11.627,70.784s-3.926,47.68-11.627,70.784c-1.856,5.568,1.152,11.627,6.742,13.482
				c1.13,0.384,2.24,0.555,3.37,0.555c4.458,0,8.619-2.837,10.133-7.253c8.448-25.258,12.715-51.349,12.715-77.547
				C501.333,219.179,497.066,193.088,488.618,167.829z"/>
			<path d="M341.76,42.667h-0.214c-5.888,0-10.56,4.779-10.56,10.667S335.893,64,341.76,64c5.888,0,10.667-4.779,10.667-10.667
				S347.648,42.667,341.76,42.667z"/>
			<path d="M170.666,320h128c5.888,0,10.667-4.779,10.667-10.667v-14.742l48.555,24.278c1.493,0.746,3.157,1.13,4.779,1.13
				c1.962,0,3.904-0.534,5.589-1.6c3.136-1.942,5.056-5.376,5.056-9.067v-128c0-3.69-1.92-7.125-5.056-9.067
				c-3.136-1.941-7.062-2.133-10.368-0.469l-48.555,24.278v-14.742c0-5.888-4.779-10.667-10.667-10.667h-128
				c-22.102,0-32,37.504-32,74.667S148.565,320,170.666,320z M170.666,192L170.666,192L288,192v21.333
				c0,3.69,1.92,7.125,5.056,9.067c3.094,1.92,7.062,2.112,10.368,0.469l48.555-24.278v93.483l-48.555-24.278
				c-3.307-1.664-7.254-1.472-10.368,0.469c-3.136,1.942-5.056,5.376-5.056,9.067v21.354l-116.054,0.256
				C168.448,296.81,160,278.357,160,245.333S168.448,193.855,170.666,192z"/>
			<path d="M277.333,42.667h-42.666c-5.888,0-10.667,4.779-10.667,10.667S228.779,64,234.667,64h42.666
				C283.221,64,288,59.221,288,53.333S283.221,42.667,277.333,42.667z"/>
			<path d="M434.666,174.549c-5.568,1.856-8.598,7.893-6.742,13.482c6.229,18.731,9.387,38.016,9.387,57.323
				s-3.158,38.592-9.387,57.323c-1.856,5.568,1.152,11.626,6.742,13.482c1.13,0.362,2.24,0.534,3.37,0.534
				c4.48,0,8.619-2.838,10.133-7.296c6.955-20.885,10.475-42.453,10.475-64.042s-3.52-43.157-10.475-64.042
				C446.314,175.722,440.277,172.714,434.666,174.549z"/>
		</g>
	</g>
</g>
<g>
</g>
<g>
</g>
<g>
</g>
<g>
</g>
<g>
</g>
<g>
</g>
<g>
</g>
<g>
</g>
<g>
</g>
<g>
</g>
<g>
</g>
<g>
</g>
<g>
</g>
<g>
</g>
<g>
</g>
</svg>
