<?xml version="1.0" encoding="iso-8859-1"?>
<!-- Generator: Adobe Illustrator 19.0.0, SVG Export Plug-In . SVG Version: 6.00 Build 0)  -->
<svg version="1.1" id="Capa_1" xmlns="http://www.w3.org/2000/svg" xmlns:xlink="http://www.w3.org/1999/xlink" x="0px" y="0px"
	 viewBox="0 0 512 512" style="enable-background:new 0 0 512 512;" xml:space="preserve">
<g>
	<g>
		<g>
			<path d="M224,42.667h-42.667c-5.888,0-10.667,4.779-10.667,10.667S175.445,64,181.333,64H224c5.888,0,10.667-4.779,10.667-10.667
				S229.888,42.667,224,42.667z"/>
			<path d="M288.427,42.667h-0.213c-5.888,0-10.56,4.779-10.56,10.667S282.56,64,288.427,64c5.888,0,10.667-4.779,10.667-10.667
				S294.315,42.667,288.427,42.667z"/>
			<path d="M202.667,469.333c11.776,0,21.333-9.557,21.333-21.333s-9.557-21.333-21.333-21.333s-21.333,9.557-21.333,21.333
				S190.891,469.333,202.667,469.333z"/>
			<path d="M352,362.667c-5.888,0-10.667,4.779-10.667,10.667V384H64V106.667h277.333v32c0,5.888,4.779,10.667,10.667,10.667
				c5.888,0,10.667-4.779,10.667-10.667v-64C362.667,33.493,329.173,0,288,0H117.333C76.16,0,42.667,33.493,42.667,74.667v362.667
				c0,41.173,33.493,74.667,74.667,74.667H288c41.173,0,74.667-33.493,74.667-74.667v-64
				C362.667,367.445,357.888,362.667,352,362.667z M64,74.667c0-29.397,23.915-53.333,53.333-53.333H288
				c29.419,0,53.333,23.936,53.333,53.333v10.667H64V74.667z M341.333,437.333c0,29.397-23.915,53.333-53.333,53.333H117.333
				C87.915,490.667,64,466.731,64,437.333v-32h277.333V437.333z"/>
			<path d="M463.723,171.925c-3.477-1.856-7.701-1.643-10.965,0.533l-47.424,31.616v-22.741c0-5.888-4.779-10.667-10.667-10.667
				H245.333c-31.104,0-32,76.608-32,85.333s0.896,85.333,32,85.333h149.333c5.888,0,10.667-4.779,10.667-10.667v-22.741
				l47.424,31.616c1.792,1.195,3.84,1.792,5.909,1.792c1.728,0,3.456-0.427,5.035-1.259c3.456-1.856,5.632-5.461,5.632-9.408
				V181.333C469.333,177.387,467.157,173.781,463.723,171.925z M448,310.741l-47.403-31.616c-3.328-2.176-7.488-2.389-10.965-0.533
				C386.176,280.448,384,284.053,384,288v32.021l-136.747,0.448c-4.245-3.051-12.587-25.792-12.587-64.469s8.341-61.419,10.667-64
				H384v32c0,3.947,2.176,7.552,5.611,9.408c3.477,1.856,7.659,1.643,10.965-0.533L448,201.259V310.741z"/>
		</g>
	</g>
</g>
<g>
</g>
<g>
</g>
<g>
</g>
<g>
</g>
<g>
</g>
<g>
</g>
<g>
</g>
<g>
</g>
<g>
</g>
<g>
</g>
<g>
</g>
<g>
</g>
<g>
</g>
<g>
</g>
<g>
</g>
</svg>
