<?xml version="1.0" encoding="iso-8859-1"?>
<!-- Generator: Adobe Illustrator 19.0.0, SVG Export Plug-In . SVG Version: 6.00 Build 0)  -->
<svg version="1.1" id="Capa_1" xmlns="http://www.w3.org/2000/svg" xmlns:xlink="http://www.w3.org/1999/xlink" x="0px" y="0px"
	 viewBox="0 0 512.005 512.005" style="enable-background:new 0 0 512.005 512.005;" xml:space="preserve">
<g>
	<g>
		<g>
			<path d="M501.339,426.661c1.856,0,3.691-0.469,5.355-1.429c3.285-1.92,5.312-5.44,5.312-9.237v-320
				c0-3.819-2.027-7.317-5.312-9.237c-3.285-1.899-7.339-1.899-10.645-0.021l-133.376,76.203v-45.611c0-17.643-14.357-32-32-32
				H100.4L18.203,3.131c-4.16-4.16-10.923-4.16-15.083,0c-4.16,4.16-4.16,10.923,0,15.083L493.787,508.88
				c2.091,2.069,4.821,3.115,7.552,3.115c2.731,0,5.461-1.045,7.531-3.115c4.16-4.16,4.16-10.923,0-15.083L366.064,350.992
				l129.984,74.261C497.691,426.192,499.525,426.661,501.339,426.661z M490.672,397.605l-133.376-76.203
				c-3.285-1.899-7.36-1.877-10.645,0.021c-2.219,1.301-3.541,3.435-4.395,5.781L121.733,106.661h208.939
				c5.888,0,10.667,4.779,10.667,10.667v64c0,3.819,2.027,7.317,5.312,9.237c3.285,1.899,7.36,1.899,10.645,0.021l133.376-76.203
				V397.605z"/>
			<path d="M354.416,393.637c-5.397-2.368-11.669,0-14.101,5.355c-1.728,3.84-5.504,6.336-9.643,6.336H55.28
				c-10.155,0-33.941-50.816-33.941-149.333c0-78.016,15.851-136.533,31.147-148.032c4.715-3.541,5.675-10.219,2.133-14.933
				c-3.52-4.736-10.197-5.632-14.933-2.133c-27.413,20.587-39.68,97.749-39.68,165.099c0,82.197,17.301,170.667,55.275,170.667
				h275.392c12.501,0,23.936-7.424,29.099-18.923C362.181,402.363,359.792,396.048,354.416,393.637z"/>
		</g>
	</g>
</g>
<g>
</g>
<g>
</g>
<g>
</g>
<g>
</g>
<g>
</g>
<g>
</g>
<g>
</g>
<g>
</g>
<g>
</g>
<g>
</g>
<g>
</g>
<g>
</g>
<g>
</g>
<g>
</g>
<g>
</g>
</svg>
