<?xml version="1.0" encoding="iso-8859-1"?>
<!-- Generator: Adobe Illustrator 19.0.0, SVG Export Plug-In . SVG Version: 6.00 Build 0)  -->
<svg version="1.1" id="Capa_1" xmlns="http://www.w3.org/2000/svg" xmlns:xlink="http://www.w3.org/1999/xlink" x="0px" y="0px"
	 viewBox="0 0 512 512" style="enable-background:new 0 0 512 512;" xml:space="preserve">
<g>
	<g>
		<g>
			<path d="M256,32C114.837,32,0,113.344,0,213.333c0,51.435,30.613,100.117,84.245,134.464
				c-5.995,22.891-37.525,70.272-57.877,97.173c-0.064,0.107-0.149,0.192-0.213,0.299c-3.115,3.819-4.821,8.533-4.821,13.397
				c0,11.755,9.579,21.333,21.333,21.333c2.923,0,5.845-0.683,8.725-2.005c27.776-7.893,115.669-35.819,166.336-85.483
				c13.355,1.451,25.92,2.155,38.272,2.155c141.163,0,256-81.344,256-181.333S397.163,32,256,32z M255.979,373.333
				c-13.333,0-26.987-0.896-41.792-2.709c-4.352-0.533-8.341,1.792-10.304,5.547c-48.597,48.619-140.992,76.416-159.232,81.557
				c-0.704,0.192-1.259,0.597-1.92,0.96c0.469-0.512,0.875-1.045,1.237-1.621c8.533-11.328,61.12-82.432,62.528-114.112
				c0.171-3.925-1.792-7.616-5.163-9.643c-50.859-30.549-80.021-74.283-80.021-119.979c0-88.235,105.28-160,234.667-160
				s234.667,71.765,234.667,160S385.365,373.333,255.979,373.333z"/>
			<path d="M378.923,140.267c-3.136-1.963-7.083-2.133-10.368-0.469L320,164.075v-14.741c0-5.888-4.779-10.667-10.667-10.667H160
				c-22.101,0-32,37.504-32,74.667S137.899,288,160,288h149.333c5.888,0,10.667-4.779,10.667-10.667v-14.741l48.555,24.277
				c1.515,0.747,3.136,1.131,4.779,1.131c1.941,0,3.904-0.533,5.589-1.6c3.136-1.941,5.056-5.376,5.056-9.067v-128
				C383.979,145.643,382.059,142.208,378.923,140.267z M362.645,260.075l-48.555-24.277c-3.307-1.643-7.232-1.493-10.368,0.469
				c-3.136,1.941-5.056,5.376-5.056,9.067v21.355l-137.387,0.256c-3.52-2.133-11.947-20.608-11.947-53.611
				c0-33.003,8.427-51.477,10.667-53.333h138.667v21.333c0,3.691,1.92,7.125,5.056,9.067c3.115,1.941,7.04,2.091,10.368,0.469
				l48.555-24.277V260.075z"/>
		</g>
	</g>
</g>
<g>
</g>
<g>
</g>
<g>
</g>
<g>
</g>
<g>
</g>
<g>
</g>
<g>
</g>
<g>
</g>
<g>
</g>
<g>
</g>
<g>
</g>
<g>
</g>
<g>
</g>
<g>
</g>
<g>
</g>
</svg>
