<?xml version="1.0" encoding="iso-8859-1"?>
<!-- Generator: Adobe Illustrator 19.0.0, SVG Export Plug-In . SVG Version: 6.00 Build 0)  -->
<svg version="1.1" id="Capa_1" xmlns="http://www.w3.org/2000/svg" xmlns:xlink="http://www.w3.org/1999/xlink" x="0px" y="0px"
	 viewBox="0 0 512 512" style="enable-background:new 0 0 512 512;" xml:space="preserve">
<g>
	<g>
		<g>
			<path d="M378.923,140.267c-3.157-1.963-7.061-2.133-10.368-0.469L320,164.075v-14.741c0-5.888-4.779-10.667-10.667-10.667H160
				c-22.101,0-32,37.504-32,74.667S137.899,288,160,288h149.333c5.888,0,10.667-4.779,10.667-10.667v-14.741l48.555,24.277
				c1.515,0.747,3.136,1.131,4.779,1.131c1.941,0,3.904-0.533,5.589-1.6c3.136-1.941,5.056-5.376,5.056-9.067v-128
				C383.979,145.643,382.059,142.208,378.923,140.267z M362.645,260.075l-48.555-24.277c-3.285-1.643-7.232-1.493-10.368,0.469
				c-3.136,1.941-5.056,5.376-5.056,9.067v21.355l-137.387,0.256c-3.52-2.133-11.947-20.608-11.947-53.611
				c0-33.003,8.427-51.477,10.667-53.333h138.667v21.333c0,3.691,1.92,7.125,5.056,9.067c3.115,1.941,7.04,2.091,10.368,0.469
				l48.555-24.277V260.075z"/>
			<path d="M437.333,32H74.667C33.493,32,0,65.493,0,106.667V320c0,36.672,26.56,67.264,61.483,73.493
				c-16.299,26.496-34.901,51.179-35.115,51.477c-0.064,0.107-0.149,0.192-0.213,0.299c-3.115,3.819-4.821,8.533-4.821,13.397
				c0,11.755,9.579,21.333,21.333,21.333c2.923,0,5.845-0.683,8.725-2.005c27.051-7.68,112.832-34.901,163.947-83.328h221.995
				C478.507,394.667,512,361.173,512,320V106.667C512,65.493,478.507,32,437.333,32z M490.667,319.979
				c0,29.397-23.936,53.333-53.333,53.333H211.008c-2.837,0-5.525,1.131-7.531,3.115c-48.832,48.555-140.864,76.245-158.827,81.301
				c-0.704,0.192-1.259,0.597-1.92,0.96c0.469-0.512,0.875-1.067,1.237-1.643c4.117-5.483,27.861-37.547,44.8-67.861
				c1.856-3.307,1.813-7.339-0.107-10.603c-1.92-3.264-5.419-5.269-9.195-5.269h-4.8c-29.397,0-53.333-23.936-53.333-53.333V106.645
				c0-29.397,23.936-53.333,53.333-53.333h362.667c29.397,0,53.333,23.936,53.333,53.333V319.979z"/>
		</g>
	</g>
</g>
<g>
</g>
<g>
</g>
<g>
</g>
<g>
</g>
<g>
</g>
<g>
</g>
<g>
</g>
<g>
</g>
<g>
</g>
<g>
</g>
<g>
</g>
<g>
</g>
<g>
</g>
<g>
</g>
<g>
</g>
</svg>
