<?xml version="1.0" encoding="iso-8859-1"?>
<!-- Generator: Adobe Illustrator 19.0.0, SVG Export Plug-In . SVG Version: 6.00 Build 0)  -->
<svg version="1.1" id="Capa_1" xmlns="http://www.w3.org/2000/svg" xmlns:xlink="http://www.w3.org/1999/xlink" x="0px" y="0px"
	 viewBox="0 0 512 512" style="enable-background:new 0 0 512 512;" xml:space="preserve">
<g>
	<g>
		<g>
			<path d="M378.389,171.925c-3.477-1.856-7.68-1.664-10.965,0.533L320,204.075v-22.741c0-5.888-4.779-10.667-10.667-10.667H160
				c-31.104,0-32,76.608-32,85.333s0.896,85.333,32,85.333h149.333c5.888,0,10.667-4.779,10.667-10.667v-22.741l47.424,31.616
				c1.792,1.195,3.84,1.792,5.909,1.792c1.728,0,3.456-0.427,5.056-1.259c3.456-1.856,5.632-5.461,5.632-9.408V181.333
				C384.021,177.387,381.845,173.781,378.389,171.925z M362.688,310.741l-47.424-31.616c-3.307-2.197-7.488-2.389-10.965-0.533
				c-3.456,1.856-5.632,5.461-5.632,9.408v32.021l-136.747,0.448c-4.245-3.051-12.587-25.792-12.587-64.469s8.341-61.419,10.667-64
				h138.667v32c0,3.947,2.176,7.552,5.632,9.408c3.477,1.856,7.68,1.664,10.965-0.533l47.424-31.616V310.741z"/>
			<path d="M437.333,0H74.667C33.493,0,0,33.493,0,74.667v362.667C0,478.507,33.493,512,74.667,512h362.667
				C478.507,512,512,478.507,512,437.333V74.667C512,33.493,478.507,0,437.333,0z M490.667,437.333
				c0,29.397-23.915,53.333-53.333,53.333H74.667c-29.419,0-53.333-23.936-53.333-53.333V74.667
				c0-29.397,23.915-53.333,53.333-53.333h362.667c29.419,0,53.333,23.936,53.333,53.333V437.333z"/>
		</g>
	</g>
</g>
<g>
</g>
<g>
</g>
<g>
</g>
<g>
</g>
<g>
</g>
<g>
</g>
<g>
</g>
<g>
</g>
<g>
</g>
<g>
</g>
<g>
</g>
<g>
</g>
<g>
</g>
<g>
</g>
<g>
</g>
</svg>
