<?xml version="1.0" encoding="iso-8859-1"?>
<!-- Generator: Adobe Illustrator 19.0.0, SVG Export Plug-In . SVG Version: 6.00 Build 0)  -->
<svg version="1.1" id="Capa_1" xmlns="http://www.w3.org/2000/svg" xmlns:xlink="http://www.w3.org/1999/xlink" x="0px" y="0px"
	 viewBox="0 0 512 512" style="enable-background:new 0 0 512 512;" xml:space="preserve">
<g>
	<g>
		<g>
			<path d="M53.333,42.667c-5.888,0-10.667,4.779-10.667,10.667S47.445,64,53.333,64S64,59.221,64,53.333
				S59.221,42.667,53.333,42.667z"/>
			<path d="M160,384h149.333c5.888,0,10.667-4.779,10.667-10.667v-22.741l47.424,31.616c1.792,1.195,3.84,1.792,5.909,1.792
				c1.728,0,3.456-0.427,5.056-1.259c3.456-1.856,5.632-5.461,5.632-9.408V224c0-3.947-2.176-7.552-5.632-9.408
				c-3.477-1.856-7.68-1.643-10.965,0.533L320,246.741V224c0-5.888-4.779-10.667-10.667-10.667H160c-31.104,0-32,76.608-32,85.333
				S128.896,384,160,384z M160,234.667h138.667v32c0,3.947,2.176,7.552,5.632,9.408c3.477,1.856,7.68,1.643,10.965-0.533
				l47.424-31.616v109.483l-47.424-31.616c-3.307-2.176-7.488-2.368-10.965-0.533c-3.456,1.856-5.632,5.461-5.632,9.408v32.021
				l-136.747,0.448c-4.245-3.051-12.587-25.792-12.587-64.469C149.333,259.989,157.675,237.248,160,234.667z"/>
			<path d="M96,42.667c-5.888,0-10.667,4.779-10.667,10.667S90.112,64,96,64s10.667-4.779,10.667-10.667S101.888,42.667,96,42.667z"
				/>
			<path d="M458.667,0H53.333C23.915,0,0,23.936,0,53.333v405.333C0,488.064,23.915,512,53.333,512h405.333
				C488.085,512,512,488.064,512,458.667V53.333C512,23.936,488.085,0,458.667,0z M490.667,458.667c0,17.643-14.357,32-32,32H53.333
				c-17.643,0-32-14.357-32-32v-352h469.333V458.667z M490.667,85.333H21.333v-32c0-17.643,14.357-32,32-32h405.333
				c17.643,0,32,14.357,32,32V85.333z"/>
			<path d="M138.667,42.667c-5.888,0-10.667,4.779-10.667,10.667S132.779,64,138.667,64s10.667-4.779,10.667-10.667
				S144.555,42.667,138.667,42.667z"/>
		</g>
	</g>
</g>
<g>
</g>
<g>
</g>
<g>
</g>
<g>
</g>
<g>
</g>
<g>
</g>
<g>
</g>
<g>
</g>
<g>
</g>
<g>
</g>
<g>
</g>
<g>
</g>
<g>
</g>
<g>
</g>
<g>
</g>
</svg>
