<svg height="499pt" viewBox="-102 0 499 499" width="499pt" xmlns="http://www.w3.org/2000/svg"><path d="m295 40.167969c0-22.183594-17.984375-40.167969-40.167969-40.167969h-214.664062c-22.183594 0-40.167969 17.984375-40.167969 40.167969v418.664062c0 22.183594 17.984375 40.167969 40.167969 40.167969h214.664062c22.183594 0 40.167969-17.984375 40.167969-40.167969zm-17 345.832031h-262v-290h262zm-23.773438 96h-214.453124c-6.339844.035156-12.429688-2.472656-16.898438-6.96875s-6.949219-10.597656-6.875-16.9375v-56.09375h262v56.09375c.074219 6.339844-2.40625 12.441406-6.875 16.9375s-10.558594 7.003906-16.898438 6.96875zm-214.453124-466h214.453124c6.339844-.035156 12.429688 2.472656 16.898438 6.96875s6.949219 10.597656 6.875 16.9375v40.09375h-262v-40.09375c-.074219-6.339844 2.40625-12.441406 6.875-16.9375s10.558594-7.003906 16.898438-6.96875zm0 0"/><path d="m112.152344 53h69.699218c4.417969 0 8-3.582031 8-8s-3.582031-8-8-8h-69.699218c-4.417969 0-8 3.582031-8 8s3.582031 8 8 8zm0 0"/><path d="m147 412.5625c-16.261719 0-29.445312 13.183594-29.445312 29.445312-.003907 16.265626 13.179687 29.449219 29.445312 29.449219 16.261719 0 29.445312-13.183593 29.445312-29.445312-.019531-16.257813-13.191406-29.429688-29.445312-29.449219zm0 42.894531c-7.425781 0-13.445312-6.019531-13.445312-13.445312-.003907-7.425781 6.019531-13.449219 13.445312-13.449219s13.445312 6.019531 13.445312 13.449219c-.007812 7.421875-6.023437 13.433593-13.445312 13.445312zm0 0"/><path d="m48.582031 371h196.835938c2.046875.050781 4.023437-.746094 5.460937-2.207031 1.4375-1.457031 2.203125-3.445313 2.121094-5.492188v-34.753906c0-26.085937-20.804688-47.546875-46.894531-47.546875h-20.105469v-8.371094c2-1.785156 4.121094-3.714844 6.167969-5.816406 12.183593-12.535156 18.949219-29.359375 18.832031-46.835938v-49.976562h6.464844c2.105468.035156 4.136718-.773438 5.640625-2.246094 1.503906-1.476562 2.351562-3.488281 2.359375-5.59375-.042969-26.089844-21.230469-47.207031-47.320313-47.160156h-40.472656c-5.648437-.054688-11.179687 1.613281-15.851563 4.785156-25.097656 9.820313-41.667968 33.953125-41.820312 60.902344v39.285156c.011719 17.523438 6.898438 34.339844 19.183594 46.839844 2.734375 2.746094 5.683594 5.273438 8.816406 7.558594v6.628906h-20.105469c-26.089843 0-46.894531 21.460938-46.894531 47.546875v34.753906c-.082031 2.046875.683594 4.035157 2.121094 5.492188 1.4375 1.460937 3.414062 2.257812 5.460937 2.207031zm188.417969-42.453125v26.453125h-83v-41.675781l26.023438-16.324219h26.082031c17.265625 0 30.894531 14.28125 30.894531 31.546875zm-99.328125-197.546875h40.472656c14.101563.042969 26.460938 9.429688 30.285157 23h-70.757813c-6.351563 0-11.5-5.148438-11.5-11.5s5.148437-11.5 11.5-11.5zm-27.386719 15.191406c1.113282 7.910156 5.589844 14.953125 12.277344 19.320313-7.230469 6.6875-16.429688 10.859375-26.222656 11.902343.816406-11.726562 5.753906-22.789062 13.945312-31.222656zm-14.285156 73.785156v-26.535156c11-.742187 29.050781-5.441406 44.371094-23.441406h54.628906v49.976562c.058594 13.324219-5.121094 26.136719-14.425781 35.671876-9.105469 9.578124-21.742188 15-34.957031 15-13.214844 0-25.851563-5.421876-34.960938-15-9.367188-9.511719-14.628906-22.320313-14.65625-35.671876zm49.851562 66.671876c8.269532-.039063 16.460938-1.625 24.148438-4.667969v2.8125l-23.636719 14.601562-22.363281-14.488281v-2.039062c7.015625 2.496093 14.40625 3.777343 21.851562 3.78125zm-88.851562 41.898437c0-17.265625 13.628906-31.546875 30.894531-31.546875h25.835938l24.269531 16.210938v41.789062h-81zm0 0"/><path d="m139.039062 208.765625c0-4.417969-3.582031-8-8-8-4.417968 0-8 3.582031-8 8 .015626.660156-.328124 1.277344-.898437 1.613281-.570313.332032-1.277344.332032-1.847656 0-.570313-.335937-.914063-.953125-.898438-1.613281 0-4.417969-3.582031-8-8-8s-8 3.582031-8 8c-.046875 6.398437 3.339844 12.332031 8.875 15.542969 5.53125 3.214844 12.363281 3.214844 17.898438 0 5.53125-3.210938 8.917969-9.144532 8.871093-15.542969zm0 0"/><path d="m170.328125 226.585938c9.835937-.011719 17.808594-7.984376 17.820313-17.820313 0-4.417969-3.582032-8-8-8-4.417969 0-8 3.582031-8 8 0 1.003906-.816407 1.820313-1.820313 1.820313-1.007813 0-1.824219-.816407-1.824219-1.820313 0-4.417969-3.582031-8-8-8-4.417968 0-8 3.582031-8 8 .011719 9.835937 7.984375 17.808594 17.824219 17.820313zm0 0"/></svg>