<?xml version="1.0" encoding="iso-8859-1"?>
<!-- Generator: Adobe Illustrator 19.0.0, SVG Export Plug-In . SVG Version: 6.00 Build 0)  -->
<svg version="1.1" id="Capa_1" xmlns="http://www.w3.org/2000/svg" xmlns:xlink="http://www.w3.org/1999/xlink" x="0px" y="0px"
	 viewBox="0 0 512 512" style="enable-background:new 0 0 512 512;" xml:space="preserve">
<g>
	<g>
		<g>
			<path d="M160,341.334h106.667c5.888,0,10.667-4.779,10.667-10.667s-4.779-10.667-10.667-10.667L161.92,320.47
				c-4.245-3.05-12.586-25.792-12.586-64.469c0-16.874,1.685-33.13,4.758-45.76c1.408-5.738-2.091-11.498-7.83-12.885
				c-5.781-1.386-11.52,2.134-12.885,7.851C129.899,219.436,128,237.462,128,256C128,264.726,128.896,341.334,160,341.334z"/>
			<path d="M256,0L256,0C185.707,0,121.963,28.502,75.648,74.539c-0.214,0.192-0.49,0.256-0.682,0.448
				c-0.214,0.214-0.278,0.469-0.448,0.682C28.502,121.984,0,185.707,0,256c0,141.162,114.838,256,256,256
				c70.294,0,134.016-28.502,180.331-74.518c0.214-0.17,0.49-0.256,0.682-0.448s0.277-0.469,0.448-0.682
				C483.499,390.058,512,326.293,512,256C512,114.837,397.162,0,256,0z M256,490.667c-129.386,0-234.667-105.28-234.667-234.667
				c0-60.864,23.488-116.202,61.61-157.952l330.987,330.987C372.203,467.179,316.864,490.667,256,490.667z M304.299,233.408
				L304.299,233.408c3.477,1.857,7.658,1.665,10.965-0.533l47.424-31.616v109.482l-47.424-31.616
				c-3.328-2.198-7.488-2.39-10.965-0.534c-2.368,1.28-3.798,3.499-4.672,5.974L207.061,192h91.606v32
				C298.667,227.946,300.843,231.552,304.299,233.408z M429.035,413.974L328.96,313.899l38.464,25.643
				c1.792,1.195,3.84,1.792,5.909,1.792c1.728,0,3.456-0.427,5.056-1.258c3.456-1.856,5.632-5.461,5.632-9.408V181.334
				c0-3.946-2.176-7.552-5.632-9.408c-3.478-1.856-7.68-1.664-10.966,0.534L320,204.076v-22.742c0-5.888-4.779-10.667-10.667-10.667
				H185.728L98.027,82.966C139.776,44.822,195.136,21.334,256,21.334c129.386,0,234.667,105.28,234.667,234.666
				C490.667,316.865,467.179,372.224,429.035,413.974z"/>
		</g>
	</g>
</g>
<g>
</g>
<g>
</g>
<g>
</g>
<g>
</g>
<g>
</g>
<g>
</g>
<g>
</g>
<g>
</g>
<g>
</g>
<g>
</g>
<g>
</g>
<g>
</g>
<g>
</g>
<g>
</g>
<g>
</g>
</svg>
